<?xml version="1.0" encoding="utf-8"?>
<!-- Generator: Adobe Illustrator 15.0.2, SVG Export Plug-In . SVG Version: 6.00 Build 0)  -->
<!DOCTYPE svg PUBLIC "-//W3C//DTD SVG 1.1//EN" "http://www.w3.org/Graphics/SVG/1.1/DTD/svg11.dtd">
<svg version="1.1" xmlns="http://www.w3.org/2000/svg" xmlns:xlink="http://www.w3.org/1999/xlink" x="0px" y="0px"
	 width="40.858px" height="36.2px" viewBox="0 0 40.858 36.2" enable-background="new 0 0 40.858 36.2" xml:space="preserve">
<g id="bluebox_gradient">
	<g>
		<g>
			<g>
				<g>
					<g>
						<defs>
							<path id="SVGID_1_" d="M40.646,0H4.75v36.024h35.896V24.134c0.143-0.205,0.213-0.471,0.213-0.793
								c0-0.367-0.07-0.596-0.213-0.787V0z"/>
						</defs>
						<radialGradient id="SVGID_2_" cx="10.7759" cy="6.2178" r="42.7972" gradientUnits="userSpaceOnUse">
							<stop  offset="0" style="stop-color:#84D5F7"/>
							<stop  offset="0.0628" style="stop-color:#7ED1F6"/>
							<stop  offset="0.1465" style="stop-color:#69C9F2"/>
							<stop  offset="0.2419" style="stop-color:#40BCED"/>
							<stop  offset="0.3453" style="stop-color:#00ADE7"/>
							<stop  offset="0.3708" style="stop-color:#00AAE5"/>
							<stop  offset="0.4657" style="stop-color:#009CDB"/>
							<stop  offset="0.5907" style="stop-color:#008ED0"/>
							<stop  offset="0.7195" style="stop-color:#0084C8"/>
							<stop  offset="0.8533" style="stop-color:#007FC4"/>
							<stop  offset="1" style="stop-color:#007DC3"/>
						</radialGradient>
						<use xlink:href="#SVGID_1_"  overflow="visible" fill="url(#SVGID_2_)"/>
						<clipPath id="SVGID_3_">
							<use xlink:href="#SVGID_1_"  overflow="visible"/>
						</clipPath>
					</g>
				</g>
			</g>
		</g>
		<g>
			<path fill="#FFFFFF" d="M4.75,18.239h1.725l0.389-0.941h0.87l0.387,0.941h3.393v-0.719l0.304,0.721h1.759l0.302-0.729v0.727h8.43
				L22.303,16.7h0.163c0.115,0.002,0.148,0.016,0.148,0.203v1.336h4.357V17.88c0.352,0.189,0.9,0.359,1.617,0.359h1.836l0.393-0.941
				h0.871l0.385,0.941h3.533v-0.893l0.535,0.893h2.83v-5.889h-2.803v0.697l-0.391-0.697h-2.877v0.697l-0.359-0.697h-3.885
				c-0.65,0-1.225,0.09-1.686,0.344v-0.344h-2.678v0.344c-0.297-0.262-0.697-0.344-1.141-0.344h-9.794l-0.66,1.521l-0.671-1.521
				H8.943v0.697l-0.342-0.697h-2.63L4.75,15.147V18.239z M38.073,17.407h-1.43l-1.912-3.164l0.002,3.164h-2.055l-0.393-0.941h-2.1
				l-0.377,0.941h-1.182c-0.492,0-1.113-0.109-1.462-0.465c-0.358-0.361-0.54-0.844-0.54-1.613c0-0.627,0.111-1.197,0.544-1.648
				c0.327-0.338,0.837-0.494,1.532-0.494h0.975v0.904h-0.953c-0.368,0-0.579,0.057-0.78,0.252c-0.169,0.178-0.288,0.514-0.288,0.957
				c0,0.453,0.088,0.775,0.279,0.99c0.152,0.166,0.436,0.217,0.701,0.217h0.454l1.421-3.32h1.512l1.707,3.992v-3.992h1.539
				l1.773,2.939v-2.939h1.031V17.407z M26.133,17.407h-1.029v-4.221h1.029V17.407z M24.518,14.327c0,0.668-0.449,1.02-0.71,1.123
				c0.221,0.086,0.408,0.23,0.496,0.357c0.143,0.205,0.17,0.398,0.17,0.77v0.83h-1.018l-0.004-0.531c0-0.25,0.025-0.617-0.162-0.818
				c-0.147-0.15-0.369-0.182-0.733-0.182h-1.085v1.531h-1.007v-4.221h2.321c0.513,0,0.895,0.018,1.221,0.205
				C24.327,13.579,24.518,13.854,24.518,14.327z M19.765,17.407h-3.37v-4.221h3.37v0.883h-2.359v0.758h2.302v0.867l-2.302-0.004
				v0.844h2.359V17.407z M15.644,17.407H14.61l-0.006-3.301l-1.462,3.301h-0.885l-1.47-3.309v3.309H8.736l-0.386-0.941H6.249
				l-0.39,0.941H4.763l1.804-4.221h1.501l1.715,3.998v-3.998h1.649l1.318,2.865l1.214-2.865h1.68V17.407z M31.94,15.587l-0.699-1.68
				l-0.691,1.68H31.94z M23.197,14.921c-0.138,0.078-0.302,0.086-0.499,0.086h-1.227v-0.938h1.242c0.178,0,0.361,0.006,0.481,0.072
				c0.13,0.064,0.21,0.195,0.21,0.373C23.405,14.7,23.327,14.847,23.197,14.921z M7.986,15.587l-0.69-1.68l-0.688,1.68H7.986z"/>
			<path fill="#FFFFFF" d="M24.304,21.845c0,1.17-0.873,1.414-1.757,1.414h-1.259v1.416H19.33l-1.243-1.396l-1.291,1.396h-3.995
				v-4.223h4.058l1.24,1.383l1.283-1.383h3.223C23.405,20.452,24.304,20.675,24.304,21.845z M16.284,23.794h-2.48v-0.84h2.215
				v-0.861h-2.215v-0.766h2.528l1.104,1.229L16.284,23.794z M20.283,24.292l-1.547-1.721l1.547-1.664V24.292z M22.595,22.399h-1.307
				v-1.072h1.316c0.365,0,0.617,0.146,0.617,0.518C23.222,22.21,22.981,22.399,22.595,22.399z M29.399,20.452h3.369v0.875h-2.363
				v0.766h2.305v0.861h-2.305v0.84l2.363,0.004v0.877h-3.369V20.452z M28.124,22.712c0.225,0.082,0.408,0.23,0.494,0.355
				c0.143,0.207,0.166,0.398,0.168,0.771v0.836h-1.012v-0.529c0-0.254,0.023-0.629-0.164-0.824
				c-0.146-0.154-0.371-0.189-0.738-0.189h-1.08v1.543H24.78v-4.223h2.327c0.513,0,0.885,0.021,1.215,0.201
				c0.317,0.189,0.517,0.457,0.517,0.938C28.839,22.263,28.391,22.606,28.124,22.712z M27.515,22.188
				c-0.133,0.078-0.301,0.086-0.496,0.086h-1.227v-0.947h1.243c0.179,0,0.36,0.004,0.479,0.074c0.131,0.07,0.209,0.199,0.209,0.381
				C27.724,21.962,27.646,22.108,27.515,22.188z M36.618,22.446c0.199,0.205,0.303,0.463,0.303,0.895
				c0,0.91-0.568,1.334-1.584,1.334H33.37v-0.906h1.959c0.193,0,0.326-0.025,0.412-0.105c0.068-0.063,0.119-0.156,0.119-0.273
				c0-0.123-0.053-0.223-0.125-0.279c-0.076-0.066-0.182-0.094-0.357-0.096c-0.943-0.031-2.125,0.029-2.125-1.307
				c0-0.611,0.385-1.256,1.441-1.256h2.023v0.898h-1.85c-0.186,0-0.305,0.008-0.406,0.076c-0.109,0.068-0.15,0.172-0.15,0.305
				c0,0.158,0.094,0.268,0.221,0.314c0.105,0.037,0.219,0.047,0.391,0.049l0.545,0.014C36.017,22.124,36.39,22.218,36.618,22.446z
				 M40.646,24.134c-0.248,0.361-0.725,0.541-1.371,0.541h-1.949v-0.906h1.941c0.191,0,0.326-0.025,0.408-0.105
				c0.068-0.063,0.121-0.156,0.121-0.273c0-0.123-0.053-0.223-0.123-0.279c-0.076-0.066-0.182-0.094-0.355-0.096
				c-0.947-0.031-2.129,0.029-2.129-1.307c0-0.611,0.389-1.256,1.445-1.256h2.012v-0.84h-1.869c-0.564,0-0.973,0.135-1.264,0.346
				v-0.346h-2.762c-0.439,0-0.957,0.111-1.205,0.346l0.002-0.346h-4.934v0.346c-0.393-0.281-1.053-0.346-1.361-0.346h-3.25v0.346
				c-0.313-0.301-1-0.346-1.422-0.346h-3.642l-0.833,0.904l-0.779-0.904h-5.44v5.893h5.338l0.858-0.916l0.81,0.916l3.286,0.002
				V24.12h0.326c0.434,0.006,0.951-0.01,1.404-0.205v1.59h2.713v-1.537h0.131c0.168,0,0.184,0.01,0.184,0.174v1.363h8.242
				c0.521,0,1.068-0.135,1.371-0.377v0.377h2.615c0.545,0,1.074-0.076,1.48-0.271V24.134z M40.646,21.351h-1.842
				c-0.184,0-0.307,0.008-0.406,0.076c-0.105,0.068-0.148,0.172-0.148,0.305c0,0.158,0.09,0.268,0.223,0.314
				c0.104,0.037,0.219,0.047,0.389,0.049l0.545,0.014c0.551,0.016,0.92,0.109,1.146,0.338c0.037,0.033,0.064,0.072,0.094,0.107
				V21.351z"/>
		</g>
	</g>
	<g>
		<g>
			<g>
				<path fill="#007DC3" d="M2.453,35.28H2.138c-0.04-0.125-0.046-0.361-0.046-0.418c0-0.117-0.02-0.234-0.234-0.234H1.395
					l0.001,0.652H1.117v-1.594h0.74c0.255,0,0.536,0.092,0.536,0.445c0,0.199-0.085,0.297-0.172,0.359
					c0.072,0.041,0.134,0.109,0.143,0.289l0.012,0.275c0.005,0.08,0.011,0.096,0.077,0.133V35.28z M2.109,34.153
					c0-0.201-0.138-0.219-0.238-0.219H1.395v0.445h0.441C1.982,34.38,2.109,34.345,2.109,34.153z M3.419,34.501
					c0-0.943-0.765-1.699-1.709-1.699S0,33.558,0,34.501S0.766,36.2,1.71,36.2S3.419,35.444,3.419,34.501z M3.161,34.501
					c0,0.801-0.616,1.451-1.451,1.451s-1.451-0.65-1.451-1.451S0.873,33.05,1.71,33.05C2.549,33.05,3.161,33.7,3.161,34.501z"/>
			</g>
		</g>
	</g>
</g>
<g id="vector_gradient">
	<g>
		<path fill="#00AAE5" d="M24.518,14.327c0,0.669-0.449,1.02-0.709,1.124c0.221,0.085,0.408,0.23,0.496,0.356
			c0.143,0.206,0.17,0.398,0.17,0.771v0.829h-1.018l-0.004-0.53c0-0.251,0.025-0.618-0.162-0.819
			c-0.148-0.15-0.369-0.182-0.734-0.182h-1.084v1.531h-1.008v-4.22h2.322c0.512,0,0.895,0.017,1.221,0.204
			C24.328,13.579,24.518,13.854,24.518,14.327z"/>
		<polygon fill="#00B1E8" points="19.766,17.407 16.395,17.407 16.395,13.188 19.766,13.188 19.766,14.069 17.406,14.069 
			17.406,14.827 19.707,14.827 19.707,15.694 17.406,15.691 17.406,16.535 19.766,16.535 		"/>
		<polygon fill="#47BAEB" points="15.644,17.407 14.61,17.407 14.604,14.106 13.144,17.407 12.259,17.407 10.788,14.1 
			10.788,17.407 8.737,17.407 8.351,16.467 6.249,16.467 5.86,17.407 4.763,17.407 6.567,13.188 8.067,13.188 9.782,17.186 
			9.782,13.188 11.433,13.188 12.751,16.053 13.964,13.188 15.644,13.188 		"/>
		<path fill="#FFFFFF" d="M23.197,14.921c-0.137,0.079-0.301,0.086-0.498,0.086h-1.227v-0.938h1.242c0.178,0,0.361,0.006,0.48,0.073
			c0.131,0.063,0.211,0.194,0.211,0.373C23.406,14.701,23.328,14.848,23.197,14.921z"/>
		<polygon fill="#FFFFFF" points="7.987,15.588 7.296,13.907 6.608,15.588 		"/>
	</g>
</g>
</svg>
