<?xml version="1.0" encoding="utf-8"?>
<!-- Generator: Adobe Illustrator 15.0.2, SVG Export Plug-In . SVG Version: 6.00 Build 0)  -->
<!DOCTYPE svg PUBLIC "-//W3C//DTD SVG 1.1//EN" "http://www.w3.org/Graphics/SVG/1.1/DTD/svg11.dtd">
<svg version="1.1" id="Layer_1" xmlns="http://www.w3.org/2000/svg" xmlns:xlink="http://www.w3.org/1999/xlink" x="0px" y="0px"
	 width="159.149px" height="42.746px" viewBox="0 0 159.149 42.746" enable-background="new 0 0 159.149 42.746"
	 xml:space="preserve">
<g>
	<path fill-rule="evenodd" clip-rule="evenodd" fill="#DC1F29" d="M60.832,25.429c3.288,0,4.933-0.22,4.933-2.74
		c0-2.63-1.645-2.959-4.933-2.959H48.556v-7.234h11.947c4.494,0,7.672,0.329,10.083,1.973c2.74,1.753,3.946,4.384,3.946,8
		c0,6.467-3.836,9.975-11.07,9.975h-5.59v8.878h-9.316V25.429H60.832L60.832,25.429z"/>
	<path fill-rule="evenodd" clip-rule="evenodd" fill="#DC1F29" d="M90.646,11.728c9.316,0,15.016,5.809,15.016,15.235
		c0,9.316-5.699,15.126-15.016,15.126c-9.318,0-15.127-5.81-15.127-15.126C75.519,17.537,81.327,11.728,90.646,11.728L90.646,11.728
		z M90.646,34.854c3.945,0,5.59-2.521,5.59-7.892c0-5.48-1.645-8.001-5.59-8.001c-3.947,0-5.701,2.521-5.701,8.001
		C84.944,32.334,86.698,34.854,90.646,34.854L90.646,34.854z"/>
	<path fill-rule="evenodd" clip-rule="evenodd" fill="#DC1F29" d="M116.401,31.786c0.221,2.521,1.754,3.397,4.275,3.397
		c2.301,0,3.508-0.768,3.508-2.083c0-1.753-1.645-1.863-5.043-2.739c-4.055-1.097-6.686-1.974-7.891-2.851
		c-2.303-1.534-3.289-3.727-3.289-6.576c0-5.59,4.385-9.207,12.057-9.207c7.563,0,12.166,3.397,12.496,9.645h-8.77
		c-0.109-2.302-1.533-3.068-3.836-3.068c-1.973,0-2.959,0.548-2.959,1.972c0,1.425,1.535,1.753,4.273,2.521
		c3.617,0.877,6.469,1.425,8.332,2.631c2.52,1.753,3.727,3.836,3.727,6.795c0,6.248-4.494,9.865-12.934,9.865
		c-7.783,0-12.715-3.617-12.934-10.303H116.401L116.401,31.786z"/>
	<polygon fill-rule="evenodd" clip-rule="evenodd" fill="#DC1F29" points="141.722,20.058 133.392,20.058 133.392,12.495 
		159.149,12.495 159.149,20.058 151.038,20.058 151.038,41.321 141.722,41.321 141.722,20.058 	"/>
	<path fill-rule="evenodd" clip-rule="evenodd" fill="#DC1F29" d="M12.605,8.111C5.261,10.303,0,16.989,0,24.99
		c0,8.11,5.261,14.797,12.605,16.988V8.111L12.605,8.111z"/>
	<path fill-rule="evenodd" clip-rule="evenodd" fill="#DC1F29" d="M17.756,7.343c-0.438,0-0.767,0-1.206,0v1.864
		c0.219,0,0.438,0,0.767,0c6.028,0,11.07,4.932,11.07,10.96c0,6.028-4.933,10.96-10.96,11.07v11.509c0.109,0,0.219,0,0.329,0
		c9.865,0,17.866-7.892,17.866-17.756C35.622,15.235,27.621,7.343,17.756,7.343L17.756,7.343z"/>
	<path fill-rule="evenodd" clip-rule="evenodd" fill="#DC1F29" d="M50.2,6.357L49.652,8.33h-1.315l2.631-8.111h1.425l2.412,8.111
		h-1.315L52.94,6.357H50.2L50.2,6.357z M51.625,1.753l-1.096,3.508h2.083L51.625,1.753L51.625,1.753z"/>
	<path fill-rule="evenodd" clip-rule="evenodd" fill="#DC1F29" d="M56.338,0.219v5.151c0,0.877,0,1.535,0.438,2.192
		c0.548,0.658,1.206,0.876,2.083,0.876c0.876,0,1.534-0.219,1.863-0.548c0.548-0.548,0.767-1.315,0.767-2.63V0.219h-1.206V5.48
		c0,0.548,0,0.986-0.219,1.315c-0.219,0.438-0.548,0.658-1.206,0.658c-0.548,0-0.877-0.219-1.096-0.658
		c-0.219-0.329-0.219-0.767-0.219-1.425V0.219H56.338L56.338,0.219z"/>
	<path fill-rule="evenodd" clip-rule="evenodd" fill="#DC1F29" d="M63.462,5.919c0,0.109,0,0.109,0,0.109c0,0.109,0,0.109,0,0.109
		c0,0.768,0.219,1.315,0.548,1.754c0.438,0.329,0.986,0.548,1.863,0.548s1.535-0.219,1.973-0.657
		c0.329-0.329,0.548-0.877,0.548-1.645c0-0.986-0.658-1.424-1.644-2.082l-0.438-0.329c-0.987-0.548-1.535-0.986-1.535-1.645
		c0-0.329,0.109-0.548,0.329-0.767c0.219-0.109,0.438-0.329,0.876-0.329c0.329,0,0.548,0.109,0.768,0.329
		c0.219,0.219,0.329,0.548,0.329,0.987v0.219h1.206V2.192c0-0.658-0.109-1.206-0.548-1.535C67.408,0.219,66.75,0,65.983,0
		c-1.425,0-2.411,0.877-2.411,2.192c0,1.206,0.548,1.645,1.753,2.412l0.329,0.219c0.986,0.548,1.534,0.876,1.534,1.534
		s-0.548,1.096-1.315,1.096c-0.329,0-0.548-0.11-0.767-0.219c-0.22-0.219-0.329-0.548-0.329-1.096V5.919H63.462L63.462,5.919
		L63.462,5.919z"/>
	<polygon fill-rule="evenodd" clip-rule="evenodd" fill="#DC1F29" points="72.34,1.206 72.34,8.33 71.134,8.33 71.134,1.206 
		69.162,1.206 69.162,0.219 74.313,0.219 74.313,1.206 72.34,1.206 	"/>
	<path fill-rule="evenodd" clip-rule="evenodd" fill="#DC1F29" d="M79.355,4.165c0.768,0.11,0.986,0.767,0.986,1.644
		c0,0.219,0,0.329,0,0.438c0,0.109,0,0.219,0,0.329c0,0.658,0.109,1.206,0.221,1.645V8.33h-1.207h-0.109
		c-0.11-0.548-0.11-1.206-0.11-1.863c0-0.219,0-0.438,0-0.658c0-0.877-0.219-1.096-0.876-1.096h-1.206V8.33h-1.206V0.219h2.192
		c0.986,0,1.644,0.109,1.973,0.548c0.328,0.329,0.548,0.767,0.548,1.425C80.562,3.179,80.123,3.836,79.355,4.165L79.355,4.165z
		 M79.026,1.425c-0.219-0.11-0.438-0.219-0.877-0.219h-1.096v2.412h0.658c1.096,0,1.644-0.329,1.644-1.315
		C79.355,1.973,79.246,1.644,79.026,1.425L79.026,1.425z"/>
	<path fill-rule="evenodd" clip-rule="evenodd" fill="#DC1F29" d="M86.589,6.357h-2.74L83.302,8.33h-1.316l2.631-8.111h1.314
		l2.521,8.111h-1.314L86.589,6.357L86.589,6.357z M85.274,1.753l-1.096,3.508h2.082L85.274,1.753L85.274,1.753z"/>
	<polygon fill-rule="evenodd" clip-rule="evenodd" fill="#DC1F29" points="91.302,7.234 91.302,0.219 90.097,0.219 90.097,8.33 
		94.042,8.33 94.042,7.234 91.302,7.234 	"/>
	<polygon fill-rule="evenodd" clip-rule="evenodd" fill="#DC1F29" points="95.358,8.33 96.563,8.33 96.563,0.219 95.358,0.219 
		95.358,8.33 95.358,8.33 	"/>
	<path fill-rule="evenodd" clip-rule="evenodd" fill="#DC1F29" d="M102.812,6.357h-2.74L99.522,8.33h-1.314l2.52-8.111h1.426
		l2.521,8.111h-1.316L102.812,6.357L102.812,6.357z M101.386,1.753l-0.986,3.508h2.082L101.386,1.753L101.386,1.753z"/>
</g>
</svg>
