<?xml version="1.0" encoding="utf-8"?>
<!-- Generator: Adobe Illustrator 15.0.2, SVG Export Plug-In . SVG Version: 6.00 Build 0)  -->
<!DOCTYPE svg PUBLIC "-//W3C//DTD SVG 1.1//EN" "http://www.w3.org/Graphics/SVG/1.1/DTD/svg11.dtd">
<svg version="1.1" id="Layer_1" xmlns="http://www.w3.org/2000/svg" xmlns:xlink="http://www.w3.org/1999/xlink" x="0px" y="0px"
	 width="240.961px" height="285px" viewBox="0 0 240.961 285" enable-background="new 0 0 240.961 285" xml:space="preserve">
<g>
	<defs>
		<rect id="SVGID_1_" x="0.001" width="240.961" height="285"/>
	</defs>
	<clipPath id="SVGID_2_">
		<use xlink:href="#SVGID_1_"  overflow="visible"/>
	</clipPath>
	<path clip-path="url(#SVGID_2_)" fill="#A0B965" d="M233.888,31.023c-5.793-6.719-15.52-10.574-28.948-11.519
		c0.155-8.09-0.043-13.196-0.067-13.758C204.735,2.535,202.091,0,198.876,0H41.165c-3.215,0-5.859,2.535-5.996,5.746
		c-0.023,0.562-0.223,5.672-0.066,13.758c-13.43,0.945-23.157,4.8-28.954,11.519c-5.183,6.008-7.105,13.941-5.707,23.578
		c0.223,2.168,2.571,23.328,11.348,46.77c6.086,16.261,15.059,26.902,26.672,31.629c4.816,1.964,9.477,2.629,13.59,2.629
		c4.48,0,8.293-0.793,10.953-1.559c9.484,14.329,21.215,24.277,34.984,29.633c-2.75,41.496-31.695,49.543-37.297,50.711H45.72
		c-3.313,0-6,2.687-6,6v58.25c0,3.312,2.687,6,6,6h148.601c3.313,0,6-2.688,6-6v-58.25c0-3.313-2.688-6-6-6h-14.977
		c-5.609-1.172-34.543-9.223-37.297-50.711c13.77-5.356,25.504-15.305,34.988-29.633c2.656,0.766,6.469,1.559,10.953,1.559
		c4.109,0,8.773-0.668,13.59-2.629c11.613-4.727,20.586-15.368,26.672-31.629c8.773-23.442,11.121-44.602,11.348-46.77
		C240.993,44.964,239.075,37.031,233.888,31.023 M120.021,12h72.948c0.004,1.98-0.016,4.437-0.077,7.269H47.146
		c-0.063-2.832-0.083-5.289-0.079-7.269H120.021z M42.837,121.824c-8.313-3.453-14.977-11.75-19.809-24.66
		C14.536,74.48,12.392,53.488,12.372,53.281c-0.012-0.102-0.023-0.199-0.035-0.297c-0.918-6.18,0.031-10.797,2.902-14.125
		c3.559-4.121,10.524-6.625,20.309-7.359c0.789,14.402,2.711,33.257,7.207,52.41c3.539,15.054,8.199,28.183,13.922,39.32
		C53.083,123.839,48.04,123.988,42.837,121.824 M188.321,272.66H51.72v-46.246h136.601V272.66z M153.192,214.414H86.849
		c9.652-7.953,20.597-22.34,22.906-47.336c6.801,1.668,12.523,1.804,20.531,0C132.595,192.07,143.54,206.457,153.192,214.414
		 M105.321,153.562C60.028,138.906,49.806,69.308,47.626,31.269h144.789c-2.18,38.027-12.469,107.36-57.644,122.274
		C125.817,156.5,115.282,156.785,105.321,153.562 M227.704,52.984c-0.012,0.098-0.023,0.195-0.035,0.293
		c-0.02,0.211-2.137,21.121-10.656,43.887c-4.832,12.91-11.495,21.207-19.809,24.66c-5.207,2.16-10.25,2.015-13.84,1.402
		c5.723-11.133,10.383-24.262,13.918-39.32c4.5-19.149,6.422-38.008,7.211-52.406c9.785,0.73,16.75,3.234,20.309,7.359
		C227.673,42.187,228.622,46.804,227.704,52.984"/>
</g>
<g>
	<defs>
		<rect id="SVGID_3_" width="240.961" height="285"/>
	</defs>
	<clipPath id="SVGID_4_">
		<use xlink:href="#SVGID_3_"  overflow="visible"/>
	</clipPath>
	<path clip-path="url(#SVGID_4_)" fill="#A0B965" d="M157.411,234.32H82.626c-3.313,0-6,2.684-6,6v18.437c0,3.313,2.687,6,6,6
		h74.785c3.316,0,6-2.687,6-6V240.32C163.411,237.004,160.728,234.32,157.411,234.32 M151.411,252.757H88.626v-6.437h62.785V252.757
		z"/>
</g>
</svg>
