<?xml version="1.0" encoding="utf-8"?>
<!-- Generator: Adobe Illustrator 15.0.2, SVG Export Plug-In . SVG Version: 6.00 Build 0)  -->
<!DOCTYPE svg PUBLIC "-//W3C//DTD SVG 1.1//EN" "http://www.w3.org/Graphics/SVG/1.1/DTD/svg11.dtd">
<svg version="1.1" id="Layer_1" xmlns="http://www.w3.org/2000/svg" xmlns:xlink="http://www.w3.org/1999/xlink" x="0px" y="0px"
	 width="363.492px" height="104.871px" viewBox="0 0 363.492 104.871" enable-background="new 0 0 363.492 104.871"
	 xml:space="preserve">
<g>
	<path fill-rule="evenodd" clip-rule="evenodd" d="M127.127,104.872h-22.058V0h48.323c20.484,0,32.564,12.522,32.564,33.394
		c0,9.388-5.251,33.391-33.618,33.391h-25.211V104.872L127.127,104.872z M147.611,48.521c16.284,0,16.284-11.478,16.284-16.174
		c0-10.434-5.776-14.609-19.435-14.609h-17.333v30.783H147.611L147.611,48.521z"/>
	<path fill-rule="evenodd" clip-rule="evenodd" d="M203.292,104.872h-23.113L217.996,0h25.214l37.294,104.872h-24.161l-6.83-21.916
		h-38.87L203.292,104.872L203.292,104.872z M216.422,64.694h27.311l-13.127-41.216h-0.528L216.422,64.694L216.422,64.694z"/>
	<polygon fill-rule="evenodd" clip-rule="evenodd" points="327.773,104.872 305.715,104.872 305.715,65.218 269.47,0 295.212,0 
		317.271,45.392 338.281,0 363.492,0 327.773,65.218 327.773,104.872 	"/>
	<path fill-rule="evenodd" clip-rule="evenodd" d="M46.902,44.547c6.541,0,11.771-2.413,11.771-8.723
		c0-6.497-4.67-8.353-12.145-8.353H29.711v51.414H50.08c8.035,0,12.705-3.526,12.705-11.508c0-6.867-5.979-9.466-11.959-9.466
		h-7.474V44.547H46.902L46.902,44.547z"/>
	<polygon fill-rule="evenodd" clip-rule="evenodd" points="0,13.735 13.828,13.735 13.828,0 0,0 0,13.735 	"/>
	<path fill-rule="evenodd" clip-rule="evenodd" d="M29.711,0v13.735h20.554c19.248,0,24.293,12.065,24.293,20.231
		c0,11.323-4.299,14.106-7.475,16.149c9.717,3.526,12.146,11.137,12.146,18.932c0,6.311-2.617,12.251-6.729,16.334
		c-4.67,4.27-8.969,7.053-25.039,7.053H13.828V27.471H0v77.4h88.572V0H29.711L29.711,0z"/>
</g>
</svg>
