<?xml version="1.0" encoding="utf-8"?>
<!-- Generator: Adobe Illustrator 15.0.2, SVG Export Plug-In . SVG Version: 6.00 Build 0)  -->
<!DOCTYPE svg PUBLIC "-//W3C//DTD SVG 1.1//EN" "http://www.w3.org/Graphics/SVG/1.1/DTD/svg11.dtd">
<svg version="1.1" id="Layer_1" xmlns="http://www.w3.org/2000/svg" xmlns:xlink="http://www.w3.org/1999/xlink" x="0px" y="0px"
	 width="378.96px" height="348.001px" viewBox="0 0 378.96 348.001" enable-background="new 0 0 378.96 348.001"
	 xml:space="preserve">
<g>
	<defs>
		<rect id="SVGID_1_" y="0.001" width="378.96" height="348"/>
	</defs>
	<clipPath id="SVGID_2_">
		<use xlink:href="#SVGID_1_"  overflow="visible"/>
	</clipPath>
	<path clip-path="url(#SVGID_2_)" fill="#9DB665" d="M378.145,196.45c-13.551-79.828-65.324-153.414-73.828-165.078
		c-0.539-3.508-1.215-7.102-2.078-10.766c-2.293-9.765-11.852-16.234-21.754-14.726c-7.195,1.093-13.996,2.707-20.234,4.562
		c-46.395-13.922-95.309-13.922-141.703,0c-6.238-1.855-13.039-3.469-20.235-4.562c-9.91-1.508-19.46,4.961-21.753,14.726
		c-0.86,3.66-1.539,7.25-2.079,10.754C66,42.993,14.199,116.602,0.645,196.45c-2.547,15,2.543,30.211,13.617,40.688
		C49.23,270.22,123.055,316.055,163.949,340.43c7.848,4.677,16.649,7.017,25.445,7.017c8.801,0,17.602-2.34,25.449-7.017
		c40.895-24.375,114.718-70.207,149.688-103.292C375.602,226.661,380.691,211.45,378.145,196.45 M354.633,226.677
		c-35.227,33.332-114.652,82.003-147.164,101.382c-11.148,6.646-25,6.646-36.149,0c-32.511-19.379-111.933-68.05-147.164-101.382
		c-7.574-7.164-11.054-17.563-9.316-27.816c9.523-56.097,39.762-110.39,57.965-139.165c0.437,13.199,2.402,21.918,2.55,22.559
		c0.774,3.324,3.731,5.57,7.004,5.57c0.539,0,1.082-0.062,1.629-0.187c3.867-0.891,6.285-4.754,5.399-8.629
		c-0.059-0.25-5.723-25.684,1.187-55.114c0.59-2.507,3.039-4.168,5.567-3.781c29.25,4.453,51.984,18.731,52.332,18.949
		c3.347,2.141,7.797,1.16,9.937-2.187c2.145-3.348,1.168-7.801-2.18-9.946c-0.464-0.292-5.707-3.605-14.289-7.605
		c31.356-6.574,63.555-6.574,94.911,0c-8.582,4-13.824,7.313-14.29,7.605c-3.347,2.145-4.319,6.59-2.183,9.938
		c2.141,3.348,6.59,4.332,9.941,2.195c0.227-0.144,23.004-14.484,52.332-18.949c2.531-0.387,4.98,1.277,5.566,3.785
		c6.91,29.426,1.246,54.86,1.191,55.102c-0.898,3.871,1.512,7.742,5.383,8.64c0.551,0.129,1.098,0.188,1.637,0.188
		c3.273,0,6.234-2.246,7.008-5.574c0.148-0.641,2.109-9.356,2.551-22.551c18.203,28.773,48.438,83.062,57.957,139.152
		C365.688,209.114,362.207,219.513,354.633,226.677"/>
</g>
<g>
	<defs>
		<rect id="SVGID_3_" y="0.001" width="378.96" height="348"/>
	</defs>
	<clipPath id="SVGID_4_">
		<use xlink:href="#SVGID_3_"  overflow="visible"/>
	</clipPath>
	<path clip-path="url(#SVGID_4_)" fill="#9DB665" d="M124.188,51.684c3.812,1.121,7.816-1.062,8.937-4.879
		c1.117-3.816-1.066-7.816-4.883-8.937c-7.031-2.063-14.539-0.879-20.597,3.25c-6.071,4.133-9.926,10.703-10.579,18.027
		c-0.355,3.961,2.571,7.457,6.532,7.809c0.218,0.019,0.433,0.031,0.648,0.031c3.688,0,6.828-2.82,7.164-6.562
		c0.266-3.008,1.852-5.707,4.344-7.407C118.234,51.325,121.305,50.841,124.188,51.684"/>
	<path clip-path="url(#SVGID_4_)" fill="#9DB665" d="M271.152,41.118c-6.059-4.129-13.57-5.313-20.602-3.25
		c-3.813,1.121-6,5.121-4.879,8.937c1.117,3.817,5.117,6,8.934,4.879c2.883-0.843,5.956-0.359,8.438,1.332
		c2.492,1.7,4.074,4.399,4.344,7.407c0.332,3.742,3.477,6.562,7.16,6.562c0.215,0,0.434-0.012,0.648-0.031
		c3.961-0.352,6.887-3.848,6.535-7.809C281.078,51.825,277.223,45.255,271.152,41.118"/>
	<path clip-path="url(#SVGID_4_)" fill="#9DB665" d="M189.395,269.403c-13.938,0-26.372-7.849-31.676-19.992l13.195-5.762
		c3.016,6.898,10.266,11.355,18.48,11.355c8.215,0,15.469-4.457,18.48-11.355l13.195,5.762
		C215.766,261.555,203.332,269.403,189.395,269.403"/>
	<path clip-path="url(#SVGID_4_)" fill="#9DB665" d="M129.535,139.891c1.844,0,3.688-0.703,5.094-2.105l8.969-8.973l1.355,1.352
		c2.813,2.812,7.371,2.812,10.184,0c2.812-2.809,2.812-7.367,0-10.18l-2.071-2.07c-5.218-5.219-13.714-5.219-18.933,0l-9.688,9.687
		c-2.812,2.813-2.812,7.371,0,10.18C125.852,139.188,127.695,139.891,129.535,139.891"/>
	<path clip-path="url(#SVGID_4_)" fill="#9DB665" d="M225.73,117.915l-2.07,2.07c-2.813,2.813-2.813,7.371,0,10.184
		c2.813,2.812,7.371,2.812,10.184,0l1.352-1.356l8.973,8.973c1.406,1.402,3.25,2.105,5.094,2.105c1.84,0,3.684-0.703,5.09-2.105
		c2.813-2.813,2.813-7.371,0-10.184l-9.688-9.687C239.445,112.696,230.949,112.696,225.73,117.915"/>
	<path clip-path="url(#SVGID_4_)" fill="#9DB665" d="M245.762,159.348l-13.922-16.011c-4.137-4.758-8.996-8.719-14.34-11.797
		c-6.543-3.77-10.516-11.004-9.578-18.496c0.047-0.36,0.102-0.719,0.164-1.078c1.215-6.7,5.703-12.223,12.016-14.778l12.578-5.09
		c3.559-1.437,5.574-5.375,4.371-9.015c-1.32-3.992-5.707-5.977-9.539-4.426l-12.813,5.184
		c-10.918,4.418-18.688,13.972-20.781,25.562c-0.91,5.039-0.68,10.09,0.582,14.848c-1.691-0.156-3.391-0.25-5.102-0.25
		c-1.71,0-3.411,0.094-5.098,0.25c1.261-4.758,1.488-9.809,0.578-14.848c-2.094-11.59-9.863-21.148-20.781-25.562l-12.813-5.184
		c-3.832-1.551-8.219,0.438-9.539,4.426c-1.203,3.64,0.816,7.578,4.371,9.015l12.582,5.09c6.309,2.555,10.801,8.078,12.012,14.778
		c0.066,0.359,0.121,0.718,0.164,1.078c0.941,7.492-3.035,14.726-9.578,18.496c-5.344,3.078-10.199,7.039-14.34,11.797
		l-13.918,16.011c-19.754,22.71-20.769,56.512-2.418,80.372c7.121,9.253,17.945,14.375,29.137,14.375
		c4.101,0,8.25-0.688,12.285-2.109c7.105-2.509,13.078-7.063,17.355-12.863c4.277,5.801,10.254,10.354,17.355,12.863
		c15.051,5.309,31.691,0.379,41.422-12.266C266.527,215.86,265.512,182.059,245.762,159.348 M189.398,197.575
		c-8.368,0-15.171-6.078-15.171-13.556c0-8.823,10.609-9.776,15.171-9.776c4.559,0,15.172,0.953,15.172,9.776
		C204.57,191.497,197.762,197.575,189.398,197.575 M236.762,230.938c-5.922,7.7-16.055,10.7-25.215,7.47
		c-8.941-3.156-14.949-11.648-14.949-21.129v-6.145c12.836-3.047,22.371-14.047,22.371-27.114c0-14.46-11.883-24.179-29.57-24.179
		s-29.574,9.718-29.574,24.179c0,13.067,9.535,24.067,22.375,27.114v6.145c0,9.48-6.008,17.973-14.949,21.129
		c-9.164,3.23-19.297,0.23-25.219-7.47c-14.187-18.444-13.402-44.581,1.867-62.14l13.922-16.012
		c7.95-9.141,19.461-14.387,31.579-14.387c12.113,0,23.621,5.246,31.574,14.387l13.922,16.012
		C250.164,186.356,250.949,212.493,236.762,230.938"/>
</g>
</svg>
