<?xml version="1.0" encoding="utf-8"?>
<!-- Generator: Adobe Illustrator 15.0.2, SVG Export Plug-In . SVG Version: 6.00 Build 0)  -->
<!DOCTYPE svg PUBLIC "-//W3C//DTD SVG 1.1//EN" "http://www.w3.org/Graphics/SVG/1.1/DTD/svg11.dtd">
<svg version="1.1" id="Layer_1" xmlns="http://www.w3.org/2000/svg" xmlns:xlink="http://www.w3.org/1999/xlink" x="0px" y="0px"
	 width="401.664px" height="281.199px" viewBox="0 0 401.664 281.199" enable-background="new 0 0 401.664 281.199"
	 xml:space="preserve">
<g>
	<defs>
		<rect id="SVGID_1_" width="401.664" height="281.199"/>
	</defs>
	<clipPath id="SVGID_2_">
		<use xlink:href="#SVGID_1_"  overflow="visible"/>
	</clipPath>
	<path clip-path="url(#SVGID_2_)" fill="#A1BA65" d="M324.512,160.172c-13.738,0-27.402,5.789-37.496,15.887
		c-9.648,9.648-15.273,22.204-15.84,35.355c-0.57,13.371,4.129,25.754,13.238,34.863c4.285,4.285,8.828,6.457,13.508,6.457
		c10.785,0,17.5-10.762,23.992-21.168c2.852-4.578,5.805-9.309,8.555-12.059c2.41-2.41,6.914-5.211,11.273-7.922
		c10.129-6.297,20.602-12.813,21.77-22.953c0.609-5.297-1.5-10.402-6.273-15.176C348.672,164.891,337.047,160.172,324.512,160.172
		 M334.559,200.039c-5.242,3.258-10.191,6.336-13.711,9.852c-3.844,3.848-7.215,9.25-10.477,14.477
		c-3.441,5.523-9.211,14.766-12.449,14.766c-0.887,0-2.344-0.926-3.891-2.473c-6.383-6.383-9.676-15.145-9.266-24.664
		c0.418-9.742,4.633-19.09,11.867-26.324c7.563-7.563,17.723-11.898,27.879-11.898c8.902,0,17.113,3.301,23.109,9.301
		c1.617,1.621,2.488,3.078,2.379,4.004C349.586,190.695,340.543,196.316,334.559,200.039"/>
	<path clip-path="url(#SVGID_2_)" fill="#A1BA65" d="M254.41,183.293c-5.34-5.34-12.316-8.398-19.141-8.398
		c-5.441,0-10.414,1.977-14.008,5.57c-4.211,4.211-6.18,10.336-5.402,16.801c0.715,5.949,3.637,11.754,8.23,16.348
		c5.336,5.34,12.313,8.399,19.141,8.399c5.441,0,10.414-1.978,14.008-5.571c4.211-4.211,6.18-10.336,5.402-16.801
		C261.926,193.691,259.004,187.888,254.41,183.293 M247.621,206.824c-1.313,1.313-3.113,1.59-4.391,1.59
		c-3.199,0-6.762-1.651-9.527-4.418c-2.41-2.414-3.996-5.457-4.344-8.355c-0.16-1.348-0.18-3.863,1.52-5.559
		c1.313-1.316,3.109-1.59,4.387-1.59c3.199,0,6.762,1.652,9.527,4.418c2.414,2.414,3.996,5.457,4.344,8.355
		C249.301,202.609,249.32,205.129,247.621,206.824"/>
	<path clip-path="url(#SVGID_2_)" fill="#A1BA65" d="M286.941,151.602c-0.715-5.949-3.637-11.757-8.23-16.347
		c-5.336-5.34-12.313-8.403-19.141-8.403c-5.438,0-10.414,1.981-14.009,5.575c-4.21,4.211-6.179,10.332-5.401,16.8
		c0.715,5.949,3.641,11.754,8.23,16.348c5.34,5.336,12.316,8.398,19.145,8.398c5.438,0,10.41-1.98,14.004-5.57
		C285.75,164.191,287.719,158.066,286.941,151.602 M271.922,158.785c-1.313,1.313-3.11,1.59-4.387,1.59
		c-3.199,0-6.762-1.652-9.527-4.418c-2.414-2.414-3.996-5.457-4.344-8.355c-0.164-1.348-0.184-3.863,1.516-5.558
		c1.313-1.313,3.113-1.59,4.391-1.59c3.199,0,6.758,1.652,9.523,4.418c2.414,2.41,3.996,5.457,4.348,8.355
		C273.602,154.57,273.621,157.09,271.922,158.785"/>
	<path clip-path="url(#SVGID_2_)" fill="#A1BA65" d="M296.43,141.273c5.34,5.336,12.316,8.398,19.145,8.398
		c5.438,0,10.414-1.98,14.004-5.57c4.211-4.211,6.184-10.336,5.402-16.8c-0.711-5.954-3.637-11.758-8.227-16.352
		c-5.34-5.34-12.316-8.398-19.145-8.398c-5.438,0-10.414,1.98-14.008,5.57c-4.211,4.211-6.18,10.336-5.402,16.801
		C288.914,130.871,291.836,136.679,296.43,141.273 M303.219,117.738c1.313-1.312,3.113-1.586,4.391-1.586
		c3.199,0,6.758,1.649,9.523,4.414c2.414,2.414,3.996,5.457,4.348,8.356c0.16,1.347,0.18,3.863-1.52,5.562
		c-1.313,1.313-3.113,1.586-4.391,1.586c-3.199,0-6.759-1.648-9.523-4.414c-2.414-2.414-3.996-5.457-4.344-8.355
		C301.539,121.953,301.523,119.437,303.219,117.738"/>
	<path clip-path="url(#SVGID_2_)" fill="#A1BA65" d="M385.262,0H16.398C7.355,0,0,7.355,0,16.398v248.402
		c0,9.043,7.355,16.398,16.398,16.398h368.864c9.043,0,16.402-7.355,16.402-16.398V16.398C401.664,7.359,394.305,0,385.262,0
		 M388.062,16.398v52.395l-55.19-55.192h52.391C386.805,13.601,388.062,14.855,388.062,16.398 M16.398,13.601h51.676L13.602,68.074
		V16.398C13.602,14.855,14.855,13.601,16.398,13.601 M13.602,264.801v-50.863l53.66,53.66H16.398
		C14.855,267.602,13.602,266.344,13.602,264.801 M385.262,267.602H86.496l-72.894-72.898V87.308l73.707-73.707h226.328l74.02,74.016
		c0.129,0.133,0.27,0.25,0.405,0.371v176.813C388.062,266.344,386.805,267.602,385.262,267.602"/>
	<path clip-path="url(#SVGID_2_)" fill="#A1BA65" d="M130.43,84.367h140.8c3.758,0,6.801-3.047,6.801-6.801
		c0-3.758-3.043-6.801-6.801-6.801h-140.8c-3.754,0-6.797,3.043-6.797,6.801C123.633,81.32,126.676,84.367,130.43,84.367"/>
	<path clip-path="url(#SVGID_2_)" fill="#A1BA65" d="M188.832,141.164H48.031c-3.754,0-6.801,3.047-6.801,6.801
		c0,3.758,3.047,6.801,6.801,6.801h140.801c3.754,0,6.801-3.043,6.801-6.801C195.633,144.211,192.586,141.164,188.832,141.164"/>
</g>
</svg>
