<?xml version="1.0" encoding="utf-8"?>
<!-- Generator: Adobe Illustrator 15.0.2, SVG Export Plug-In . SVG Version: 6.00 Build 0)  -->
<!DOCTYPE svg PUBLIC "-//W3C//DTD SVG 1.1//EN" "http://www.w3.org/Graphics/SVG/1.1/DTD/svg11.dtd">
<svg version="1.1" id="Layer_1" xmlns="http://www.w3.org/2000/svg" xmlns:xlink="http://www.w3.org/1999/xlink" x="0px" y="0px"
	 width="111.227px" height="45.608px" viewBox="0 0 111.227 45.608" enable-background="new 0 0 111.227 45.608"
	 xml:space="preserve">
<g>
	<polygon fill="#F7901E" points="3.313,16.157 16.633,15.808 16.639,15.772 3.91,12.425 3.313,16.157 3.313,16.157 	"/>
	<path fill="#F7901E" d="M19.287,0.699H5.781L3.975,12.015l13.26,0.023h0.822c4.841,0,7.449,2.162,6.637,7.255
		c-0.759,4.758-4.47,6.775-8.875,6.775h-0.823l1.049-6.572L3.276,16.393L0,36.927h16.797c10.698,0,19.435-6.823,21.152-17.587
		C40.074,6.032,31.533,0.699,19.287,0.699L19.287,0.699L19.287,0.699z"/>
	<path fill="#F7901E" d="M35.561,34.403c0.938,0,1.7,0.727,1.7,1.703c0,0.968-0.762,1.701-1.7,1.701s-1.698-0.733-1.698-1.701
		C33.863,35.13,34.623,34.403,35.561,34.403L35.561,34.403z M35.561,38.278c1.214,0,2.174-0.964,2.174-2.172
		c0-1.21-0.96-2.174-2.174-2.174c-1.212,0-2.172,0.964-2.172,2.174C33.388,37.314,34.349,38.278,35.561,38.278L35.561,38.278z
		 M36.019,36.326c0.403-0.031,0.618-0.252,0.618-0.669c0-0.597-0.359-0.689-0.883-0.689h-1.103v2.254h0.475v-0.896h0.397l0.53,0.896
		h0.518L36.019,36.326L36.019,36.326z M35.125,35.918v-0.545h0.524c0.22,0,0.523,0,0.523,0.246s-0.154,0.299-0.407,0.299H35.125
		L35.125,35.918L35.125,35.918z"/>
	<path fill="#F7901E" d="M45.146,0h3.556c5.265,0,9.202,2.76,8.295,8.438c-0.928,5.814-5.661,8.621-11.086,8.621h-3.487L45.146,0
		L45.146,0L45.146,0z M44.877,15.112h0.751c4.376,0,8.42-1.629,9.211-6.582c0.795-4.979-2.733-6.584-7.109-6.584h-0.752
		L44.877,15.112L44.877,15.112L44.877,15.112z"/>
	<path fill="#F7901E" d="M60.043,17.06h-2.051l1.689-10.589h2.051L60.043,17.06L60.043,17.06L60.043,17.06z M62.893,1.629
		c-0.123,0.769-0.858,1.38-1.633,1.38c-0.775,0-1.316-0.611-1.193-1.38c0.127-0.792,0.865-1.425,1.641-1.425
		S63.02,0.836,62.893,1.629L62.893,1.629L62.893,1.629z"/>
	<path fill="#F7901E" d="M66.018,8.19h0.067c0.7-1.245,1.876-2.037,3.243-2.037c0.593,0,1.152,0.204,1.604,0.52l-1.23,1.857
		c-0.314-0.318-0.707-0.432-1.186-0.432c-2.211,0-2.809,2.037-3.084,3.756l-0.83,5.205h-2.051L64.24,6.471h2.051L66.018,8.19
		L66.018,8.19L66.018,8.19z"/>
	<path fill="#F7901E" d="M71.523,12.104c-0.266,1.811,0.695,3.506,2.654,3.506c1.573,0,2.543-0.793,3.52-2.059l1.578,0.973
		c-1.296,1.832-3.334,2.896-5.408,2.896c-3.26,0-4.854-2.443-4.355-5.566c0.521-3.258,2.665-5.701,6.107-5.701
		c3.396,0,4.595,2.49,4.092,5.635l-0.049,0.316H71.523L71.523,12.104L71.523,12.104z M77.855,10.565
		c0.002-1.584-0.877-2.646-2.518-2.646c-1.596,0-2.962,1.131-3.455,2.646H77.855L77.855,10.565L77.855,10.565z"/>
	<path fill="#F7901E" d="M89.676,9.479c-0.672-0.928-1.596-1.426-2.826-1.426c-2.006,0-3.838,1.766-4.148,3.711
		c-0.347,2.172,0.928,3.756,3.094,3.756c1.185,0,2.229-0.543,3.141-1.402l-0.414,2.602c-1.014,0.498-1.982,0.701-3.053,0.701
		c-3.146,0-5.339-2.398-4.834-5.566c0.523-3.279,3.463-5.701,6.746-5.701c0.957,0,1.969,0.227,2.715,0.702L89.676,9.479
		L89.676,9.479L89.676,9.479z"/>
	<polygon fill="#F7901E" points="93.025,17.06 90.975,17.06 92.359,8.372 91.244,8.372 91.547,6.471 92.664,6.471 93.309,2.421 
		95.361,2.421 94.715,6.471 96.721,6.471 96.418,8.372 94.412,8.372 93.025,17.06 93.025,17.06 	"/>
	<path fill="#F7901E" d="M42.147,22.486h3.557c5.266,0,9.201,2.76,8.294,8.438c-0.927,5.814-5.66,8.621-11.085,8.621h-3.486
		L42.147,22.486L42.147,22.486L42.147,22.486z M41.879,37.599h0.752c4.375,0,8.42-1.629,9.209-6.582
		c0.795-4.979-2.732-6.584-7.109-6.584h-0.752L41.879,37.599L41.879,37.599L41.879,37.599z"/>
	<path fill="#F7901E" d="M57.014,34.591c-0.266,1.811,0.695,3.506,2.654,3.506c1.574,0,2.543-0.793,3.52-2.059l1.578,0.973
		c-1.295,1.832-3.334,2.896-5.408,2.896c-3.26,0-4.854-2.443-4.355-5.566c0.52-3.258,2.666-5.701,6.107-5.701
		c3.396,0,4.594,2.49,4.092,5.635l-0.049,0.316H57.014L57.014,34.591L57.014,34.591z M63.346,33.052
		c0.002-1.584-0.877-2.646-2.518-2.646c-1.596,0-2.961,1.131-3.455,2.646H63.346L63.346,33.052L63.346,33.052z"/>
	<path fill="#F7901E" d="M69.416,30.722h0.045c1.045-1.267,2.453-2.082,4.047-2.082c3.078,0,4.594,2.646,4.131,5.543
		c-0.484,3.031-2.736,5.725-6.02,5.725c-1.504,0-2.672-0.814-3.303-2.014h-0.045l-1.23,7.715h-2.053l2.658-16.651h2.051
		L69.416,30.722L69.416,30.722L69.416,30.722z M75.576,34.251c0.328-2.059-0.646-3.801-2.857-3.801c-2.121,0-3.666,1.832-3.98,3.801
		c-0.318,1.99,0.596,3.846,2.76,3.846C73.732,38.097,75.244,36.333,75.576,34.251L75.576,34.251L75.576,34.251z"/>
	<path fill="#F7901E" d="M90.07,34.274c-0.51,3.189-3.406,5.633-6.598,5.633s-5.309-2.443-4.799-5.633
		c0.508-3.191,3.404-5.635,6.596-5.635S90.578,31.083,90.07,34.274L90.07,34.274L90.07,34.274z M80.725,34.274
		c-0.318,1.99,1.029,3.686,3.059,3.686s3.918-1.695,4.234-3.686c0.322-2.016-1.029-3.689-3.059-3.689
		C82.932,30.585,81.045,32.259,80.725,34.274L80.725,34.274L80.725,34.274z"/>
	<path fill="#F7901E" d="M96.686,31.378c-0.168-0.52-0.627-0.928-1.219-0.928c-0.57,0-1.189,0.453-1.283,1.039
		c-0.148,0.93,1.018,1.336,2.18,1.902c1.164,0.564,2.25,1.334,1.982,3.01c-0.32,2.012-2.246,3.506-4.229,3.506
		c-1.551,0-2.982-0.883-3.314-2.377l1.881-0.791c0.309,0.791,0.742,1.357,1.723,1.357c0.865,0,1.711-0.588,1.855-1.492
		c0.09-0.566-0.139-0.838-0.566-1.154l-1.838-1.064c-1.084-0.633-1.855-1.221-1.625-2.67c0.273-1.719,1.904-3.076,3.637-3.076
		c1.299,0,2.234,0.701,2.621,1.855L96.686,31.378L96.686,31.378L96.686,31.378z"/>
	<path fill="#F7901E" d="M102.357,39.546h-2.053l1.691-10.589h2.051L102.357,39.546L102.357,39.546L102.357,39.546z M105.207,24.115
		c-0.123,0.769-0.859,1.38-1.633,1.38c-0.775,0-1.316-0.611-1.193-1.38c0.125-0.792,0.865-1.425,1.641-1.425
		C104.795,22.69,105.334,23.323,105.207,24.115L105.207,24.115L105.207,24.115z"/>
	<polygon fill="#F7901E" points="107.531,39.546 105.48,39.546 106.865,30.858 105.748,30.858 106.053,28.957 107.17,28.957 
		107.814,24.907 109.865,24.907 109.221,28.957 111.227,28.957 110.924,30.858 108.918,30.858 107.531,39.546 107.531,39.546 	"/>
</g>
</svg>
