<?xml version="1.0" encoding="utf-8"?>
<!-- Generator: Adobe Illustrator 15.0.2, SVG Export Plug-In . SVG Version: 6.00 Build 0)  -->
<!DOCTYPE svg PUBLIC "-//W3C//DTD SVG 1.1//EN" "http://www.w3.org/Graphics/SVG/1.1/DTD/svg11.dtd">
<svg version="1.1" id="Layer_1" xmlns="http://www.w3.org/2000/svg" xmlns:xlink="http://www.w3.org/1999/xlink" x="0px" y="0px"
	 width="88.395px" height="72.277px" viewBox="0 0 88.395 72.277" enable-background="new 0 0 88.395 72.277" xml:space="preserve">
<g>
	<defs>
		<rect id="SVGID_1_" width="88.395" height="72.277"/>
	</defs>
	<clipPath id="SVGID_2_">
		<use xlink:href="#SVGID_1_"  overflow="visible"/>
	</clipPath>
	<path clip-path="url(#SVGID_2_)" fill-rule="evenodd" clip-rule="evenodd" fill="#748C3F" d="M13.142,35.042
		c0,0,2.973-2.66,1.408-5.163c-1.564-2.66-1.408-6.884,2.19-3.442c2.973,3.129,8.136,1.565,8.136,1.565
		c2.659-0.47,21.121-1.252,24.562-1.252c3.6-0.156,9.544-1.877,11.108-7.509c1.721-5.946,3.912-7.667,3.912-7.667
		c0.156-4.067,2.189-6.258,2.815-7.509c1.251-2.66,1.251-3.442,1.251-3.442s0.783-2.034,1.722,1.252
		c0.938,3.285,0.938,5.162,0.938,5.162s0.939,0.47,1.878-0.469c1.096-1.252,2.503-4.537,2.503-5.163
		c0-1.564,1.096,0.782,1.096,2.347c0.155,2.503,0.781,4.068,0.781,4.068l0.47,0.625l0.938,0.939c0,0,0.939,0.626,1.408,0.782
		c0.47,0.157,1.252,0.157,1.252,0.157l1.564,0.313l0.938,1.095l0.157,0.782l0.625,0.782c0,0,0.157,0.626-0.313,0.783l-0.469,0.156
		l-0.938-0.469l-0.938-0.626l-0.626,0.469v1.095l1.877,1.252l3.755,2.347l1.096,0.782v0.939c0,0,0.156,0,0.156,0.782v0.782v1.252
		l-0.313,1.095l-1.096,1.877l-0.47,1.096l-0.469,0.625l-0.939,1.096l-0.626,0.625l-0.625,0.157l-0.626,0.469l-0.156,0.782
		l-0.156,0.626l-1.095,0.626h-0.626l-0.626-0.156l-0.939-0.939l-0.469-0.626l-0.47-1.095l-0.47-0.626l-1.095,0.626l-0.938,0.939
		l-0.626,0.156L73.532,31.6c-0.157,0.782-0.313,1.565-0.313,1.565v1.251l-0.156,2.347v1.095l-0.156,0.938l-0.47,5.319l-0.313,0.938
		l-0.471,0.939l-0.625,1.095l-1.721,1.251l-1.095,1.565l-0.313,1.877c0,0-0.156,1.564-0.156,2.034c0,0.469-0.313,2.973-0.313,2.973
		l-0.938,2.346l-0.783,2.034l-0.156,0.939v1.095l-0.157,2.973v0.938l1.252,0.626l0.626,0.626v0.626l0.313,1.251l-0.626,1.096
		l-1.565,0.47l-1.095,0.313l-1.564,0.156h-2.815h-1.565h-1.563h-2.504l-1.096-0.156l-0.938-0.47l-0.626-0.313l-0.47-0.626
		l-0.625-1.095l-0.313-1.409c0-0.938-0.157-1.408-0.157-1.877v-1.408c0,0-0.155,0-0.155-0.626s-0.313-2.503-0.313-2.503v-0.626
		l-0.313-1.877l-0.156-0.938l-0.313-1.564c-0.313-0.783-0.626-1.721-0.626-1.721l-0.469-2.191l-1.721-0.625L44.9,51.939
		l-0.781-0.313l-0.782-0.313L42.242,51l-0.626-0.313l-0.939-0.313l-0.782-0.313c0,0-5.945-0.47-7.823,1.564l-0.782,0.626v0.782
		c-0.469,1.095,0.157,0.626-0.469,1.095l-0.626,0.469l-1.252,0.627l-0.625,0.156l-1.721,1.564l-1.565,1.564l-1.251,0.156
		l-0.783,0.626l-1.251,0.782l-0.782,0.469l-0.47,1.096v1.564l0.47,0.626l0.312,0.626l0.47,0.625l0.782,1.252l0.626,0.626
		l0.156,1.251l0.626,1.252c0,0,0.469,0,0.469,0.626s-0.469,1.252-0.469,1.252l-1.564,0.625h-1.096h-1.251h-1.721l-0.626-0.313
		c-0.626-0.313-1.252-0.625-1.252-0.625l-0.782-1.097c0,0-0.156-0.469-0.626-0.938c-0.469-0.47-0.938-1.252-0.938-1.252
		s-0.626-1.095-0.626-1.564s-0.313-1.096-0.313-1.096l-0.626-0.156l-0.782,0.47l-1.095,0.938l-1.721,1.721l-0.939,1.565
		l-0.626,0.625l-0.938,0.939L4.85,71.495l-1.564,0.156c0,0-0.783,0.313-1.252,0c-0.469-0.313,0.313,0.783-0.469-0.313
		c-0.783-1.096-1.096-3.13-1.096-3.13C0,67.271,0,68.834,0,67.271v-3.755l0.313-0.626c0,0,0.156-0.156,0.782-1.564
		s1.252-2.504,1.252-2.504l0.626-1.251c0,0,1.251-1.565,1.564-2.347c0.313-0.782,2.191-3.756,2.191-3.756s0.938-0.938,1.408-1.407
		c0.469-0.47,0.938-1.877,0.938-1.877l0.157-1.722v-1.721c0-0.469-0.157-0.626,0-1.252c0.156-0.625,0.156-1.721,0.156-1.721
		s-0.313,0,0-0.625L9.7,40.518l0.626-1.096l0.313-1.407l0.469-1.252l0.626-0.626L13.142,35.042z"/>
</g>
</svg>
