<?xml version="1.0" encoding="utf-8"?>
<!-- Generator: Adobe Illustrator 15.0.2, SVG Export Plug-In . SVG Version: 6.00 Build 0)  -->
<!DOCTYPE svg PUBLIC "-//W3C//DTD SVG 1.1//EN" "http://www.w3.org/Graphics/SVG/1.1/DTD/svg11.dtd">
<svg version="1.1" id="Layer_1" xmlns="http://www.w3.org/2000/svg" xmlns:xlink="http://www.w3.org/1999/xlink" x="0px" y="0px"
	 width="90.604px" height="68.496px" viewBox="0 0 90.604 68.496" enable-background="new 0 0 90.604 68.496" xml:space="preserve">
<g>
	<defs>
		<rect id="SVGID_1_" y="0" width="90.604" height="68.496"/>
	</defs>
	<clipPath id="SVGID_2_">
		<use xlink:href="#SVGID_1_"  overflow="visible"/>
	</clipPath>
	<path clip-path="url(#SVGID_2_)" fill-rule="evenodd" clip-rule="evenodd" fill="#748C3E" d="M7.822,18.588L6.102,17.18
		l0.626-1.252l1.251-1.095l0.157-1.564l0.469-1.408l0.47-1.252c0,0,0.156-0.782,0.782-1.252c0.626-0.469,1.877-1.408,1.877-1.408
		l1.252-0.938c0,0,0.156-0.626,1.095-1.095c0.939-0.47,1.565-0.47,2.034-1.252c0.469-0.782,0.313-0.939,0.939-0.939h1.564
		l1.252,0.939l1.564,0.156c0,0,0.782-0.313,1.252-0.625c0.469-0.313-0.47-0.313,1.095-0.47c1.564-0.156,2.19-0.156,2.19-0.156h2.816
		c0,0,0,0.156,0.783,0.313c0.782,0.156,1.721,0.469,1.721,0.469l1.095,0.626l2.503,0.782c0,0,0.626,0.469,1.252,0.939
		c0.625,0.469,1.095,0.626,1.095,0.626l2.034,1.251c0,0,0.469,0.157,0.625,0.626c0.157,0.469,0.313,0.469,0.47,1.095
		c0.156,0.626-0.313-0.469,0.156,0.626l0.469,1.095c0,0,0.47,0.782,1.096,1.095c0.625,0.313,1.408,1.095,1.408,1.095l0.626,0.47
		l2.19,0.469c0,0,5.788,1.408,9.7-3.755c4.537-5.163,14.706-8.292,20.338-8.448c6.571-2.816,6.102-4.224,5.633-1.408
		c-0.47,3.911,0.625,4.85,1.877,5.476c2.66,1.408,2.66,3.285,2.503,3.911c-0.156,1.877,0.626,2.972,2.034,3.285
		c2.034,0.313,3.285,2.817,0.939,5.163c-1.565,2.191-0.471,3.129-0.471,3.129l-0.469,0.939l-1.721,1.408c0,0-2.66,1.408-2.66,4.068
		c-0.131,1.91-0.208,2.489-0.252,2.519C83.7,31.475,83.7,30.478,83.7,30.478l0.157,2.034l-0.313,0.939l-0.156,0.782l-0.313,0.782
		L81.98,36.11l-1.409,1.096l-1.877,1.408c0,0,0.157,0.156-0.782,0.625c-0.938,0.47-1.721,1.252-1.721,1.252s-0.47,0.157-0.626,0.626
		s-0.313,1.251-0.313,1.251v0.626l-0.626,1.096c0,0-0.156,0.47-0.782,0.782c-0.626,0.313,0.157-0.313-0.626,0.313
		c-0.782,0.625-0.156-0.47-0.782,0.625l-0.626,1.096c0,0-0.626,0.625-1.095,1.408c-0.47,0.782,0.313-0.157-0.47,0.782
		c-0.782,0.938-0.938,0.938-1.407,1.407l-0.471,0.47c0,0-0.155,0.313-0.781,0.626c-0.626,0.313,1.407-0.469-0.626,0.313
		l-2.034,0.782l-1.408,1.095l-1.095,1.565v0.782c0,0.469,0,0.626-0.156,1.252c-0.157,0.626,0-0.783-0.157,0.626
		c-0.156,1.408-0.156,0.312-0.156,1.408c0,1.095,2.348,3.129,2.348,3.129l0.625,1.095l0.47,0.782v0.938v0.782l0.313,0.939
		l-0.626,1.095l-0.782,0.313h-0.783l-1.564-0.156l-2.033-0.156h-0.782h-1.095h-1.722l-1.721,0.156c0,0-0.626,0-1.565-0.47
		l-0.938-0.469l-1.251-0.939c0,0,0-0.47-0.469-0.626c-0.471-0.155-0.939-0.155-1.097-0.626c-0.155-0.469-0.625-1.251-0.625-1.251
		s0-0.626-0.626-1.096c-0.626-0.469-1.252-0.782-1.252-0.782c-0.782-0.626-1.095-0.781-1.095-1.407s-0.156-0.782,0.156-1.722
		c0.313-0.938,0.313-1.721,0.313-1.721l0.157-1.877l-0.313-1.095c0,0-0.626-0.157-1.251-0.157h-1.408l-1.251,0.157
		c0,0,0.156-0.157-0.939-0.157s-1.565-0.156-2.347-0.313c-0.782-0.155-2.19-0.469-2.19-0.469l-2.034-0.313l-1.564-0.313
		c0,0-1.252-0.469-1.878-0.469s-1.721-0.157-2.19-0.626c-0.47-0.469-0.47-0.469-1.408-0.782c-0.939-0.313-1.721-0.626-1.721-0.626
		l-0.313,0.939c0,0-0.313-0.157-0.626,0.313c-0.313,0.469-0.313,0.938-0.782,1.408c-0.47,0.469-0.939,1.408-1.408,2.034
		c-0.47,0.625-1.565,1.72-1.721,2.346c-0.157,0.626-0.626,0.938-0.782,1.408c-0.157,0.47,0.156-1.251-0.157,1.252
		s-0.313,2.503-0.313,3.129s-0.156,0.782,0,1.252c0.157,0.469,0.782,1.408,0.782,1.408l0.783,0.469l0.156,1.564l-0.939,0.47h-1.095
		l-1.095,0.156h-0.782h-1.408H15.02l-0.626-0.47l-0.626-0.469c0,0-0.469-0.626-0.782-1.096s-0.939-0.625-0.939-1.096v-0.469
		c0,0-0.313-1.408-0.782-1.721l-0.469-0.313l-0.783-1.095c0,0-0.156-0.313-0.626-1.252l-0.469-0.938l0.157-0.939
		c0.469-1.095,0.782-1.565,0.782-2.19v-0.626l0.313-1.407l0.313-1.408l0.156-0.783l-0.469-1.877l-0.626-0.313l-1.095-0.155
		c0,0-0.313-0.157-0.782-0.313c-0.47-0.157-1.252-0.626-1.252-0.626V48c0,0,0.156-0.313-0.469-0.626
		c-0.626-0.313-2.034-0.938-2.034-0.938s0.626-0.156-0.313-0.626c-0.939-0.469-1.565-0.938-1.565-0.938s-0.469-0.313-0.469-0.782
		s0-0.625-0.313-1.096c-0.313-0.469-0.626-1.251-0.626-1.877s0-0.938-0.156-1.408c-0.157-0.47-0.313-1.252-0.313-1.252
		s0.156-0.155,0-0.938L0,36.736v-1.251l0.157-3.129l0.626-1.721l1.095-1.095l0.782-0.939c0,0,0.313-0.626,0.313-1.408v-1.721
		l0.626-1.408c0,0,0.782-0.939,0.782-1.408c0-0.47,0.313-1.408,0.313-1.408l0.469-1.095l0.939-0.626L7.822,18.588z"/>
</g>
</svg>
