<?xml version="1.0" encoding="utf-8"?>
<!-- Generator: Adobe Illustrator 15.0.2, SVG Export Plug-In . SVG Version: 6.00 Build 0)  -->
<!DOCTYPE svg PUBLIC "-//W3C//DTD SVG 1.1//EN" "http://www.w3.org/Graphics/SVG/1.1/DTD/svg11.dtd">
<svg version="1.1" id="Layer_1" xmlns="http://www.w3.org/2000/svg" xmlns:xlink="http://www.w3.org/1999/xlink" x="0px" y="0px"
	 width="60.546px" height="58.057px" viewBox="0 0 60.546 58.057" enable-background="new 0 0 60.546 58.057" xml:space="preserve">
<g>
	<defs>
		<rect id="SVGID_1_" width="60.546" height="58.057"/>
	</defs>
	<clipPath id="SVGID_2_">
		<use xlink:href="#SVGID_1_"  overflow="visible"/>
	</clipPath>
	<path clip-path="url(#SVGID_2_)" fill-rule="evenodd" clip-rule="evenodd" fill="#748C3D" d="M3.599,33.738
		c0,0,0.469-10.639,5.476-13.298c5.006-2.66,7.04-3.599,11.89-2.66c6.884,1.252,15.958,3.755,18.305-2.503
		c-2.034-2.034,0.156-9.231,0.156-9.7c1.564-4.224,1.564-5.789,3.91-2.503c2.505,3.285,3.912,5.319,3.912,5.319l1.408-0.156
		l2.034-0.313l0.156-0.783l0.626-2.19c0,0,3.755-8.918,4.38-2.816c0.626,6.102,0.626,7.666,0.626,7.666l0.313,0.782l0.782,0.783
		l0.626,0.469l0.313,0.626c0,0,0.313,0.782,0.313,1.251v0.939c0,0-0.313,0.939-0.313,1.408c0,0.469-0.313-0.313,0,0.469l0.313,0.783
		l0.782,1.408l0.626,1.408v0.782l0.313,2.347v0.626l-0.313,0.625c0,0-0.469,0.47-1.095,0.783l-1.252,0.625l-0.938,0.157
		l-0.938,0.626c0,0-0.313,0.156-0.782,0.626l-0.47,0.469l-0.626,0.939l-0.156,0.625l-0.156,0.783c0,0-0.313,7.666-1.096,10.638
		c-1.251,4.381-3.129,9.544-3.129,11.107v3.286l0.938,1.251v0.626l-0.938,0.782h-1.096c-0.469,0-1.563-0.156-1.563-0.156v-0.781
		l-0.939-1.722v-1.721v-1.565l-0.155-9.387c0,0-4.226,3.755-10.952,3.6c-0.626,1.563-1.096,7.195-0.626,9.387l0.47,2.189
		l-1.252,0.156l-1.252,0.157c0,0-0.313,0.156-0.782,0l-0.469-0.157l-0.939-0.625l-0.782-1.096L29.1,55.171
		c0,0-0.156-7.979-1.408-9.073c-1.877-1.408-3.911-1.878-5.475,0.155c-1.565,2.034-1.565,3.755-1.565,4.225
		s-0.313,1.095-0.313,1.095v0.783v0.782l0.313,0.626l0.939,0.313l0.156,1.408l-0.938,1.095c0,0,0.156,0.313-0.626,0.313
		c-0.783,0-0.626,0.313-1.565,0l-0.938-0.313l-0.939-1.564l-0.157-1.096c0,0-1.721-7.04,0.47-9.543
		c1.251-1.721,0.626-2.973-1.252-3.441c-2.503-0.471-2.972-1.252-4.693,0.781c-2.034,2.348-6.728,10.326-7.51,13.299l-0.156,1.252
		l0.156,0.626l-0.156,0.781l-1.565,0.156l-0.782-0.156l-0.626-0.781L0,55.641l0.156-1.252l0.157-1.877l0.156-0.627
		c0,0,0.156-4.066,2.034-6.101c0.939-1.878,0-1.252,0-3.912v-4.066l0.626-1.096l0.313-1.409L3.599,33.738z"/>
</g>
</svg>
