<?xml version="1.0" encoding="utf-8"?>
<!-- Generator: Adobe Illustrator 15.0.2, SVG Export Plug-In . SVG Version: 6.00 Build 0)  -->
<!DOCTYPE svg PUBLIC "-//W3C//DTD SVG 1.1//EN" "http://www.w3.org/Graphics/SVG/1.1/DTD/svg11.dtd">
<svg version="1.1" id="Layer_1" xmlns="http://www.w3.org/2000/svg" xmlns:xlink="http://www.w3.org/1999/xlink" x="0px" y="0px"
	 width="92.169px" height="50.846px" viewBox="0 0 92.169 50.846" enable-background="new 0 0 92.169 50.846" xml:space="preserve">
<g>
	<defs>
		<rect id="SVGID_1_" y="0" width="92.169" height="50.846"/>
	</defs>
	<clipPath id="SVGID_2_">
		<use xlink:href="#SVGID_1_"  overflow="visible"/>
	</clipPath>
	<path clip-path="url(#SVGID_2_)" fill-rule="evenodd" clip-rule="evenodd" fill="#748C3C" d="M90.482,6.456
		c-0.385-0.246-0.77-0.493-1.154-0.735c-1.421-0.616-3.079-0.839-4.365-1.633c-0.556-0.342-1.309-0.839-1.685-1.377
		c-0.167-0.316-0.333-0.637-0.5-0.957c-0.237-0.263-2.474-1.286-2.9-1.407c-2.132-0.578-6.854-0.518-8.015,0.833
		c-0.796,0.923-0.912,2.497-1.622,3.516c-0.673,0.964-1.238,2.029-1.903,3.04c-0.226,0.34-0.709,0.689-0.781,1.15
		c0.033,0.011,0.063,0.021,0.096,0.029c0.083-0.037,0.167-0.083,0.248-0.125c0.042,0.075,0.084,0.149,0.126,0.221
		c-0.826,1.18-1.378,2.919-1.841,4.416c-0.284,0.915-0.346,1.72-0.812,2.397c-0.386,0.564-0.996,1.319-1.621,1.631
		c-0.459,0.194-0.915,0.384-1.372,0.574c-0.384,0.34-0.492,0.921-0.937,1.217c-0.766,0.511-1.988,0.839-2.899,1.119
		c-0.302,0.061-0.604,0.125-0.906,0.19c-0.932,0.639-2.23,0.835-3.367,1.276c-1.022,0.403-1.932,0.975-3.182,1.282
		c-2.505,0.607-5.589,0.684-8.203,1.056c-1.019,0.044-2.038,0.083-3.056,0.129c-1.133-0.035-2.267-0.064-3.4-0.1
		c-0.749,0.025-1.497,0.046-2.246,0.065c-0.426-0.011-0.853-0.019-1.279-0.029c-0.977,0.048-1.955,0.104-2.931,0.159
		c-1.882,0.098-3.765,0.191-5.646,0.287c-1.072,0.247-1.908,0.825-2.871,1.216c-1.34,0.549-2.87,0.774-4.054,1.503
		c-2.274,1.401-3.973,5.013-4.522,8.182c-0.094,0.543,0.043,1.018,0.124,1.537c0.105,0.664-0.265,0.967-0.343,1.473
		c-0.113,0.738,0.268,1.089-0.062,1.76c-0.976,1.968-2.836,3.751-5.177,4.314c-0.842,0.104-1.686,0.212-2.527,0.315H3.68
		c-1.124,0.186-2.219,0.286-3.243,0.255c0.029,0.35-0.26,0.479-0.437,0.706c0.335,0.217,0.684,0.075,1.03,0.225
		c0.443,0.192,0.962,0.508,1.528,0.638c0.952,0.223,1.939,0.171,2.745,0.449c0.27-0.04,0.54-0.087,0.811-0.128h0.811
		c0.543-0.112,1.089-0.345,1.528-0.512c0.46-0.171,0.956-0.14,1.372-0.255c0.41-0.11,0.778-0.453,1.123-0.638
		c1.249-0.68,2.301-1.412,2.931-2.784h0.064c0.996,0.748,0.478,3.199,0.935,4.512c0.202,0.572,0.59,0.712,1.092,0.99
		c0.239,0.129,0.403,0.29,0.78,0.319c0.292,0.645,0.332,1.567,0.872,1.949c0.324,0.229,3.104,0.121,3.526,0.062
		c0.555-0.075,2.409,0.069,2.525-0.251c0.226-0.637-1.477-1.714-1.809-1.983c-0.186-0.267-0.373-0.532-0.561-0.802
		c-0.249-0.075-0.499-0.147-0.749-0.223c-0.337-0.183-1.34-1.344-1.527-1.693c-0.292-0.55-0.247-1.389-0.313-2.08
		c0.021-0.042,0.043-0.088,0.062-0.125c0.386-0.157,1.158,0.284,1.53,0.415c0.835,0.29,1.927,0.508,2.899,0.222
		c1.208-0.353,2.365-1.396,3.275-2.14c0.452-0.372,0.802-0.873,1.342-1.151c1.091,0.065,0.749,0.684,1.279,0.988
		c0.298-0.019,0.345-0.163,0.436-0.385c0.822,0.186,1.643,0.366,2.464,0.548c1.312,0.292,2.531,0.321,3.931,0.607
		c0.662,0.136,1.525,0.436,2.12,0.543c0.219-0.057,0.437-0.107,0.655-0.161c0.005,0,1.211,0.119,1.404,0.161
		c0.874,0.199,1.746,0.402,2.619,0.607c0.978,0.041,1.956,0.085,2.932,0.125c2.14,0.363,3.988,0.312,6.146,0.288
		c0.021,0.075,0.041,0.148,0.063,0.224c0.355,0.207,0.383-0.079,0.623-0.158c0.302,0.046,0.603,0.083,0.904,0.129
		c0.606,0.132,2.221,0.25,2.964,0.125c0.405-0.031,0.811-0.064,1.217-0.096c0.841,0.076,1.683,0.152,2.525,0.228
		c-0.057,0.528-0.11,1.04,0.405,1.182c-0.118,0.641,0.278,1.323,0.936,1.244c0.184,0.851,0.43,1.944,1.03,2.367
		c0.331,0.236,0.657,0.023,1.028,0.065c0.26,0.074,0.521,0.149,0.78,0.226c0.649,0.135,1.483-0.082,1.934-0.132
		c0.114,0.046,0.229,0.086,0.343,0.132c0.146-0.101,0.29-0.197,0.437-0.291c0.514-0.127,1.625,0.044,1.84-0.06
		c0.155-0.093,0.274-0.2,0.313-0.418c-0.404-0.809-1.458-1.723-2.34-2.015c-0.021-0.036-0.042-0.064-0.063-0.096
		c0.367-0.201,0.664-0.136,0.748-0.645c-0.233-0.414-1.019-1.135-1.498-1.311c-0.414-0.104-0.831-0.211-1.245-0.315
		c-0.164-0.146,0.026-0.177-0.032-0.446c-0.095-0.192-0.187-0.389-0.281-0.578c0.431-0.519,1.369-0.708,1.996-1.025
		c1.035-0.518,1.98-1.09,3.026-1.626c1.015-0.524,1.828-1.359,2.682-2.047c1.757-1.421,3.159-2.762,4.117-5.022
		c0.232-0.543,0.832-1.025,0.967-1.6h0.25c0.072-0.702,0.146-1.405,0.219-2.108c-0.102-0.647-0.028-1.647-0.188-2.365
		c-0.136-0.589-0.27-1.172-0.406-1.758c0.021-0.268,0.043-0.535,0.063-0.8c-0.042-0.342-0.083-0.683-0.125-1.025
		c0.239-1.37,0.478-2.747,0.717-4.126c0.174-0.952,0.072-1.722,0.344-2.584c0.291-0.929,1.233-1.176,1.559-2.05
		c0.194-0.518,0.099-1.08,0.251-1.665c0.149-0.576,0.825-1.309,1.247-1.661c0.46-0.376,1.379-0.729,2.245-0.575
		c0.396,0.061,0.791,0.126,1.186,0.195c1.982-0.357,4.006-0.274,5.583-1.218c0.356-0.21,0.516-0.617,0.779-0.924
		c0.379-0.447,1.271-1.14,1.216-1.955C92.112,6.9,91.063,6.752,90.482,6.456"/>
</g>
</svg>
