<?xml version="1.0" encoding="utf-8"?>
<!-- Generator: Adobe Illustrator 15.0.2, SVG Export Plug-In . SVG Version: 6.00 Build 0)  -->
<!DOCTYPE svg PUBLIC "-//W3C//DTD SVG 1.1//EN" "http://www.w3.org/Graphics/SVG/1.1/DTD/svg11.dtd">
<svg version="1.1" id="Layer_1" xmlns="http://www.w3.org/2000/svg" xmlns:xlink="http://www.w3.org/1999/xlink" x="0px" y="0px"
	 width="346.512px" height="210.325px" viewBox="0 0 346.512 210.325" enable-background="new 0 0 346.512 210.325"
	 xml:space="preserve">
<g>
	<defs>
		<rect id="SVGID_1_" width="346.512" height="210.325"/>
	</defs>
	<clipPath id="SVGID_2_">
		<use xlink:href="#SVGID_1_"  overflow="visible"/>
	</clipPath>
	<path clip-path="url(#SVGID_2_)" fill="#9FB865" d="M89.559,152.478c0,9.348-4.497,18.164-12.02,23.59l-8.422-11.685
		c3.781-2.726,6.039-7.176,6.039-11.905c0-8.017-6.359-14.535-14.176-14.535v-14.399C76.738,123.543,89.559,136.524,89.559,152.478
		 M60.98,30.137v14.399c7.817,0,14.176,6.519,14.176,14.535c0,4.73-2.258,9.179-6.039,11.906l8.422,11.684
		c7.523-5.426,12.02-14.243,12.02-23.586C89.559,43.118,76.738,30.137,60.98,30.137 M346.512,151.567
		c0,32.397-26.359,58.758-58.758,58.758c-31.719,0-57.645-25.258-58.727-56.715H117.484c-1.082,31.457-27.011,56.715-58.726,56.715
		C26.359,210.325,0,183.965,0,151.567c0-17.746,8.078-34.547,21.781-45.664v-1.481C8.078,93.305,0,76.508,0,58.758
		C0,26.36,26.359,0,58.758,0c31.719,0,57.644,25.258,58.726,56.715h111.543C230.105,25.258,256.035,0,287.75,0
		c32.402,0,58.762,26.36,58.762,58.758c0,17.75-8.078,34.547-21.781,45.664v1.481C338.434,117.021,346.512,133.821,346.512,151.567
		 M332.109,151.567c0-14.36-7.004-27.899-18.742-36.219l-3.039-2.152V97.129l3.039-2.152c11.738-8.316,18.742-21.856,18.742-36.215
		c0-24.461-19.898-44.359-44.355-44.359c-24.461,0-44.363,19.898-44.363,44.359c0,8.16,2.234,16.137,6.465,23.063l-12.293,7.5
		c-3.441-5.637-5.887-11.793-7.262-18.207h-114.09c-1.375,6.414-3.82,12.57-7.262,18.207l-12.289-7.5
		c4.227-6.926,6.461-14.903,6.461-23.063c0-24.461-19.902-44.359-44.363-44.359c-24.457-0.004-44.36,19.898-44.36,44.355
		c0,14.363,7.008,27.903,18.747,36.219l3.035,2.152v16.067l-3.035,2.152c-11.739,8.319-18.747,21.858-18.747,36.219
		c0,24.461,19.903,44.358,44.36,44.358c24.461,0,44.359-19.897,44.359-44.358c0-8.16-2.234-16.133-6.461-23.063l12.293-7.5
		c3.442,5.638,5.883,11.793,7.262,18.207h114.09c1.375-6.41,3.82-12.569,7.258-18.207l12.293,7.5
		c-4.227,6.931-6.461,14.903-6.461,23.063c0,24.461,19.898,44.358,44.359,44.358S332.109,176.028,332.109,151.567 M287.934,123.614
		v14.397c7.816,0,14.172,6.524,14.172,14.535c0,4.731-2.258,9.181-6.039,11.907l8.422,11.683c7.523-5.426,12.02-14.241,12.02-23.59
		C316.508,136.594,303.688,123.614,287.934,123.614 M302.105,59.141c0,4.73-2.258,9.18-6.039,11.906l8.422,11.684
		c7.523-5.426,12.02-14.242,12.02-23.59c0-15.953-12.82-28.934-28.574-28.934v14.399C295.75,44.606,302.105,51.125,302.105,59.141"
		/>
</g>
</svg>
