<?xml version="1.0" encoding="utf-8"?>
<!-- Generator: Adobe Illustrator 15.0.2, SVG Export Plug-In . SVG Version: 6.00 Build 0)  -->
<!DOCTYPE svg PUBLIC "-//W3C//DTD SVG 1.1//EN" "http://www.w3.org/Graphics/SVG/1.1/DTD/svg11.dtd">
<svg version="1.1" id="Layer_1" xmlns="http://www.w3.org/2000/svg" xmlns:xlink="http://www.w3.org/1999/xlink" x="0px" y="0px"
	 width="390.96px" height="386px" viewBox="0 0 390.96 386" enable-background="new 0 0 390.96 386" xml:space="preserve">
<g>
	<defs>
		<rect id="SVGID_1_" width="390.96" height="386"/>
	</defs>
	<clipPath id="SVGID_2_">
		<use xlink:href="#SVGID_1_"  overflow="visible"/>
	</clipPath>
	<path clip-path="url(#SVGID_2_)" fill="#9CB565" d="M383.961,100.164c-3.758,0-6.801,3.047-6.801,6.801v97.109
		c0,2.234-1.816,4.051-4.051,4.051H186.316c-2.23,0-4.046-1.816-4.046-4.051v-97.109c0-3.754-3.047-6.801-6.801-6.801
		s-6.801,3.047-6.801,6.801v97.109c0,9.734,7.918,17.652,17.648,17.652h86.598v20.048h-2.379c-12.957,0-23.496,10.539-23.496,23.491
		v96.82c0,12.953,10.539,23.492,23.496,23.492h18.36c12.953,0,23.496-10.539,23.496-23.492v-96.82
		c0-12.952-10.539-23.491-23.496-23.491h-2.379v-20.048h86.593c9.734,0,17.652-7.918,17.652-17.652v-97.109
		C390.762,103.207,387.715,100.164,383.961,100.164 M298.789,265.266v96.82c0,5.453-4.437,9.891-9.894,9.891h-18.364
		c-5.453,0-9.89-4.438-9.89-9.891v-96.82c0-5.452,4.437-9.891,9.89-9.891h18.364C294.353,255.375,298.789,259.813,298.789,265.266"
		/>
	<path clip-path="url(#SVGID_2_)" fill="#9CB565" d="M235.465,171.813c3.755,0,6.802-3.043,6.802-6.801v-56.418
		c0-3.758-3.047-6.801-6.802-6.801c-3.754,0-6.801,3.043-6.801,6.801v56.418C228.664,168.77,231.711,171.813,235.465,171.813"/>
	<path clip-path="url(#SVGID_2_)" fill="#9CB565" d="M205.931,171.813c3.754,0,6.797-3.043,6.797-6.801v-56.418
		c0-3.758-3.043-6.801-6.797-6.801c-3.759,0-6.802,3.043-6.802,6.801v56.418C199.129,168.77,202.172,171.813,205.931,171.813"/>
	<path clip-path="url(#SVGID_2_)" fill="#9CB565" d="M294.539,171.813c3.754,0,6.797-3.043,6.797-6.801v-56.418
		c0-3.758-3.043-6.801-6.797-6.801c-3.758,0-6.801,3.043-6.801,6.801v56.418C287.738,168.77,290.781,171.813,294.539,171.813"/>
	<path clip-path="url(#SVGID_2_)" fill="#9CB565" d="M265,171.813c3.758,0,6.802-3.043,6.802-6.801v-56.418
		c0-3.758-3.044-6.801-6.802-6.801c-3.754,0-6.797,3.043-6.797,6.801v56.418C258.203,168.77,261.246,171.813,265,171.813"/>
	<path clip-path="url(#SVGID_2_)" fill="#9CB565" d="M353.613,171.813c3.754,0,6.797-3.043,6.797-6.801v-56.418
		c0-3.758-3.043-6.801-6.797-6.801c-3.758,0-6.801,3.043-6.801,6.801v56.418C346.813,168.77,349.855,171.813,353.613,171.813"/>
</g>
<g>
	<defs>
		<rect id="SVGID_3_" width="390.96" height="386"/>
	</defs>
	<clipPath id="SVGID_4_">
		<use xlink:href="#SVGID_3_"  overflow="visible"/>
	</clipPath>
	<path clip-path="url(#SVGID_4_)" fill="#9CB565" d="M324.074,171.813c3.754,0,6.801-3.043,6.801-6.801v-56.418
		c0-3.758-3.047-6.801-6.801-6.801s-6.801,3.043-6.801,6.801v56.418C317.273,168.77,320.32,171.813,324.074,171.813"/>
	<path clip-path="url(#SVGID_4_)" fill="#9CB565" d="M185.25,273.551L116.5,142.848l20.418-44.477
		c0.465,0.016,0.926,0.028,1.387,0.028h0.004c11.601,0,22.882-4.153,31.773-11.684c8.988-7.621,14.945-18.234,16.773-29.887
		c2.04-12.98-1.101-25.98-8.839-36.597c-7.739-10.621-19.149-17.59-32.129-19.629C143.344,0.203,140.762,0,138.203,0
		c-11.598,0-22.883,4.153-31.769,11.688c-5.418,4.59-9.727,10.277-12.7,16.617c-2.976-6.34-7.281-12.027-12.699-16.617
		C72.146,4.153,60.863,0,49.262,0c-2.555,0-5.141,0.203-7.684,0.602C28.598,2.641,17.188,9.61,9.449,20.231
		C1.711,30.848-1.43,43.848,0.609,56.828c1.832,11.653,7.789,22.266,16.774,29.883c8.89,7.535,20.176,11.688,31.773,11.688
		c0.461,0,0.922-0.016,1.387-0.028l20.391,44.543L2.219,273.547c-0.098,0.185-0.184,0.371-0.266,0.563
		c-2.601,6.276-2.605,13.19-0.008,19.472c2.598,6.281,7.489,11.172,13.766,13.774c0.156,0.065,0.316,0.125,0.48,0.179l15.688,5.157
		c0.699,0.233,1.418,0.343,2.125,0.343c2.594,0,5.043-1.492,6.18-3.965l52.961-115.351l54.164,115.406
		c1.148,2.442,3.582,3.91,6.156,3.91c0.707,0,1.422-0.109,2.125-0.34l15.687-5.16c0.161-0.054,0.321-0.113,0.481-0.179
		c6.277-2.603,11.164-7.493,13.762-13.774c2.597-6.281,2.597-13.195-0.008-19.472C185.434,273.918,185.344,273.735,185.25,273.551
		 M103.094,43.68c2.738-17.43,17.504-30.082,35.109-30.082c1.852,0,3.727,0.148,5.574,0.437c9.395,1.477,17.649,6.52,23.25,14.203
		c5.598,7.684,7.868,17.086,6.395,26.481c-2.738,17.43-17.504,30.082-35.113,30.082c-1.852,0-3.727-0.148-5.571-0.438
		C113.352,81.32,100.051,63.067,103.094,43.68 M93.734,99.57l-8.757-16.644c3.566-3.793,6.535-8.129,8.757-12.848
		c2.223,4.719,5.188,9.051,8.754,12.848L93.734,99.57z M14.047,54.719c-1.477-9.391,0.797-18.797,6.394-26.481
		c5.598-7.683,13.856-12.726,23.25-14.203c1.844-0.289,3.719-0.437,5.571-0.437c17.609,0,32.375,12.652,35.109,30.082
		c3.043,19.387-10.254,37.637-29.641,40.683c-1.847,0.29-3.722,0.434-5.574,0.434C31.547,84.797,16.781,72.149,14.047,54.719
		 M64.406,95.985c3.453-1.122,6.711-2.61,9.754-4.407l11.887,22.598l-7.117,13.535L64.406,95.985z M30.355,297.875l-9.644-3.172
		c-2.82-1.23-5.02-3.468-6.199-6.32c-1.172-2.84-1.207-5.953-0.098-8.809l98.891-187.996c3.039,1.793,6.297,3.285,9.746,4.403
		L30.355,297.875z M172.953,288.383c-1.18,2.853-3.375,5.09-6.195,6.32l-9.696,3.188L100.57,177.535l8.766-19.09l63.715,121.129
		C174.16,282.43,174.129,285.543,172.953,288.383"/>
</g>
</svg>
