<?xml version="1.0" encoding="utf-8"?>
<!-- Generator: Adobe Illustrator 15.0.2, SVG Export Plug-In . SVG Version: 6.00 Build 0)  -->
<!DOCTYPE svg PUBLIC "-//W3C//DTD SVG 1.1//EN" "http://www.w3.org/Graphics/SVG/1.1/DTD/svg11.dtd">
<svg version="1.1" id="Layer_1" xmlns="http://www.w3.org/2000/svg" xmlns:xlink="http://www.w3.org/1999/xlink" x="0px" y="0px"
	 width="243.414px" height="312.355px" viewBox="0 0 243.414 312.355" enable-background="new 0 0 243.414 312.355"
	 xml:space="preserve">
<g>
	<defs>
		<rect id="SVGID_1_" width="243.414" height="312.355"/>
	</defs>
	<clipPath id="SVGID_2_">
		<use xlink:href="#SVGID_1_"  overflow="visible"/>
	</clipPath>
	<path clip-path="url(#SVGID_2_)" fill="#9BB465" stroke="#9BB465" stroke-miterlimit="10" d="M109.793,140.27
		c1.566,0,3.137-0.036,4.715-0.102v74.687c-10.871,2.575-19.903,10.852-23.137,21.856c-1.117,3.815,1.067,7.819,4.883,8.937
		c0.676,0.2,1.359,0.293,2.031,0.293c3.113,0,5.985-2.035,6.906-5.171c2.133-7.274,8.93-12.356,16.52-12.356
		s14.383,5.082,16.52,12.356c1.121,3.816,5.121,6,8.938,4.878c3.816-1.117,6-5.121,4.879-8.933
		c-3.23-11.009-12.266-19.281-23.137-21.86v-74.687c0.395,0.066,0.797,0.102,1.207,0.102c60.539,0,109.793-49.254,109.793-109.793
		c0-8.176-0.906-16.344-2.699-24.278c-0.68-3.008-3.199-5.25-6.266-5.574C227.043,0.211,223.098,0,219.223,0
		c-35.199,0-68.516,17.066-89.121,45.652c-2.324,3.227-1.594,7.727,1.629,10.051c3.227,2.328,7.727,1.598,10.051-1.629
		c17.91-24.844,46.859-39.676,77.441-39.676c1.641,0,3.297,0.043,4.957,0.133c0.882,5.254,1.328,10.598,1.328,15.946
		c0,50.335-39.188,91.691-88.66,95.156l45.438-53.227c2.582-3.027,2.223-7.57-0.801-10.152s-7.57-2.223-10.152,0.801l-40.855,47.867
		c0.004-0.379,0.004-0.754,0.004-1.129C130.48,49.254,81.23,0,20.691,0c-3.879,0-7.824,0.211-11.726,0.625
		C5.898,0.949,3.379,3.191,2.699,6.199C0.91,14.137,0,22.305,0,30.477C0,91.016,49.254,140.27,109.793,140.27 M15.73,14.531
		c1.661-0.09,3.317-0.133,4.961-0.133c52.598,0,95.391,42.793,95.391,95.395c0,2.129-0.07,4.254-0.211,6.375L68.477,62.941
		c-2.645-2.968-7.196-3.234-10.165-0.589c-2.968,2.644-3.234,7.195-0.589,10.168l47.406,53.238
		c-50.445-2.442-90.731-44.246-90.731-95.281C14.398,25.129,14.848,19.789,15.73,14.531 M0,232.574
		c0-23.19,35.129-41.847,89.492-47.526c3.953-0.41,7.496,2.457,7.91,6.409c0.414,3.957-2.457,7.496-6.41,7.91
		c-47.945,5.013-76.594,20.82-76.594,33.207c0,14.521,40.825,34.771,107.309,34.771c66.484,0,107.309-20.25,107.309-34.771
		c0-12.479-28.898-28.34-77.262-33.272c-3.953-0.406-6.832-3.938-6.43-7.896s3.934-6.84,7.895-6.433
		c54.793,5.593,90.195,24.276,90.195,47.601c0,31.938-62.703,49.172-121.707,49.172C62.707,281.746,0,264.512,0,232.574
		 M238.699,278.082c2.211,3.306,1.32,7.777-1.984,9.984c-22.41,14.985-66.48,24.289-115.004,24.289
		c-48.531,0-92.598-9.308-115.008-24.289c-3.305-2.211-4.195-6.679-1.984-9.988c2.211-3.305,6.683-4.19,9.988-1.979
		c19.863,13.276,61.863,21.858,107.004,21.858c45.137,0,87.137-8.582,107.004-21.858
		C232.02,273.887,236.492,274.777,238.699,278.082"/>
</g>
</svg>
