<?xml version="1.0" encoding="utf-8"?>
<!-- Generator: Adobe Illustrator 15.0.2, SVG Export Plug-In . SVG Version: 6.00 Build 0)  -->
<!DOCTYPE svg PUBLIC "-//W3C//DTD SVG 1.1//EN" "http://www.w3.org/Graphics/SVG/1.1/DTD/svg11.dtd">
<svg version="1.1" id="Layer_1" xmlns="http://www.w3.org/2000/svg" xmlns:xlink="http://www.w3.org/1999/xlink" x="0px" y="0px"
	 width="1042.98px" height="342.296px" viewBox="0 0 1042.98 342.296" enable-background="new 0 0 1042.98 342.296"
	 xml:space="preserve">
<g>
	<defs>
		<rect id="SVGID_1_" width="1042.982" height="342.296"/>
	</defs>
	<clipPath id="SVGID_2_">
		<use xlink:href="#SVGID_1_"  overflow="visible"/>
	</clipPath>
	<path clip-path="url(#SVGID_2_)" fill="#9CCB3C" d="M810.938,95.424c-1.01,0-2.012,0.461-3.043,1.404
		c-0.348-0.121-0.593-0.166-0.829-0.166c-0.414,0-1.04,0.095-4.094,1.228c-2.761,0.682-5.093,1.027-6.929,1.027
		c-0.888,0-1.761,0.083-2.572,0.241c-2.182,0.388-2.646,0.413-2.701,0.414c-0.041-0.001-0.304-0.018-1.336-0.184
		c-0.995-0.216-1.904-0.325-2.775-0.325c-0.604,0-1.218,0.271-2.036,0.941l-0.285-0.432h-2.423
		c-0.172-0.515-0.385-1.044-0.637-1.586c1.195-3.557,1.4-4.638,1.443-5.239c0.049-1.687,0.124-3.494,0.223-5.423l0.01-0.186
		l-0.859-4.338l0.421-1.471l0.265-2.773l0.501-1.877l-0.063-0.336c-0.292-1.54-0.34-1.903-0.346-1.904
		c0-0.623,0.072-1.622,0.216-2.988c0.055-0.58,0.083-1.117,0.083-1.595c0-0.266-0.038-0.794-0.303-2.819
		c-0.064-1.597-0.282-2.642-0.704-3.363c-0.145-0.285-0.176-0.403-0.187-0.391c0.003-0.222,0.04-0.493,0.112-0.806l0.214-0.939
		l-0.765-0.586c-0.975-0.746-1.882-1.109-2.773-1.109c-1.993,0-3.555,0.923-4.516,2.666c-0.936,1.69-1.745,2.918-2.406,3.65
		l-0.077,0.092c-1.001,1.305-1.207,1.597-1.295,1.751c-0.879,1.354-1.425,1.829-1.66,1.989c-1.367,0.631-1.472,0.707-1.667,0.9
		c-0.156,0.151-0.194,0.188-1.525,2.251l-1.9,2.501l-1.865,3.068l-1.926,1.375l-1.151,1.828l-1.689,0.978l-2.992,2.723
		c-2.237,1.004-2.857,1.364-3.146,1.564l-0.175,0.143c-1.967,1.861-2.574,2.401-2.686,2.499c-0.335,0.246-1.027,0.653-2.414,1.195
		l-0.199,0.078l-2.49,1.916l-2.895,1.311l-3.751,2.517l-1.8,0.765l-2.936,2.573l-1.607,0.785l-2.859,2.137
		c-1.167,0.69-1.858,1.229-2.235,1.744l-0.126,0.204c-0.43,0.841-0.747,2.046-0.969,3.683l-0.23,1.701h6.457
		c0.236,0.053,0.395,0.073,0.547,0.073c0.237,0,0.536-0.03,1.955-0.397c0.706-0.154,1.875-0.155,3.165,0.024
		c1.358,0.153,2.363,0.228,3.072,0.228c0.849,0,1.648-0.301,2.369-0.918c0.711-0.67,1.173-1.073,1.467-1.315
		c0.145,0.16,0.335,0.403,0.577,0.766l0.363,0.544l0.646,0.103c3.733,0.598,4.675,0.674,5.077,0.674c1.362,0,2.135-0.555,2.543-1.02
		l0.744-1.268l1.277,2.264l2.68-0.764l3.91,0.2l2.159,0.391l0.248-0.039c3.6-0.555,4.337-0.631,4.463-0.637
		c0.273,0,1.031,0.028,3.033,0.151c0.008,0.058,0.01,0.115,0.01,0.168v1.626l0.986,1.45l0.858-0.2l0.128,1.757
		c-0.695,0.955-1.094,1.826-1.214,2.655c-0.209,1.503-0.238,1.932-0.238,2.244v0.877l3.325,1.873l-3.675,6.464l0.727,2.308
		l0.074,3.933l0.058,0.852c-0.105,0.269-0.455,1.048-1.591,3.13l-0.184,0.336v2.117c-0.654,1.578-0.746,2.217-0.746,2.631
		c0,0.132,0.003,0.266,0.01,0.405c-1.208,1.019-1.797,2.082-1.797,3.233c0,2.823,1.737,3.829,3.362,3.829
		c1.594,0,2.939-0.958,4.006-2.847c0.365-0.078,0.615-0.083,0.779-0.069l0.516,0.045l3.243-2.113c2.225-1.01,2.352-1.135,2.56-1.339
		l0.092-0.098c0.264-0.309,0.495-0.702,0.699-1.187l1.059-0.388l-0.144-1.179c-0.121-0.997-0.139-1.409-0.139-1.534l0.077-3.601
		l-0.383-3.351l-0.025-0.16c-0.471-2.211-0.711-3.844-0.711-4.853v-0.822l-1.324-0.846l0.236-0.254l-0.266-1.556l1.729-1.246
		l-0.634-1.162c-0.396-0.724-0.413-1.015-0.413-1.015c0.002-0.087,0.028-0.651,0.294-4.268l0.004-5.858
		c0-1.123,0.2-2.101,0.615-2.953c0.077-0.175,0.141-0.256,0.144-0.277l3.724,0.497l0.199,0.013c0.526,0,0.981,0,5.1-2.855
		c2.028-0.768,2.868-1.072,3.215-1.191c0.201,0.07,0.651,0.304,1.391,1.098c2.034,2.168,3.453,3.094,4.743,3.094
		c0.206,0,0.418-0.03,0.646-0.09c0.467-0.036,0.822-0.056,1.067-0.056c1.326,0,2.374-0.408,3.114-1.212l0.12-0.149
		c0.321-0.453,0.641-0.775,0.949-0.956l0.741-0.435v-1.582c1.262-0.637,2.257-1.325,3.017-2.087c2.349-1.01,3.539-2.364,3.539-4.029
		C814.003,96.557,812.8,95.424,810.938,95.424 M751.483,97.491l1.941-1.66l7.224-5.894l1.282-1.316
		c1.607-1.427,3.233-3.043,4.819-4.784c0.914-0.971,1.868-1.555,2.834-1.737l0.908-0.171l0.256-0.888
		c0.275-0.955,0.545-1.409,0.702-1.609c0.005,0.054,0.009,0.117,0.009,0.188l-0.151,3.843c0,1.494,0.506,2.812,1.492,3.903
		c0.609,0.691,0.889,1.072,1.013,1.26c-0.023,0.115-0.065,0.278-0.142,0.499c-1.256,1.338-1.777,2.381-1.687,3.355l0.737,4.49
		c-0.009,0.807-0.117,1.776-0.321,2.893h-3.178v1.191l-0.053,0.057c-0.12-0.008-0.224-0.011-0.311-0.011
		c-1.073,0-1.925,0.276-2.53,0.822c-0.219,0.196-0.501,0.508-1.021,1.29l-0.814-1.004l-1.739-0.425
		c-0.782-1.052-1.356-1.556-2.16-1.556c-0.407,0-0.8,0.111-1.17,0.329c-0.669,0.326-1.049,0.485-1.254,0.562
		c-1.711-0.666-2.83-0.964-3.608-0.964h-2.721l-2.971-0.743C749.521,98.913,750.372,98.283,751.483,97.491"/>
	<path clip-path="url(#SVGID_2_)" fill="#9CCB3C" d="M474.74,153.277c-2.489-0.883-3.081-1.566-3.206-1.755
		c0.184-0.246,0.966-1.039,4.009-2.37c0.882-0.44,1.33-1.029,1.33-1.815v-0.262l-0.094-0.247c-0.124-0.329-0.215-0.574-0.269-0.738
		l0.195-2.228l-2.427-1.08l1.119-0.37c0.412-0.133,1.287-0.586,1.287-2.024c0-0.368-0.072-0.85-0.233-1.541
		c-0.067-0.264-0.146-0.797-0.146-1.84c0-0.688,0.038-1.318,0.106-1.827c0.188-1.117,0.209-1.564,0.209-1.804
		c0-0.199,0-0.272-0.58-2.87c0.397-1.237,0.454-1.745,0.454-2.076v-0.715l-0.577-0.443c-0.887-0.68-1.328-1.504-1.376-2.58
		c0.122-0.109,0.42-0.328,1.072-0.62l0.928-0.415l-0.049-0.993c-0.124-2.599-0.416-5.973-0.869-10.031l0.195-0.364
		c0.511-0.956,0.739-1.649,0.739-2.245c0-0.311-0.044-0.972-0.386-3.276c-0.037-0.366-0.056-0.714-0.056-1.044
		c0-0.422,0.094-1.413,0.543-3.734l0.16-0.829l-0.654-0.554c-0.246-0.21-0.553-0.418-0.929-0.628
		c0.124-0.086,0.247-0.183,0.372-0.291l0.56-0.485l-0.056-0.728c-0.039-0.502-0.059-0.965-0.059-1.391
		c0-0.104,0.027-0.413,0.274-1.026l0.396-0.981l-1.318-1.088c0.049-0.163,0.118-0.36,0.217-0.596c0.672-1.577,0.81-2.193,0.81-2.632
		V76.998l-1.27-0.171c0.081-0.587,0.169-0.841,0.204-0.925c1.306-1.616,1.571-2.327,1.571-2.941c0-0.77-0.269-1.547-0.802-2.317
		c0.369-1.532,0.55-3.695,0.55-6.573c0-0.244-0.021-0.788-0.205-2.774c-0.029-0.204-0.048-0.365-0.051-0.404
		c0.006-0.067,0.049-0.433,0.363-2.35l0.078-0.478l-0.895-1.693l-0.357-0.826c-0.241-0.555-0.738-1.009-1.614-1.459
		c-0.033-0.159-0.036-0.22-0.036-0.221c0-0.023,0.005-0.171,0.11-0.526l1.693-0.201l0.241-1.002c0.68-2.813,0.736-3.348,0.736-3.628
		c0.082-4.219,0.204-6.919,0.364-8.024l0.157-1.085l-1.023-0.459c-0.738-0.331-1.136-0.449-1.52-0.449
		c-0.448,0-1.123,0.102-3.974,1.321c-0.097,0.043-0.515,0.203-1.824,0.462l-0.772,0.153l-0.255,0.566
		c-0.09,0.058-0.305,0.175-0.74,0.312c-0.309,0.088-0.822,0.291-3.038,1.609c-1.98,1.217-2.146,1.382-2.294,1.528
		c-0.49,0.487-0.75,1.125-0.75,1.847c0,0.621,0.228,1.97,2.081,2.654c0.004,0.107,0.006,0.206,0.006,0.294
		c-0.009,0.09-0.04,0.221-0.085,0.396l-0.179,0.708l0.472,0.568c0.511,0.617,0.547,0.89,0.548,0.89c0,0.941-0.086,1.709-0.257,2.285
		c-0.442,1.498-0.501,2.027-0.501,2.348c0,0.213,0.041,0.42,0.139,0.712l0.2,0.589l0.572,0.273c0.315,0.151,0.531,0.273,0.676,0.365
		l-0.563,1.884l0.569,0.611c0.207,0.221,0.304,0.368,0.349,0.445c-0.022,0.094-0.067,0.266-0.161,0.548l-0.08,0.239l0.063,2.79
		c-0.564,1.989-0.564,2.007-0.564,2.249c0,0.401,0,0.47,1.497,3.381c-0.33,1.389-0.447,1.703-0.457,1.729l-0.048,0.105l-1.76-0.12
		l-2.276,0.183l-1.702-0.25l-2.628,0.197c-4.354,0.127-5.05,0.309-5.569,0.567c-0.349,0.193-0.856,0.57-1.95,1.823
		c-0.17-0.061-0.35-0.148-0.545-0.264c-0.689-0.372-1.447-0.561-2.253-0.561h-0.733c-0.82-0.511-1.518-0.751-2.174-0.751
		c-0.254,0-0.332,0-2.918,0.703l-1.555,0.115l-0.274,0.044c-0.938,0.242-1.366,0.336-1.553,0.373
		c-0.187-0.04-0.609-0.137-1.527-0.373l-0.543-0.139l-0.506,0.238c-1.023,0.484-1.305,0.561-1.344,0.57
		c-0.128,0.023-0.786,0.096-3.932,0.096l-1.521,0.125l-1.523,0.001l-5.675-0.188c-0.272,0-0.66,0.042-2.579,0.541
		c-0.157-0.041-0.489-0.143-1.117-0.395c-0.37-0.192-0.869-0.343-1.625-0.493l-1.819-0.361v1.46
		c-0.557-0.009-1.065,0.198-1.476,0.465l-1.362-0.245l-0.692,0.499c-0.077-0.164-0.149-0.343-0.216-0.535l-0.241-0.688l-1.437-0.473
		l-7.045,2.83c-1.593-0.459-2.325-0.688-2.652-0.796c-1.372-1.642-2.004-2.141-2.513-2.366l-0.105-0.042
		c-2.264-0.808-4.48-1.217-6.587-1.217c-0.781,0-1.752,0.15-2.941,0.455c-0.105-0.625-0.468-1.201-1.084-1.723
		c0.062-0.193,0.103-0.289,0.117-0.317c0.425-0.771,0.559-1.034,0.557-1.514l-0.061-1.311V57.013l-0.723-0.955
		c0.104-0.112,0.252-0.28,0.442-0.506l1.417-1.681l-4.835-1.497l0.226-0.223l1.734-5.098c0.028-0.055,0.322-0.572,2.186-1.884
		l1.969-1.387l-2.053-1.062c0.229-0.445,0.358-0.888,0.391-1.334l0.061-0.847l-2.245-1.483h-0.466c-0.467,0-0.82,0.192-1.104,0.38
		l-0.138,0.103c-1.463,1.226-2.966,2.051-4.463,2.449c-1.423,0.376-3.038,1.165-4.935,2.412l-2.525,1.309
		c-0.385,0.173-0.745,0.505-1.396,1.267l-0.706,0.827l0.593,0.907c0.562,0.857,1.062,1.48,1.659,1.788
		c0.296,0.196,0.655,0.303,1.015,0.366c0.169,0.411,0.3,0.725,0.404,0.959c0.307,0.609,0.392,0.884,0.409,0.958l-0.138,1.5
		l0.434,1.841c-0.033,0.123-0.106,0.355-0.267,0.754c-0.226,0.616-0.341,1.289-0.341,1.998c0,1.044,0.178,2.299,0.549,3.856
		c0.198,0.786,0.651,1.498,1.351,2.126l-0.045,0.552l-1.314,0.406l0.83,4.38l0.357,0.032c-0.186,0.523-0.275,0.991-0.275,1.42
		c0,0.651,0.131,1.182,0.374,1.58c0.447,0.802,0.722,1.34,0.892,1.697l-0.04-0.011l-0.589,1.021c-0.478,0.826-0.7,1.493-0.7,2.099
		l0.064,0.705l0.065,6.675c-0.004,0.051-0.035,0.299-0.231,1.377l-0.069,0.376l0.127,0.361c0.716,2.028,0.796,2.511,0.802,2.527
		c0,0.375-0.035,0.78-0.099,1.164c-0.254,1.301-0.466,2.413-0.635,3.335l-0.213,1.165l1.122,0.455
		c0.572,0.232,0.849,0.416,0.968,0.51c0.025,0.17,0.058,0.512,0.058,1.134c0,0.235,0.016,0.592,0.048,1.081
		c-1.038,0.59-1.628,1.619-1.628,2.925c0,0.784,0.087,1.809,0.26,3.086c0.079,0.788,0.119,1.54,0.119,2.236
		c0,0.773-0.039,1.495-0.114,2.131c-0.464,3.556-0.517,4.453-0.517,4.818c0,0.444,0.073,1.284,0.631,3.85
		c0.004,3.308,0.124,4.328,0.215,4.807l0.21,1.107l1.367,0.113l0.109,1.668c-0.185,0.064-0.38,0.115-0.59,0.152l-1.005,0.175
		l-0.21,0.973c-0.249,1.15-0.477,2.135-0.684,2.957l-0.043,3.336l-0.307,2.674l-0.009,0.163c0,0.577,0.189,1.222,0.598,2.029
		l0.416,0.824h0.159c0.018,0.235,0.027,0.451,0.027,0.648l-0.792,0.647c-0.681,0.504-0.853,1.371-0.913,2.629l-0.251,7.615
		c-0.167,3.403-0.481,4.183-0.538,4.298c-0.189,0.368-0.278,0.826-0.285,2.482c-0.506,1.503-0.775,2.73-0.821,3.743l-0.004,0.092
		l0.008,0.091c0.02,0.238,0.03,0.905-0.126,2.702l-0.155,1.797l4.938-0.56l0.341-0.802c0.224-0.528,0.368-0.76,0.426-0.842
		l0.147-0.097c0.1-0.019,0.252-0.04,0.47-0.057l0.514,0.764l1.163-0.473c1.769-0.719,3.445-1.696,5.012-2.929
		c0.155-0.129,0.529-0.417,1.431-1.062l1.022-0.731l-0.663-1.314l0.276-0.176l0.362-1.557l-0.003-11.84l-0.246-3.77l0.184-2.003
		c0.119-2.105,0.296-3.611,0.523-4.474l0.349-1.323l-1.33-0.439c-0.438-0.145-0.668-0.267-0.776-0.335
		c-0.014-0.108-0.027-0.292-0.027-0.585c0-0.394,0.061-1.176,0.352-2.668l0.027-3.731l0.98-1.822l0.025-0.299
		c0.195-2.314,0.195-2.35,0.195-2.436c0-0.422-0.12-0.887-0.351-1.399c-0.148-0.378-0.252-0.639-0.344-0.835l-0.138-0.765
		c-0.065-0.512-0.318-1.015-0.818-1.594c0.728-1.888,1.082-3.34,1.082-4.423c0-0.163,0-0.348-0.537-3.904
		c0.339-0.954,0.418-1.42,0.316-1.851l-0.292-1.684c0.059-0.103,0.14-0.244,0.254-0.433c0.243-0.304,0.512-0.686,0.511-1.26
		l-0.125-3.264c0-0.254,0.014-0.468,0.043-0.637l0.02-0.302c0-0.542-0.09-1.32-0.285-2.432c-0.048-0.218-0.157-1.083-0.157-4.392
		V82.7c0.119,0.005,0.257,0.022,0.472,0.054c1.244,0.128,2.424,0.194,3.509,0.196l1.635,0.13l3.6-0.255h2.019l1.45-0.46l3.427,0.578
		l1.863-2.026l1.171,1.663l0.643,0.101c4.534,0.707,4.681,0.707,4.852,0.707c0.587,0,1.353-0.243,3.404-1.434
		c1.44,0.224,1.774,0.245,1.967,0.245c0.066,0,0.22,0,6.366-0.189l0.273-0.033c1.868-0.393,3.44-0.592,4.671-0.592l1.318-0.002
		c3.651,0.17,4.35,0.19,4.558,0.19c1.233,0,2.296-0.341,3.149-1.005c0.426-0.326,0.71-0.525,0.893-0.646
		c0.225,0.112,0.607,0.327,1.215,0.735c1.158,0.71,2.077,1.041,2.893,1.041c0.32,0,0.944-0.037,2.967-0.333
		c0.076-0.012,0.476-0.059,2.427-0.17l1.139-0.063c2.767-0.156,4.951-0.17,6.727-0.003c3.242,0.282,3.97,0.318,4.242,0.318
		c0.127,0,0.392,0,2.485-0.201c0.809-0.11,2.527-0.187,5.108-0.23c0.11,0.064,0.218,0.124,0.325,0.179
		c-0.826,0.645-1.544,1.706-1.835,3.441c-0.396,2.551-0.396,2.752-0.396,2.912l0.25,3.337c-0.042,0.822-0.061,1.254-0.061,1.296
		v2.317l0.004,0.101c0.055,0.764,0.403,1.509,1.038,2.222c-0.082,0.582-0.153,1.199-0.211,1.835
		c-0.021,0.185-0.054,0.353-0.097,0.502h-0.925l-0.06,1.414c-0.044,1.024-0.064,3.788-0.062,8.38
		c-0.009,0.103-0.074,0.591-0.485,2.884l-0.239,1.332l1.964,0.508c0.168,0.513,0.343,0.929,0.53,1.263
		c0.126,0.219,0.202,0.379,0.247,0.486c-0.137,0.143-0.403,0.383-0.895,0.735l-0.73,0.521l0.126,0.871
		c0.057,0.403,0.095,0.667,0.11,0.794l-0.188,10.71c0,0.28,0.046,0.686,0.391,1.773c0.218,0.65,0.24,0.866,0.242,0.866
		c-0.034,0.883-0.274,1.677-0.735,2.428l-0.587,0.955l3.793,3.919c-3.677,1.745-3.925,1.986-3.925,2.956
		c0,0.916,0.372,1.308,2.752,2.276l-0.788,0.417c-1.014,0.503-2.296,1.626-2.648,4.138c-0.035,0.274-0.075,0.79-0.075,2.372
		c0,1.937-0.098,2.681-0.16,2.972c-0.019,0.089-0.165,0.597-1.282,1.801l-0.587,0.634l0.272,0.812
		c0.223,0.662,0.24,0.897,0.241,0.897l-0.063,4.029c0,0.998,0.695,2.163,2.653,2.163c0.571,0,1.293-0.161,2.406-0.548
		c0.425-0.169,1.147-0.587,3.486-2.453l1.355-0.505c1.655-0.711,2.97-1.385,3.943-2.017c0.297-0.168,0.914-0.527,1.848-1.073
		l0.684-0.4l0.049-0.776C478.262,154.619,475.636,153.618,474.74,153.277"/>
	<path clip-path="url(#SVGID_2_)" fill="#9CCB3C" d="M545.882,129.407c-1.744,0-2.637,0.773-3.119,1.487
		c-0.635,1.051-1.316,1.994-2.022,2.801l-0.074,0.093c-0.065,0.077-0.512,0.532-2.838,1.931c-2.196,1.34-3.213,1.859-3.681,2.056
		c-0.196,0.055-0.83,0.191-2.559,0.287l-3.349,0.898l-3.963,0.425l-0.3,0.062c-2.099,0.649-2.696,0.682-2.794,0.682
		c-0.355,0-0.671-0.071-1.009-0.236c-3.767-1.708-4.088-1.708-4.493-1.708c-0.144,0-0.294,0.005-0.451,0.016l-0.975-1.464
		l-0.767-0.053c-1.169-0.081-1.512-0.224-1.485-0.204l-0.064-0.047c-0.064-0.109-0.229-0.458-0.372-1.328l-0.176-1.075l-1.12-0.156
		c-1.554-0.217-2.174-0.578-2.399-0.77c-0.2-0.171-0.717-0.776-1.192-2.689l-0.214-0.86l-1.562-0.395l0.278-2.017l-1.551-0.844
		c-0.234-0.737-0.56-2.111-0.975-4.698c-0.133-0.584-0.556-1.142-1.455-1.865c0.326-0.442,0.575-0.876,0.752-1.309
		c0.196-0.5,0.376-1.219,0.555-2.224c0.959-0.219,2.257-0.576,3.92-1.078l2.584,0.06l3.093-0.516l2.911-0.248l2.285-0.243
		c2.838-0.001,4.239-0.038,4.992-0.08l0.357,0.28l0.662-0.088c0.833-0.112,1.558-0.17,2.156-0.174
		c0.206,0.026,1.009,0.153,4.128,0.726l0.808,0.148l0.576-0.564c0.981-0.961,1.592-1.518,1.965-1.839
		c0.547,0.359,1.509,1.01,3.206,2.19l0.595,0.413l2.293-0.6l2.251,0.389l2.297-0.828c0.648,0.217,1.187,0.363,1.633,0.442
		l0.802,0.142l1.694-1.66l-0.325-0.871c-0.347-0.934-0.644-1.679-0.901-2.276c-0.386-1.13-0.759-2.116-1.104-2.918
		c-0.459-1.102-1.25-2.218-2.42-3.411c-5.045-5.137-5.552-5.386-5.919-5.567l-0.097-0.043c-0.633-0.261-0.9-0.387-1.003-0.439
		c-0.118-0.107-0.42-0.409-1.099-1.207l-0.863-1.015l-1.769,1.083c-1.211-1.76-3.072-2.679-5.468-2.679c-0.35,0-0.653,0-4.502,1.401
		l-2.918,0.234l-5.115,1.542l-1.96,0.356l-4.94,3.339l-4.671,2.821l-0.227,0.167c-1.884,1.679-3.554,3.189-5.01,4.532l-0.211,0.194
		l-1.444,3.024l-2.052,2.366c-0.271,0.317-0.58,0.81-1.382,3.367c-0.639,2.237-0.95,3.842-0.95,4.906c0,4.216,0.291,5.366,0.6,5.97
		c0.891,1.783,1.28,2.6,1.449,2.975c-0.057,0.128-0.162,0.331-0.352,0.629l-0.626,0.983l0.84,0.823
		c1.576,1.544,1.867,1.962,1.926,2.062l1.077,1.874c0.279,0.737,1.025,1.408,2.533,2.305c1.494,0.888,1.92,1.16,2.041,1.242
		c1.778,1.621,2.142,1.882,2.381,2.023l0.102,0.054c0.216,0.107,0.617,0.303,5.359,1.73l1.475,0.894l1.553,0.161
		c3.519,0.402,4.454,0.449,4.852,0.449c0.623,0,1.459-0.066,2.459-0.191l1.088-0.063l2.162-0.353l3.524,0.527l0.236,0.017
		c0.299,0,0.311,0,2.459-0.681c0.171-0.046,0.813-0.176,3.107-0.397c1.094-0.133,2.92-0.545,5.583-1.259
		c1.351-0.118,2.519-0.495,3.532-1.159c0.764-0.554,1.176-0.81,1.38-0.925c0.123,0.031,0.305,0.09,0.561,0.205l1.391,0.629
		l0.654-1.338c0.444-0.912,1.563-2.857,3.353-5.824c0.23-0.412,0.55-1.168,0.987-3.367l0.176-0.889l-0.743-0.555
		C547.445,129.754,546.642,129.407,545.882,129.407 M529.919,106.68c-1.047,0.38-2.103,0.649-3.134,0.798
		c-0.189,0.027-0.484,0.077-0.887,0.151l-1.021-1.237l-0.828,0.074c-1.035,0.092-1.768,0.206-2.299,0.355
		c-2.127,0.473-2.914,0.562-3.174,0.576c-2.943-0.812-3.078-0.812-3.342-0.812c-0.609,0-1.187,0.201-1.674,0.583l-1.633,1.878
		l-0.428-0.42l-3.064-1.192c1.374-1.219,1.93-1.681,2.154-1.857c1.266-0.537,2.737-1.101,4.377-1.676
		c3.135-0.697,3.701-0.868,4.012-1.11l1.636-0.944l0.891,0.042c2.402,0,4.23,0.055,5.45,0.164c0.627,0.863,1.028,1.185,1.421,1.376
		l2.375,1.13c0.18,0.177,0.525,0.557,1.127,1.342c0.475,0.582,0.643,0.769,0.71,0.832c0.01,0.01,0.02,0.021,0.028,0.031
		l-2.368-0.203L529.919,106.68z"/>
	<path clip-path="url(#SVGID_2_)" fill="#9CCB3C" d="M600.906,95.803c-1.003-0.901-1.944-1.339-2.878-1.339
		c-0.361,0-0.694,0.076-1.014,0.237c-0.642,0.34-1.026,0.536-1.255,0.648c-0.584-0.565-0.906-0.878-0.959-0.93l-0.204-0.178
		c-0.568-0.413-1.324-0.605-2.38-0.605c-1.454,0-1.976,0.095-2.358,0.207c-2.714,0.921-3.586,1.178-3.862,1.25l-1.195-0.222
		l-0.273-0.025c-0.395,0-0.625,0.073-2.129,0.837l-1.635,0.679l-2.725,1.813l-2.433,0.826l-0.26,0.117
		c-0.63,0.358-1.195,0.658-1.694,0.897c0.004-0.011,0.007-0.022,0.01-0.034l0.101-0.377l-0.901-3.678l-0.158-0.233
		c-0.461-0.677-1.342-1.484-2.928-1.484c-0.501,0-0.954,0.093-3.797,1.908c-2.502,1.22-3.258,1.863-3.659,2.313
		c-0.666,0.783-1.161,1.661-1.471,2.607l-0.25,0.766l0.5,0.632c0.948,1.199,1.051,1.618,1.053,1.561
		c0.185,3.884,0.233,4.247,0.308,4.487c0.103,0.377,0.301,0.745,0.602,1.12c-0.36,0.929-0.536,1.722-0.536,2.407v1.019l0.007,0.144
		c0.036,0.372,0.056,0.705,0.056,1.002v7.079l0.55,0.45c0.354,0.289,0.698,0.503,1.037,0.644c-0.12,0.051-0.254,0.103-0.404,0.157
		l-0.995,0.356v1.056c0,0.928-0.062,2.083-0.181,3.433l-0.018,0.182l0.028,0.181c0.332,2.14,0.357,2.656,0.357,2.763v2.127
		l0.339,0.414c0.387,0.473,0.523,0.767,0.572,0.913l-1.257,0.374l-0.224,0.797c-0.258,0.916-0.306,1.23-0.306,1.488l0.01,0.17
		c0.189,1.659,0.292,2.583,0.303,2.695c0,0.096-0.017,0.194-0.066,0.348c-0.996,3.451-0.996,3.767-0.996,4.046
		c0,1.723,1.178,2.837,3,2.837c0.639,0,1.217-0.173,1.709-0.508c1.521-1.018,2.065-1.304,2.195-1.37
		c2.441-0.302,3.169-0.564,3.595-0.805c1.81-1.042,2.189-2.529,2.189-3.593c0-0.456-0.078-1.242-0.688-3.293l-0.256-0.861
		l0.165-0.09l0.535-1.502l-0.32-11.678l-0.295-3.046l-0.704-0.191c-0.007-0.602-0.203-1.215-0.6-1.853
		c0.675-0.822,0.975-1.511,0.975-2.192c0-0.531-0.021-1.194-0.063-1.91v-2.254c-0.033-1.935,0.412-3.255,1.324-3.923
		c1.601-1.173,2.828-2.116,3.715-2.857c0.286,0.108,0.532,0.155,0.774,0.155h0.225l2.688-0.822c0.056-0.015,0.405-0.093,1.908-0.203
		c1.079-0.095,1.972-0.527,2.629-1.262c0.615,0.125,1.221,0.3,1.797,0.521c1.465,0.596,2.499,0.874,3.256,0.874
		c0.359,0,0.772-0.019,1.233-0.056c1.199,1.355,2.226,1.967,3.267,1.967c0.945,0,1.811-0.619,3.052-2.194
		c1.862-1.354,3.097-2.346,3.769-3.031l0.58-0.592l-0.191-0.805C602.438,97.782,601.801,96.602,600.906,95.803"/>
	<path clip-path="url(#SVGID_2_)" fill="#9CCB3C" d="M663.089,107.995l-0.064-0.586l-0.451-0.386
		c-1.975-1.691-2.214-2.321-2.217-2.321c-0.203-1.083-0.29-1.476-0.67-1.868c-0.083-0.084-0.714-0.681-1.896-1.788
		c-0.68-0.896-1.516-1.775-2.592-1.775c-0.635,0-1.222,0.208-1.746,0.638c-0.714-1.617-1.71-2.742-2.984-3.363
		c-2.161-0.994-4.954-1.477-8.537-1.477c-0.125,0-0.26,0.012-0.455,0.046l-1.51-0.819l-3.34,0.072c-0.01,0-0.259-0.011-0.978-0.283
		l-1.698-0.643l-0.399,2.121c-0.098,0.01-0.189,0.015-0.276,0.015c-0.086,0-0.469-0.153-1.078-0.833l-0.6-0.669l-0.88,0.204
		c-1.156,0.269-2.781,0.818-4.966,1.678c-2.533,0.554-3.604,0.786-4.016,0.872c-0.105-0.025-0.288-0.073-0.581-0.164l-1.058-0.329
		l-0.636,0.899c-0.447,0.628-0.75,0.925-0.917,1.062c-0.219-0.087-0.572-0.235-1.141-0.487l-0.296-0.132h-0.051
		c0.073-0.296,0.196-0.6,0.372-0.919c0.603-1.129,0.927-1.737,0.993-1.873c0.337-0.747,0.394-1.778,0.184-3.208
		c-0.201-1.667-0.243-2.417-0.244-2.721c0.002-0.02,0.018-0.213,0.163-0.951l0.228-1.144l-1.064-0.5
		c-0.893-0.419-1.222-0.688-1.322-0.783c-0.043-0.142-0.13-0.54-0.147-1.462c0.341-0.228,0.738-0.432,1.188-0.61l0.446-0.175
		l0.262-0.396c0.536-0.809,0.754-1.361,0.754-1.905c0-0.305-0.047-0.712-0.154-1.311c-0.012-0.054-0.051-0.285-0.104-0.994
		l-0.135-1.408c-0.035-0.249-0.086-0.719-0.153-1.408c0.191-0.612,0.231-0.893,0.229-1.191l-0.124-2.532
		c0.002-0.06,0.026-0.441,0.358-2.122c0.1-0.597,0.147-1.113,0.147-1.578c0-1.19-0.536-2.515-1.643-4.055
		c0-0.005-0.002-0.012-0.002-0.02c0-0.488,0.334-1.176,0.94-1.939l0.269-0.338l0.048-0.429c0.048-0.446,0.071-0.817,0.071-1.115
		c0-0.721-0.307-1.475-0.939-2.306c-0.373-0.488-1.487-1.858-3.391-4.173l1.965-1.44l0.642-2.976
		c2.294-1.887,2.545-2.134,2.545-2.922c0-0.246-0.054-0.464-0.136-0.715l-0.101-0.236c-0.408-0.773-0.637-1.218-0.764-1.475
		c0.096-0.295,0.289-0.849,0.682-1.868c0.263-0.539,0.393-1.327,0.443-2.654l0.026-0.68l-0.501-0.468
		c-0.865-0.809-1.903-1.236-2.999-1.236c-0.608,0-1.548,0.164-3.9,1.366l-2.53,0.668c-0.388,0.114-0.9,0.346-2.867,1.932
		l-0.123,0.112c-0.031,0.029-0.226,0.214-1.104,0.878l-0.595,0.45v2.787l1.048,0.337c1.858,0.596,3.308,1.032,4.325,1.3
		c0.292,0.073,0.567,0.147,0.765,0.2l-0.767,1.042v1.564c-3.846,1.754-4.36,2.119-4.36,3.19c0,0.499,0.173,1.086,0.58,1.963
		l0.05,0.097c0.01,0.022,0.108,0.244,0.289,1.062l0.22,0.996l1.828,0.295c-0.018,0.167-0.131,0.416-0.863,0.661l-0.788,0.265
		l-0.198,0.799c-0.157,0.632-0.233,1.166-0.233,1.631c0,0.557,0.151,1.105,0.478,1.677c0.324,0.521,0.516,0.894,0.629,1.15
		c-0.903,1.161-1.359,2.306-1.359,3.413c0,0.335,0.067,1.099,0.56,4.193l-0.31,3.605l0.062,1.526l-0.388,2.21l2.114,0.675
		l-0.551,0.205l-0.156,0.068c-0.324,0.164-1.078,0.679-1.078,1.909c0,0.074,0.019,0.301,0.093,0.673l0.026,0.111
		c0.021,0.075,0.071,0.305,0.071,0.824c0.041,3.846,0.083,6.367,0.127,7.491l0.025,0.643l0.488,0.426
		c0.799,0.696,0.873,1.037,0.876,1.038c0,0.126-0.185,0.506-0.883,1.056l-0.354,0.28l-0.465,1.402l3.021,3.617l-2.835,2.913
		l0.156,0.769c0.587,2.901,0.658,3.472,0.666,3.526c0,0.241-0.02,0.5-0.057,0.815c-0.09,0.94-0.134,1.611-0.134,2.051
		c0,0.702,0.282,1.317,0.838,1.842l-1.147,0.315l0.433,2.832l-0.41,11.293l2.339,1.088l-0.041,0.251
		c-1.249,0.474-2.707,1.726-2.707,4.983c0,0.842,0.101,1.669,0.302,2.477c0.152,0.585,0.22,0.933,0.247,1.128
		c-0.099,0.188-0.312,0.56-0.759,1.265l-0.102,0.189c-0.575,1.283-0.813,1.713-0.894,1.845c-0.231,0.213-0.806,0.656-2.22,1.484
		l-0.648,0.38l-0.275,2.397l-0.01,0.169c0,0.226,0.038,0.458,0.113,0.709c0.479,2.035,1.845,2.256,2.413,2.256
		c0.409,0,0.713-0.143,1.2-0.39c3.201-1.449,4.257-1.758,4.535-1.823c0.025,0.008,0.05,0.016,0.073,0.024
		c1.841,0.651,3.223,0.991,4.221,1.041c1.657,0.086,2.203,0.123,2.382,0.138c0.493,0.133,2.749,0.749,6.772,1.848l0.766,0.209
		l1.925-1.591l0.766,0.885c0.885,0.957,2.133,1.442,3.708,1.442c0.457,0,1.334-0.093,4.358-0.782l1.11-0.117l1.793-0.548
		c1.922-0.484,4.547-1.431,7.896-2.855c0.449-0.227,1.215-0.73,3.093-2.567l2.36-2.058l1.779-1.613
		c1.508-0.888,2.523-1.706,3.083-2.475c1.751-2.301,2.369-3.092,2.57-3.335c0.883-0.891,1.273-1.326,1.273-2.045l-0.06-4.162
		c0.01-0.014,0.021-0.03,0.034-0.048h1.254l1.91-3.03c0.768-1.29,1.157-2.724,1.157-4.264c0-2.504-0.128-3.234-0.292-3.725
		C663.868,111.91,663.284,109.767,663.089,107.995 M622.569,139.466l-0.135,0.019c-0.155-0.147-0.378-0.382-0.68-0.752l-0.96-1.172
		l-2.657,2.152c0.366-0.537,0.494-0.918,0.534-1.273l0.009-4.048l-0.378-3.687c0.011-0.19,0.068-0.811,0.361-2.781l0.058-0.388
		l-0.974-2.521l-0.24-1.386c-0.127-0.577-0.223-1.008-0.282-1.294c1.152-2.233,1.392-3.088,1.392-3.671
		c0-0.59-0.186-1.511-1.538-3.856l-0.715-3.273l-1.976-2.632c-0.087-0.113-0.131-0.299-0.131-0.555c0-0.637,0.622-1.252,1.798-1.805
		c0.841-0.357,1.438-0.626,1.834-0.826c1.725-0.929,3.067-1.558,3.995-1.87l0.189-0.064l0.165-0.109
		c1.275-0.844,1.822-1.19,2.055-1.332c0.254-0.032,0.805-0.093,1.986-0.205l1.209-0.244c0.144,0.037,0.303,0.06,0.479,0.06
		l0.372-0.046c0.015-0.004,0.028-0.007,0.037-0.01c2.347,0.419,4.102,0.665,5.376,0.753c2.604,0.155,3.602,0.252,3.932,0.298
		c0.958,0.169,2.075,0.262,3.322,0.276l1.269,0.614l3.251,1.228l3.352,1.777l1.348,0.777c1.271,0.704,1.833,1.029,2.08,1.178
		c0.165,0.207,0.584,0.781,1.54,2.313l0.257,0.412l0.452,0.185c1.024,0.42,1.536,0.647,1.769,0.753
		c0.009,0.066,0.015,0.161,0.016,0.295c0.127,2.421,0.226,2.892,0.319,3.171l0.489,1.548l-4.779,2.194l0.276,2.413
		c-0.046,0.127-0.11,0.297-0.191,0.509l-0.068,0.24c-0.038,0.19-0.101,0.612-0.271,2.272c-0.139,1.122-0.611,2.3-1.39,3.476
		c-0.755,1.095-1.198,1.906-1.388,2.54c-0.298,0.782-0.45,1.158-0.524,1.335l-1.475,1.544l-0.07,0.078
		c-1.913,2.305-2.388,2.713-2.423,2.744l-0.105,0.073c-1.205,0.909-2.751,1.665-4.562,2.236l-4.816,1.396l-3.896-0.121l-3.302,0.262
		c-0.014-0.001-0.327-0.011-1.214-0.479c-1.219-0.614-1.967-0.864-2.584-0.864C623.828,139.323,623.24,139.37,622.569,139.466"/>
	<path clip-path="url(#SVGID_2_)" fill="#9CCB3C" d="M721.719,123.182l-0.436-2.04c-0.133-0.779-0.597-1.643-1.502-2.77
		c-1.031-1.173-2.813-2.341-5.441-3.569l-2.674-1.848l-2.558,0.283c-2.54-0.797-3.069-0.865-3.419-0.865
		c-0.157,0-0.354,0-3.104,0.372l-2.078-0.194l-0.208,0.037c-2.765,0.486-3.314,0.544-3.375,0.549c-0.611,0-1.383-0.06-2.295-0.178
		l-0.888-0.115l-0.54,0.698c-0.231,0.301-0.43,0.518-0.588,0.673c0.003-0.031,0.007-0.062,0.011-0.095l0.117-0.922l-0.794-0.513
		c-0.909-0.586-1.81-1.091-2.757-1.536c-1.281-0.517-1.724-0.731-1.862-0.804c-0.433-0.393-0.59-0.624-0.643-0.715
		c0.029-0.648,0.319-1.384,0.864-2.19c0.604-0.893,1.316-1.565,2.118-1.997c1.738-0.94,3.041-1.711,3.96-2.344
		c0.393,0.027,0.528,0.078,0.512,0.062l0.586,0.438l0.72-0.18c0.709-0.176,1.173-0.288,1.396-0.334
		c0.181,0.006,0.431,0.025,0.72,0.05c0.402,0.05,0.833,0.076,1.282,0.076c0.361,0,0.924-0.022,1.692-0.067l0.611-0.035l0.53-0.555
		c0.107,0.194,0.213,0.401,0.318,0.62l0.289,0.604l0.652,0.195c1.439,0.43,3.574,0.639,6.528,0.639c0.523,0,0.98-0.097,4.264-2.072
		c2.979-1.803,3.118-1.897,3.194-1.947l0.229-0.187c0.718-0.713,1.08-1.495,1.08-2.325c0-1.031-0.713-1.909-2.121-2.611
		c-0.401-0.2-1.063-0.411-4.245-0.605l-0.184-0.011l-3.178,0.547c-5.129-1.303-5.529-1.303-5.822-1.303
		c-2.229,0-5.04,0.705-8.594,2.155c-1.541,0.632-3.831,1.876-6.985,3.794l-3.007,1.782l-1.485,1.356
		c-2.706,2.275-3.48,3.164-3.797,3.593c-1.953,2.466-2.943,5.024-2.943,7.604c0,2.255,1.031,5.302,5.9,7
		c0.509,0.195,0.872,0.336,1.091,0.422c1.374,0.649,1.814,0.764,2.224,0.764c0.405,0,0.834-0.064,1.299-0.194l1.85,1.874
		l0.618-0.877l1.415,0.295c0.302,0.077,0.546,0.112,0.77,0.112c0.517,0,1.08-0.077,1.759-0.247c1.17-0.321,2.182-0.543,3.005-0.66
		l0.629-0.089l0.553-0.724c0.123,0.184,0.238,0.385,0.344,0.603l0.465,0.967l1.088-0.113c1.569-0.164,2.913-0.247,3.996-0.247
		c0.833,0,2.023,0.217,3.544,0.643l0.73,0.205l0.865-0.629c0.582,0.965,1.384,2.213,2.42,3.773c0.212,0.304,0.312,0.603,0.312,0.94
		c0,2.6-0.617,4.935-1.831,6.936c-1.603,2.624-2.47,3.509-2.771,3.752c-0.056,0.032-0.412,0.221-1.984,0.758l-2.729,1.311
		c-0.154,0.083-0.65,0.28-1.937,0.326c-1.261,0.043-2.682,0.284-4.231,0.717l-1.156-0.24l-2.361-0.033l-1.835-0.966l-2.34-0.953
		c-0.156-0.127-0.535-0.445-1.439-1.236c-0.54-0.439-0.984-0.756-1.37-0.976c-1.112-0.623-1.626-0.936-1.838-1.068l0.232-1.842
		l0.011-0.182c0-1.518-0.652-2.908-1.911-4.107c-0.415-0.413-0.964-0.641-1.545-0.641c-0.609,0-1.176,0.206-3.737,2.083l-1.81,1.656
		c-1.199,0.928-1.939,1.702-1.939,2.664c0,1.758,0.768,3.54,2.289,5.307c0.45,0.512,1.461,1.444,4.983,3.581l1.85,1.207
		c0.5,0.495,1.53,0.884,4.253,1.56c1.11,0.23,2.69,0.407,4.732,0.531l1.86,0.231l0.313-0.092c2.385-0.704,3.173-0.895,3.427-0.946
		c0.22,0.029,0.833,0.12,2.514,0.413l0.345,0.06l5.387-1.456c1.362-0.125,1.607-0.182,1.806-0.249
		c0.322-0.104,0.621-0.278,1.583-1.046c1.191-0.863,2.765-1.432,4.672-1.694l0.657-0.09l0.384-0.528
		c0.514-0.708,1.718-2.153,3.579-4.296c0.423-0.415,0.804-1.131,1.312-2.975c0.107,0.005,0.215,0.008,0.32,0.008
		c1.581,0,3.543-0.947,3.889-5.374c0.236-1.717,0.27-2.183,0.27-2.43C722.646,127.523,722.575,126.833,721.719,123.182"/>
	<path clip-path="url(#SVGID_2_)" fill="#9CCB3C" d="M928.722,157.605l-0.374-1.109l-0.182-0.206
		c-0.476-0.541-0.965-1.026-1.71-1.026l-4.639,0.647h-0.153c-1.104,0-2.486-0.165-4.109-0.489c-1.605-0.321-2.89-0.698-3.813-1.121
		l-0.873-0.399l-1.314,1.126c-0.569-0.268-1.179-0.502-1.822-0.698c-0.228-0.86-0.539-1.443-0.969-1.832
		c-0.2-0.188-0.782-0.587-7.496-4.632c-1.028-0.937-2.224-1.567-3.593-1.883c-1.204-0.239-2.234-0.521-3.063-0.836l-0.213-0.063
		c-0.256-0.056-0.465-0.105-0.633-0.148v-1.15l-0.946-0.376c-0.487-0.193-1.084-0.356-1.837-0.5
		c0.007-0.216,0.024-0.457,0.054-0.721l0.109-0.986l-2.868-1.61l-8.075-5.759c-2.366-1.741-4.182-3.321-5.397-4.697l-0.447-0.508
		h-1.33c-0.823-0.964-1.381-1.42-2.141-1.393L869.975,127l-1.661-1.144l-0.146-0.089c-0.689-0.366-1.275-0.716-1.753-1.047
		c0.146-0.418,0.217-0.81,0.217-1.184c0-1.355-0.977-2.705-3.104-4.269c-0.424-0.296-0.891-0.511-1.392-0.642
		c-0.507-0.807-1.198-1.626-2.075-2.464c-1.292-1.343-2.176-2.006-2.955-2.218l-0.101-0.024c-0.229-0.045-0.501-0.081-0.822-0.106
		c-0.136-1.489-0.907-3.031-2.334-4.685l-5.689-6.816c0.093-0.112,0.209-0.248,0.353-0.411l0.071-0.087
		c0.085-0.112,0.233-0.306,0.445-0.583l2.083-0.23l0.297-0.929c0.213-0.674,0.346-0.989,0.408-1.123
		c0.174-0.129,0.624-0.447,1.756-1.173l0.298-0.191l0.181-0.303c1.545-2.59,1.902-3.083,1.939-3.133
		c0.025-0.025,0.296-0.268,1.543-0.994l0.546-0.318l0.509-2.035c0.87-0.925,2.102-2.451,3.748-4.643l3.447-3.76l0.109-0.135
		c2.6-3.596,4.969-6.475,7.046-8.558c1.571-1.292,2.107-1.9,2.363-2.365c0.235-0.387,0.372-0.875,0.429-1.547
		c0.667-0.469,0.9-0.729,1.064-1.014c0.081-0.142,0.181-0.316,0.926-2.365l1.715-1.284l1.583-1.686
		c0.45-0.417,0.784-0.965,0.995-1.633c0.871-0.85,1.491-1.546,1.866-2.087c0.715-0.952,1.077-2.146,1.077-3.552v-1.005l-1.03-0.424
		l0.016-0.224l3.215,0.316l0.507-0.625c0.632-0.777,1.256-1.805,1.906-3.143c0.186-0.301,0.837-1.226,3.065-4.061l2.19-1.845
		l0.138-0.275c0.043-0.084,0.481-0.981,1.317-2.69c1.327-1.903,1.563-2.519,1.563-3.155v-0.4l-1.149-2.006h-0.869
		c-1.011,0-2.082,0.469-3.285,1.441c-0.575,0.473-0.835,0.559-0.803,0.564l-0.106,0.004c-0.784,0.06-1.342,0.165-1.763,0.492
		c-0.241,0.169-0.928,0.66-2.082,1.496l-1.384,1.068c-0.097,0.04-0.462,0.167-1.48,0.317l-0.68,0.1l-0.369,0.582
		c-0.523,0.827-1.265,2.046-2.229,3.665c-0.838,1.434-1.848,2.745-3.002,3.898l-0.149,0.15l-1.82,3.294l-1.112,1.64l-1.264,2.147
		c-0.633,0.982-1.076,1.859-1.341,2.652l-0.716,0.21l-0.291,0.347c-2.836,3.369-4.58,5.807-5.332,7.452l-0.137,0.362v0.781
		l0.431,0.646c-1.146,1.477-1.989,2.506-2.51,3.067c-0.959,0.872-1.812,1.795-2.523,2.73l-6.734,8.599l-0.994,2.148l-9.465,9.893
		l-1.214,1.45l-0.728,0.427c-0.793,0.466-2.421,1.591-5.005,3.463c-0.053,0.034-0.32,0.196-1.413,0.673v-0.538l-0.923-0.46
		c-0.031-1.064-0.111-2.429-0.241-4.135l0.13-3.31l-0.182-1.928l0.586-2.553l-0.242-0.482c-0.486-0.97-0.786-1.837-0.892-2.577
		l-0.077-0.536l-0.4-0.364c-0.673-0.61-0.862-0.97-0.913-1.118l1.339-1.225c0.628-0.521,0.84-1.187,0.905-5.913l0.132-2.809
		l-0.194-12.972c0-0.006,0.001-0.149,0.116-0.493l0.043-0.152c0.119-0.538,0.165-0.846,0.165-1.1c0-0.731-0.318-1.506-1.002-2.438
		l-0.889-1.212l-0.765,0.563V56.02l0.602,0.111l2.978-3.739l-0.1-0.649c-0.246-1.6-0.371-2.807-0.371-3.587
		c0-0.289,0.073-1.185,0.561-3.94l0.022-0.13l-0.003-3.275l0.133-2.287c0-0.733-0.285-1.461-0.847-2.165l-0.113-0.127
		c-0.627-0.624-1.419-0.954-2.289-0.954l-0.578,0.013c-0.195,0.024-0.364,0.041-0.506,0.048l-1.789-0.397l-0.582,0.581
		c-0.853,0.851-2.006,1.772-3.433,2.742l-0.533-0.133l-7.942,5.52l0.207,1.227c0.174,1.748,1.935,2.443,3.389,2.742
		c-0.063,0.489-0.094,0.902-0.094,1.247c0,1.175,0.48,2.315,1.43,3.4c-0.098,0.128-0.211,0.256-0.34,0.386l-0.544,0.54l0.12,0.757
		c0.251,1.583,0.465,3.818,0.63,6.613c0.122,3.045,0.309,4.043,0.438,4.53l0.323,1.208l0.195-0.016l-0.439,0.36v0.711
		c0,0.589,0.075,1.143,0.225,1.655c-0.153,0.299-0.289,0.621-0.402,0.966c-0.084,0.243-0.268,0.709-0.551,1.397l-0.305,0.739
		l0.443,0.665c0.398,0.597,0.669,1.151,0.808,1.648c0.044,0.404,0.106,1.477,0.106,4.308l0.19,2.112l-0.06,1.724
		c-0.048,1.693-0.28,2.574-0.467,3.015l-0.548,1.298l2.054,1.024c-0.011,0.016-0.022,0.033-0.034,0.05
		c-0.345,0.55-0.547,1.412-0.554,4.156l-0.201,1.14l0.135,2.505l-0.316,3.462l-0.006,0.136c0,2.041,0.223,4.782,0.661,8.146
		l0.091,0.697l-1.513,1.51l0.952,1.059c0.622,0.691,1.477,1.39,2.59,2.116l-2.629,2.867l-0.406,10.339
		c-0.015,0.116-0.123,0.727-0.939,3.776c-0.11,0.492-0.166,0.95-0.166,1.362c0,0.402,0.118,0.872,0.75,2.322l-0.104,1.176
		l0.064,6.212l-0.268,3.294l3.235,1.765l-3.747,1.938l0.267,3.608c-0.001,0.002-0.063,0.267-0.655,0.739l-2.391,1.859l5.931,3.234
		l-5.371,3.064l0.172,1.031l0.044,0.983c0,0.069-0.016,0.491-0.353,2.002l-0.283,1.275l1.223,0.456
		c0.868,0.324,1.612,0.482,2.274,0.482c0.702,0,1.505-0.319,3.466-1.899c0.445-0.322,1.387-0.837,3.342-1.471l1.405-0.456
		l-0.373-1.214c0.466-0.218,1.021-0.325,1.678-0.325h1.015l0.378-0.942c0.213-0.529,0.794-1.077,1.682-1.582l0.623-0.355
		l0.116-0.708c0.061-0.378,0.084-0.632,0.084-0.758c0-0.484-0.1-1.079-0.338-1.964c-0.202-0.604-0.192-0.825-0.193-0.825
		l0.012-0.185c0-1.262,0-3.693-1.392-4.363c0.488-0.805,0.746-1.48,0.803-2.092l0.011-0.112l-0.068-1.229
		c-0.063-2.506-0.256-3.332-0.416-3.771l-0.334-0.922c0.32-0.405,0.572-1.014,0.621-1.927c0-4.388,0.202-7.443,0.604-9.082
		l0.189-0.772l-0.533-0.589c-0.307-0.34-0.688-0.615-1.144-0.822c0.033-0.118,0.064-0.233,0.096-0.347
		c0.044-0.06,0.145-0.184,0.348-0.387c0.542-0.541,0.828-1.221,0.827-2.013l-0.064-2.021v-2.392l-0.008-0.154
		c-0.339-3.27-0.379-3.923-0.381-4.048c0-0.282,0.018-0.563,0.05-0.815c0.246-1.668,0.274-2.252,0.274-2.546v-1.736
		c0.032,0.026,0.063,0.053,0.095,0.081c2.353,2.35,3.202,2.888,3.74,3.111c0.417,0.167,0.929,0.275,1.571,0.327
		c0.244,0.617,0.478,1.108,0.718,1.506c0.169,0.254,0.517,0.686,1.75,1.913l2.719,3.038l0.177,0.167
		c1.084,0.875,1.95,1.612,2.573,2.193l0.503,0.468l0.683-0.074c0.291-0.032,0.538-0.052,0.742-0.056
		c0.108,0.024,0.438,0.113,1.283,0.444c-0.171,0.541-0.329,1.114-0.474,1.713l-0.259,1.072l0.946,0.566
		c2.33,1.396,4.331,2.663,5.948,3.767l0.289,0.153c0.766,0.307,1.106,0.596,1.25,0.757c0.136,0.183,0.416,0.497,1.333,1.41
		l2.979,3.103l0.178,0.158c3.019,2.283,4.896,3.705,5.646,4.276c3.422,2.531,4.63,2.88,5.425,2.88l1.752-0.219
		c0.024,0.017,0.054,0.037,0.085,0.061c0.217,0.157,0.255,0.251,0.262,0.282c0.433,1.917,0.627,2.447,0.813,2.811
		c1.521,2.639,3.456,2.608,4.239,2.266c1.586-0.512,2.105-0.642,2.259-0.674c0.609,0.015,0.915,0.194,1.07,0.334
		c-0.009,0.307-0.063,0.692-0.161,1.146l-0.25,1.163l1.075,0.509c0.663,0.313,1.394,0.867,2.174,1.645l0.172,0.172l1.006,0.501
		l1.214,1.323c0.31,0.363,0.865,0.745,2.569,1.535l0.186,0.086l0.107,0.018c0.146,0.062,0.645,0.303,2.105,1.188
		c1.418,0.829,2.415,1.292,3.056,1.437c0.614,0.18,1.441,0.568,2.459,1.154l0.103,0.054c2.512,1.197,3.052,1.558,3.156,1.64
		l0.111,0.079c0.549,0.352,1.437,1.034,2.639,2.027l0.508,0.42l2.377-0.329c0.537,0.383,0.806,0.51,1.065,0.585
		c0.151,0.042,0.356,0.1,2.243,0.3l1.952,0.266l0.453-0.276c1.383-0.839,1.728-1.023,1.8-1.059l0.037-0.015
		c0.038-0.016,0.426-0.158,1.955-0.263l0.678-0.046l1.117-1.463C926.847,162.359,929.084,160.386,928.722,157.605"/>
	<path clip-path="url(#SVGID_2_)" fill="#9CCB3C" d="M998.197,85.284l0.046-0.273l-0.323-1.608
		c-0.214-2.488-0.802-4.601-1.748-6.283l-0.101-0.154c-0.332-0.449-0.561-0.763-0.663-0.905c-0.044-0.156-0.098-0.303-0.159-0.44
		c-0.271-2.167-0.396-2.548-0.541-2.84l-0.145-0.233c-0.262-0.35-0.845-0.966-3.167-2.884l-2.653-1.594l-1.737-1.808l-6.127-1.415
		l-1.209-0.571l-2.541-0.715l-1.979-0.717l-0.476,0.144c-1.888,0.571-2.311,0.643-2.277,0.647c-0.462,0-1.019-0.044-1.655-0.129
		l-0.676-0.091l-0.514,0.451c-0.738,0.648-1.791,1.383-3.132,2.184l-2.13,1.6l-2.133,1.234c-3.251,1.885-5.45,3.315-6.722,4.369
		c-3.913,2.746-4.064,2.897-4.211,3.043l-0.112,0.125c-0.14,0.175-0.442,0.586-1.449,2.118l-2.309,1.84l-1.178,1.099l-1.225,0.712
		l-0.64,2.151l-1.614,1.733l-1.262,2.242c-1.831,2.775-1.945,3.06-2.029,3.268l-0.087,0.31c-0.037,0.223-0.121,0.896-0.439,4.145
		l-0.242,2.322l1.48,5.97l0.712,3.265c0.204,0.95,0.945,2.121,2.406,3.801l0.952,1.08c1.077,1.359,1.92,2.116,2.714,2.434
		c0.325,0.157,0.947,0.414,2.625,0.972l0.301,0.076h0.243l1.174-0.223l0.576,1.005l0.507,0.189c1.953,0.73,2.942,0.905,3.777,0.592
		c0.772-0.192,1.168-0.284,1.368-0.328c0.236,0.067,0.785,0.236,2.011,0.67l0.316,0.111l1.672-0.166
		c5.134,0.076,9.757-1.325,13.765-4.171c1.087-0.741,2.207-2.049,3.423-4l0.772-1.237l-1.215-0.806
		c-0.909-0.603-1.897-0.948-2.939-1.024l-2.398-0.398l-0.546,0.544c-0.56,0.558-0.802,0.667-0.799,0.667h0.001
		c-0.037,0.01-0.396,0.103-1.778,0.103c-0.082,0-0.579-0.028-2.34-0.573l-0.229-0.071l-4.565,0.075c-1.683,0-2.278-0.688-2.61-1.287
		l-0.444-0.804l-0.918,0.031c-0.575,0.018-0.925,0.005-1.126-0.012c-0.642-0.629-1.338-1.221-2.064-1.753
		c-0.102-0.077-0.551-0.459-2.042-2.192l-0.187-0.182c-0.751-0.616-0.99-0.89-1.03-0.931c-0.556-1.343-1.06-2.334-1.549-3.041
		c-1.282-1.809-1.305-2.415-1.308-2.415l0.224-2.778l0.005-0.194c0-0.512-0.145-1.012-0.431-1.486l-0.058-0.088
		c-0.046-0.065-0.096-0.156-0.143-0.282l1.358-0.79l0.154-0.614c0.531-2.122,1.062-3.16,1.411-3.657
		c0.375-0.532,1.316-1.587,3.722-3.641c1.712-1.598,2.685-2.273,3.152-2.534c1.618-0.825,2.886-1.46,3.779-1.891l0.163,0.489
		l1.35-1.35c0.739,0.041,1.459-0.227,2.32-0.785c0.24,0.07,0.585,0.213,1.055,0.498l1.005,0.612l0.879-0.876
		c0.672,0.322,1.491,0.628,2.477,0.922c0.155,0.044,0.579,0.188,1.688,0.652l0.67,0.281l1.789-0.991
		c0.37,0.27,0.47,0.427,0.472,0.403c-0.001,0.273-0.039,0.601-0.114,0.975l-0.189,0.944l0.779,0.565
		c1.053,0.763,1.986,1.43,2.774,1.984c0.716,0.526,1.222,1.096,1.508,1.659c1.359,3.154,1.529,3.38,1.704,3.612
		c0.229,0.287,0.568,0.562,1.097,0.876c-0.189,1.307-0.284,2.278-0.284,2.95c0,1.078,0.139,2.122,0.427,3.153
		c0.309,0.977,0.353,1.291,0.358,1.291c0.001,0,0.001-0.001,0.001-0.002c-0.002,0.016-0.021,0.19-0.162,0.706l-0.031,0.147
		c-0.048,0.278-0.258,1.301-0.642,3.124c-0.032,0.189-0.16,0.606-0.658,1.283l-0.471,0.64l0.266,0.75
		c0.317,0.892,0.343,1.255,0.343,1.345c0,1.029-0.359,2.054-1.112,3.16c-1.166,1.785-1.313,2.076-1.313,2.536l-0.062,1.529
		l-0.785,2.025c-0.522,1.525-1.042,2.676-1.54,3.421l-0.646,0.965l0.772,0.867c0.073,0.081,0.124,0.146,0.159,0.194
		c-0.063,0.195-0.256,0.618-0.838,1.335c-2.688,3.253-3.209,3.929-3.372,4.172c-0.488,0.73-0.896,1.667-1.238,2.849
		c-0.843,0.444-1.476,0.882-1.925,1.33c-0.196,0.195-0.382,0.38-1.703,3.008l-1.246,1.503l-2.113,3.182l-1.539,1.811
		c-0.375,0.468-1.104,1.332-2.182,2.595l-0.076,0.097c-0.296,0.41-0.527,0.942-0.702,1.617l-2.901,2.45l-0.093,0.085
		c-0.328,0.328-0.486,0.739-0.605,1.412c-0.653,0.393-1.159,0.73-1.535,1.021l-0.142,0.125c-0.128,0.128-0.301,0.301-1.576,2.133
		l-3.02,2.804l-1.733,2.629c-0.022,0.027-0.217,0.248-1.033,0.785l-1.62-0.34l-0.578,0.67c-3.525,4.09-6.854,6.51-9.941,7.205
		c-0.862,0.225-1.537,0.537-2.039,0.946h-1.577c-1.646,0-2.712,1.147-2.712,2.922c0,1.087,0.557,1.665,0.883,1.909
		c0.153,0.115,0.474,0.334,1.717,1.126c0.676,0.886,1.264,1.317,1.935,1.429l0.244,0.02c0.09,0.001,0.483,0.022,2.196,0.206
		l0.295,0.031l1.939-0.566c0.977-0.244,2.209-0.932,3.817-2.124c0.278-0.184,0.832-0.528,1.664-1.034l0.57-0.347l0.155-0.828
		c1.055-0.264,1.802-0.547,2.276-0.85c0.502-0.272,1.29-0.861,3.325-3.159c0.775-0.864,1.372-1.877,1.78-3.023
		c0.998-0.298,1.756-0.711,2.304-1.256c0.059-0.059,0.238-0.238,3.03-3.234l1.26-1.946l2.83-2.397l1.776-2.58l2.866-3.275
		l0.937-1.637l5.333-5.239l0.079-2.319c0.084-0.128,0.229-0.336,0.467-0.662c0.114-0.141,0.288-0.381,0.595-0.912l1.281,0.128
		l0.507-0.674c5.132-6.818,6.136-8.742,6.379-9.657c0.215-0.672,0.334-1.023,0.398-1.203l0.207-0.212
		c0.153-0.08,0.374-0.188,0.687-0.323l0.701-0.302l0.167-0.745c0.34-1.503,0.561-2.124,0.66-2.356l1.692-2.544
		c0.186-0.277,0.304-0.455,0.692-2.811c0.894-0.588,1.433-1.252,1.635-1.991c0.094-0.309,0.227-0.576,0.418-0.831
		c0.452-0.62,0.949-1.614,1.56-3.121l1.717-2.809l0.75-1.911c0.253-0.557,0.417-1.149,0.492-1.766l2.696-1.952l-1.438-1.017
		c0.101-0.468,0.262-1.219,0.525-2.424c0.079-0.27,0.119-0.566,0.119-0.881c0-0.249-0.032-0.509-0.099-0.793
		c-0.225-1.396-0.258-1.927-0.258-2.12c0-0.692,0.146-1.288,0.466-1.853C997.982,86.144,998.138,85.637,998.197,85.284"/>
	<path clip-path="url(#SVGID_2_)" fill="#9CCB3C" d="M394.612,248.577c0,6.331-0.827,11.745-2.48,16.244
		c-1.655,4.5-4.028,8.171-7.122,11.017c-3.095,2.846-6.856,4.935-11.284,6.268c-4.428,1.334-9.7,2.001-15.817,2.001h-16.485
		c-1.173,0-2.16-0.347-2.96-1.04c-0.8-0.693-1.2-1.822-1.2-3.388v-60.176c0-1.564,0.4-2.694,1.2-3.388
		c0.8-0.693,1.787-1.04,2.96-1.04h17.711c6.153,0,11.372,0.721,15.658,2.16c4.286,1.44,7.896,3.574,10.83,6.402
		c2.934,2.827,5.166,6.321,6.695,10.482C393.846,238.281,394.612,243.101,394.612,248.577 M380.101,249.058
		c0-3.272-0.382-6.313-1.146-9.123c-0.766-2.809-1.993-5.245-3.681-7.308c-1.69-2.063-3.86-3.672-6.509-4.828
		c-2.65-1.156-6.127-1.734-10.429-1.734h-7.095v46.946h7.309c3.84,0,7.076-0.498,9.708-1.494c2.632-0.995,4.828-2.498,6.589-4.508
		c1.76-2.009,3.075-4.508,3.947-7.495C379.665,256.525,380.101,253.041,380.101,249.058"/>
	<path clip-path="url(#SVGID_2_)" fill="#9CCB3C" d="M468.231,248.79c0,5.728-0.712,10.849-2.134,15.364
		c-1.423,4.518-3.539,8.349-6.349,11.497c-2.81,3.147-6.286,5.548-10.429,7.202c-4.143,1.653-8.936,2.479-14.377,2.479
		c-5.371,0-10.056-0.701-14.058-2.106c-4-1.405-7.335-3.548-10.002-6.428c-2.667-2.882-4.668-6.544-6.001-10.99
		c-1.334-4.445-2.001-9.709-2.001-15.791c0-5.583,0.711-10.607,2.134-15.07c1.422-4.463,3.539-8.26,6.349-11.39
		c2.808-3.129,6.285-5.53,10.429-7.202c4.143-1.671,8.953-2.507,14.43-2.507c5.228,0,9.843,0.692,13.844,2.08
		c4,1.387,7.343,3.521,10.029,6.401c2.685,2.881,4.712,6.519,6.082,10.909C467.546,237.633,468.231,242.815,468.231,248.79
		 M453.508,249.537c0-3.627-0.285-6.926-0.853-9.896c-0.571-2.969-1.54-5.512-2.909-7.629c-1.369-2.115-3.192-3.751-5.468-4.907
		c-2.276-1.156-5.121-1.734-8.535-1.734c-3.45,0-6.331,0.649-8.642,1.947c-2.313,1.299-4.18,3.032-5.602,5.201
		c-1.423,2.17-2.427,4.704-3.013,7.602c-0.587,2.899-0.881,5.968-0.881,9.203c0,3.771,0.284,7.157,0.854,10.162
		c0.568,3.006,1.528,5.575,2.881,7.709c1.35,2.134,3.164,3.761,5.44,4.882c2.276,1.12,5.139,1.681,8.59,1.681
		c3.449,0,6.329-0.641,8.642-1.922c2.311-1.279,4.178-3.021,5.602-5.228c1.421-2.204,2.427-4.774,3.013-7.709
		C453.214,255.966,453.508,252.846,453.508,249.537"/>
	<path clip-path="url(#SVGID_2_)" fill="#9CCB3C" d="M535.396,225.798c0,1.032-0.045,1.921-0.134,2.667
		c-0.088,0.747-0.213,1.343-0.372,1.788c-0.161,0.445-0.356,0.756-0.587,0.933c-0.232,0.18-0.508,0.268-0.827,0.268
		c-0.463,0-1.21-0.32-2.241-0.96c-1.032-0.642-2.4-1.334-4.107-2.081s-3.743-1.441-6.109-2.081c-2.365-0.641-5.112-0.96-8.241-0.96
		c-3.344,0-6.367,0.579-9.07,1.733c-2.702,1.156-5.014,2.792-6.935,4.908c-1.92,2.116-3.397,4.66-4.427,7.629
		c-1.032,2.971-1.547,6.25-1.547,9.843c0,3.947,0.524,7.425,1.574,10.43c1.048,3.006,2.515,5.521,4.4,7.548
		c1.885,2.027,4.152,3.557,6.803,4.588c2.648,1.032,5.574,1.547,8.775,1.547c1.564,0,3.112-0.177,4.642-0.533
		c1.528-0.354,2.951-0.889,4.267-1.6v-16.005h-13.071c-0.64,0-1.138-0.4-1.493-1.2c-0.356-0.8-0.534-2.161-0.534-4.081
		c0-0.995,0.044-1.832,0.134-2.508c0.088-0.675,0.222-1.217,0.4-1.627c0.178-0.408,0.391-0.71,0.64-0.907
		c0.249-0.195,0.534-0.293,0.853-0.293h23.314c0.567,0,1.074,0.098,1.52,0.293c0.444,0.197,0.835,0.49,1.174,0.881
		c0.338,0.393,0.596,0.863,0.773,1.414s0.267,1.183,0.267,1.894v27.474c0,1.067-0.187,2.001-0.56,2.801s-1.139,1.433-2.294,1.895
		c-1.157,0.462-2.587,0.941-4.295,1.439c-1.706,0.498-3.477,0.925-5.309,1.28c-1.832,0.355-3.681,0.622-5.548,0.801
		c-1.867,0.177-3.743,0.268-5.628,0.268c-5.514,0-10.448-0.792-14.804-2.375c-4.357-1.582-8.047-3.876-11.069-6.882
		c-3.024-3.005-5.335-6.669-6.936-10.989c-1.6-4.321-2.4-9.221-2.4-14.697c0-5.655,0.853-10.731,2.561-15.231
		c1.706-4.497,4.125-8.321,7.254-11.469c3.13-3.147,6.909-5.557,11.337-7.229c4.428-1.671,9.362-2.508,14.804-2.508
		c2.987,0,5.708,0.204,8.162,0.613s4.596,0.907,6.429,1.494c1.831,0.587,3.352,1.218,4.562,1.894
		c1.208,0.677,2.054,1.263,2.532,1.761c0.481,0.499,0.827,1.2,1.04,2.106C535.29,222.677,535.396,224.02,535.396,225.798"/>
	<path clip-path="url(#SVGID_2_)" fill="#9CCB3C" d="M619.5,263.408c0,3.627-0.676,6.811-2.026,9.549
		c-1.353,2.739-3.185,5.024-5.495,6.855c-2.313,1.832-5.015,3.21-8.109,4.134c-3.094,0.925-6.4,1.388-9.923,1.388
		c-2.383,0-4.596-0.196-6.641-0.587c-2.046-0.392-3.851-0.862-5.415-1.414c-1.565-0.551-2.872-1.129-3.921-1.734
		c-1.049-0.604-1.806-1.137-2.268-1.6c-0.463-0.462-0.792-1.129-0.986-2.001c-0.196-0.871-0.293-2.124-0.293-3.761
		c0-1.103,0.033-2.027,0.105-2.774c0.071-0.747,0.188-1.351,0.347-1.813c0.16-0.461,0.374-0.79,0.641-0.987
		c0.267-0.195,0.577-0.293,0.933-0.293c0.499,0,1.201,0.293,2.108,0.88s2.072,1.237,3.494,1.947c1.422,0.712,3.121,1.36,5.095,1.948
		c1.974,0.587,4.259,0.88,6.854,0.88c1.707,0,3.236-0.205,4.589-0.614c1.351-0.408,2.498-0.987,3.44-1.733
		c0.941-0.747,1.662-1.672,2.161-2.773c0.497-1.103,0.746-2.329,0.746-3.683c0-1.563-0.427-2.906-1.28-4.026
		s-1.966-2.116-3.334-2.988c-1.37-0.871-2.926-1.688-4.668-2.454c-1.743-0.764-3.539-1.573-5.389-2.427s-3.646-1.822-5.387-2.907
		c-1.743-1.085-3.301-2.382-4.668-3.894c-1.37-1.513-2.481-3.299-3.334-5.362c-0.855-2.062-1.281-4.535-1.281-7.415
		c0-3.308,0.612-6.215,1.84-8.723c1.227-2.507,2.881-4.588,4.962-6.241c2.081-1.654,4.534-2.889,7.362-3.708
		c2.827-0.818,5.822-1.228,8.988-1.228c1.637,0,3.272,0.125,4.908,0.373c1.637,0.25,3.164,0.587,4.588,1.015
		c1.422,0.427,2.686,0.907,3.787,1.439c1.103,0.534,1.832,0.979,2.188,1.334c0.354,0.356,0.594,0.659,0.72,0.907
		c0.124,0.249,0.23,0.578,0.32,0.987c0.088,0.409,0.15,0.925,0.187,1.547c0.035,0.623,0.053,1.396,0.053,2.321
		c0,1.03-0.026,1.902-0.079,2.613c-0.054,0.712-0.144,1.3-0.267,1.761c-0.126,0.463-0.303,0.8-0.534,1.014
		c-0.231,0.213-0.543,0.32-0.934,0.32c-0.393,0-1.014-0.248-1.867-0.747c-0.854-0.498-1.903-1.04-3.146-1.627
		c-1.246-0.587-2.687-1.12-4.321-1.602c-1.637-0.479-3.433-0.72-5.389-0.72c-1.53,0-2.863,0.187-4.001,0.561
		c-1.14,0.373-2.09,0.89-2.854,1.548c-0.765,0.657-1.333,1.448-1.707,2.372c-0.374,0.927-0.56,1.903-0.56,2.936
		c0,1.529,0.417,2.854,1.253,3.974s1.956,2.116,3.36,2.987c1.405,0.872,2.996,1.69,4.775,2.454c1.778,0.766,3.592,1.574,5.441,2.428
		s3.663,1.823,5.441,2.907c1.778,1.086,3.36,2.383,4.748,3.894c1.387,1.513,2.508,3.291,3.361,5.335
		C619.073,258.226,619.5,260.634,619.5,263.408"/>
	<path clip-path="url(#SVGID_2_)" fill="#9CCB3C" d="M680.638,282.026c0,0.392-0.099,0.738-0.294,1.04
		c-0.196,0.302-0.569,0.552-1.12,0.747c-0.553,0.196-1.308,0.347-2.268,0.454c-0.96,0.105-2.17,0.159-3.628,0.159
		c-2.312,0-3.975-0.09-4.988-0.267c-1.014-0.178-1.742-0.444-2.187-0.8c-0.445-0.356-0.792-0.782-1.041-1.281l-20.858-32.755v32.755
		c0,0.393-0.106,0.73-0.32,1.015c-0.213,0.284-0.587,0.524-1.119,0.72c-0.534,0.196-1.246,0.347-2.135,0.454
		c-0.89,0.105-2.027,0.159-3.413,0.159c-1.354,0-2.482-0.054-3.389-0.159c-0.907-0.107-1.627-0.258-2.161-0.454
		c-0.532-0.195-0.915-0.436-1.146-0.72c-0.232-0.284-0.347-0.622-0.347-1.015v-65.03c0-0.391,0.114-0.729,0.347-1.014
		c0.231-0.284,0.614-0.515,1.146-0.694c0.534-0.177,1.254-0.319,2.161-0.426c0.906-0.106,2.035-0.161,3.389-0.161
		c1.386,0,2.523,0.055,3.413,0.161c0.889,0.106,1.601,0.249,2.135,0.426c0.532,0.18,0.906,0.41,1.119,0.694
		c0.214,0.285,0.32,0.623,0.32,1.014v29.395l20.219-29.341c0.249-0.462,0.552-0.844,0.907-1.147c0.354-0.302,0.817-0.542,1.388-0.72
		c0.567-0.178,1.298-0.302,2.186-0.374c0.889-0.071,2.028-0.107,3.415-0.107c1.421,0,2.595,0.055,3.521,0.161
		s1.662,0.258,2.214,0.453c0.552,0.196,0.934,0.437,1.147,0.721c0.213,0.284,0.319,0.605,0.319,0.96
		c0,0.605-0.159,1.228-0.479,1.867c-0.319,0.641-0.926,1.654-1.813,3.04l-18.939,24.808l20.646,31.209
		c0.782,1.458,1.254,2.427,1.414,2.906C680.557,281.359,680.638,281.741,680.638,282.026"/>
	<path clip-path="url(#SVGID_2_)" fill="#9CCB3C" d="M704.056,282.187c0,0.355-0.116,0.676-0.347,0.961
		c-0.231,0.283-0.614,0.515-1.146,0.692c-0.534,0.179-1.246,0.32-2.135,0.428c-0.889,0.105-2.027,0.159-3.413,0.159
		c-1.353,0-2.481-0.054-3.388-0.159c-0.908-0.107-1.627-0.249-2.161-0.428c-0.533-0.178-0.915-0.409-1.147-0.692
		c-0.231-0.285-0.347-0.605-0.347-0.961v-65.191c0-0.355,0.115-0.675,0.347-0.96c0.232-0.284,0.622-0.515,1.174-0.693
		c0.552-0.178,1.271-0.319,2.16-0.427c0.89-0.107,2.01-0.16,3.362-0.16c1.386,0,2.524,0.053,3.413,0.16s1.601,0.249,2.135,0.427
		c0.532,0.179,0.915,0.409,1.146,0.693c0.23,0.285,0.347,0.604,0.347,0.96V282.187z"/>
	<path clip-path="url(#SVGID_2_)" fill="#9CCB3C" d="M776.021,279.199c0,0.817-0.143,1.547-0.427,2.187
		c-0.285,0.641-0.667,1.174-1.147,1.601c-0.479,0.427-1.05,0.738-1.706,0.934c-0.658,0.195-1.326,0.294-2,0.294h-5.977
		c-1.245,0-2.32-0.125-3.228-0.374c-0.906-0.248-1.742-0.702-2.508-1.36c-0.765-0.657-1.502-1.547-2.214-2.668
		c-0.711-1.12-1.512-2.567-2.4-4.347l-17.178-32.276c-0.995-1.92-2.01-3.991-3.04-6.215c-1.031-2.222-1.956-4.382-2.773-6.48h-0.107
		c0.142,2.56,0.248,5.111,0.32,7.654c0.071,2.543,0.106,5.166,0.106,7.869v36.116c0,0.356-0.099,0.676-0.293,0.96
		c-0.196,0.285-0.534,0.525-1.014,0.72c-0.48,0.197-1.13,0.348-1.948,0.454c-0.817,0.107-1.866,0.16-3.146,0.16
		c-1.246,0-2.277-0.053-3.095-0.16c-0.818-0.106-1.458-0.257-1.92-0.454c-0.464-0.194-0.783-0.435-0.961-0.72
		c-0.178-0.284-0.267-0.604-0.267-0.96V220.09c0-1.671,0.489-2.925,1.467-3.761c0.979-0.835,2.18-1.254,3.602-1.254h7.521
		c1.352,0,2.488,0.115,3.415,0.347c0.924,0.231,1.751,0.614,2.48,1.146c0.729,0.534,1.414,1.272,2.054,2.215
		s1.298,2.106,1.974,3.493l13.443,25.233c0.782,1.53,1.556,3.033,2.321,4.509c0.765,1.477,1.502,2.952,2.214,4.428
		c0.711,1.476,1.405,2.926,2.08,4.348c0.676,1.423,1.334,2.846,1.974,4.268h0.053c-0.105-2.488-0.186-5.086-0.239-7.789
		c-0.054-2.701-0.079-5.28-0.079-7.734v-32.382c0-0.355,0.105-0.676,0.318-0.96c0.215-0.285,0.569-0.534,1.067-0.747
		c0.499-0.215,1.155-0.365,1.974-0.454c0.818-0.088,1.867-0.134,3.148-0.134c1.208,0,2.222,0.046,3.04,0.134
		c0.818,0.089,1.449,0.239,1.896,0.454c0.443,0.213,0.755,0.462,0.933,0.747c0.178,0.284,0.267,0.604,0.267,0.96V279.199z"/>
	<path clip-path="url(#SVGID_2_)" fill="#9CCB3C" d="M864.269,273.65c0,0.89-0.028,1.646-0.081,2.268
		c-0.053,0.622-0.132,1.155-0.24,1.601c-0.107,0.445-0.249,0.827-0.426,1.146c-0.179,0.32-0.463,0.686-0.854,1.094
		c-0.392,0.409-1.146,0.934-2.267,1.573c-1.12,0.641-2.49,1.254-4.108,1.842c-1.618,0.587-3.468,1.074-5.548,1.467
		c-2.08,0.391-4.33,0.587-6.748,0.587c-4.73,0-8.999-0.73-12.804-2.188c-3.806-1.458-7.042-3.637-9.709-6.535
		c-2.668-2.898-4.713-6.518-6.135-10.856c-1.423-4.338-2.134-9.389-2.134-15.151c0-5.867,0.781-11.078,2.347-15.631
		c1.564-4.551,3.752-8.375,6.562-11.469s6.181-5.442,10.109-7.042c3.93-1.601,8.26-2.4,12.991-2.4c1.92,0,3.769,0.159,5.547,0.479
		s3.424,0.739,4.936,1.254c1.512,0.516,2.871,1.112,4.081,1.787c1.208,0.676,2.055,1.254,2.533,1.733
		c0.48,0.48,0.809,0.881,0.987,1.2c0.177,0.32,0.319,0.73,0.427,1.228c0.105,0.499,0.187,1.086,0.24,1.761
		c0.053,0.676,0.081,1.512,0.081,2.507c0,1.067-0.037,1.974-0.108,2.721s-0.195,1.353-0.373,1.814s-0.391,0.8-0.64,1.014
		c-0.249,0.213-0.534,0.32-0.854,0.32c-0.533,0-1.209-0.313-2.026-0.934c-0.819-0.622-1.877-1.315-3.175-2.081
		c-1.299-0.765-2.846-1.458-4.642-2.08s-3.938-0.935-6.428-0.935c-2.739,0-5.185,0.561-7.335,1.682
		c-2.152,1.119-3.983,2.72-5.495,4.801s-2.659,4.597-3.441,7.548c-0.782,2.953-1.173,6.278-1.173,9.976
		c0,4.056,0.417,7.568,1.253,10.537c0.836,2.971,2.027,5.414,3.575,7.335c1.546,1.92,3.414,3.353,5.601,4.294
		c2.188,0.943,4.65,1.414,7.39,1.414c2.487,0,4.641-0.293,6.454-0.88s3.37-1.235,4.668-1.948c1.298-0.71,2.365-1.35,3.2-1.92
		c0.837-0.567,1.485-0.853,1.948-0.853c0.355,0,0.641,0.071,0.854,0.213c0.214,0.142,0.391,0.427,0.532,0.854
		c0.144,0.426,0.25,1.021,0.321,1.786C864.232,271.349,864.269,272.37,864.269,273.65"/>
	<path clip-path="url(#SVGID_2_)" fill="#9CCB3C" d="M930.9,278.879c0.426,1.28,0.692,2.294,0.8,3.041
		c0.106,0.746-0.036,1.306-0.427,1.68c-0.393,0.374-1.085,0.604-2.081,0.694c-0.996,0.088-2.365,0.133-4.108,0.133
		c-1.813,0-3.227-0.027-4.241-0.08c-1.014-0.053-1.786-0.16-2.319-0.32c-0.534-0.159-0.907-0.382-1.12-0.667
		c-0.214-0.284-0.393-0.657-0.534-1.119l-4.641-13.871h-25.928l-4.375,13.497c-0.142,0.499-0.328,0.917-0.56,1.254
		c-0.231,0.338-0.605,0.604-1.12,0.8c-0.516,0.195-1.245,0.328-2.187,0.399c-0.943,0.071-2.18,0.107-3.708,0.107
		c-1.637,0-2.917-0.053-3.842-0.16c-0.925-0.106-1.564-0.364-1.92-0.773c-0.355-0.408-0.48-0.987-0.374-1.733
		c0.107-0.747,0.374-1.743,0.802-2.988l21.284-61.243c0.214-0.604,0.462-1.093,0.747-1.467c0.284-0.373,0.737-0.658,1.361-0.853
		c0.621-0.196,1.484-0.32,2.586-0.374c1.102-0.053,2.561-0.08,4.375-0.08c2.098,0,3.771,0.027,5.015,0.08
		c1.244,0.054,2.214,0.178,2.907,0.374c0.694,0.194,1.191,0.489,1.494,0.88c0.302,0.392,0.561,0.925,0.774,1.6L930.9,278.879z
		 M899.211,228.252h-0.053l-9.763,29.341h19.579L899.211,228.252z"/>
	<path clip-path="url(#SVGID_2_)" fill="#9CCB3C" d="M991.77,282.293c0,0.392-0.072,0.72-0.213,0.987
		c-0.144,0.266-0.481,0.488-1.015,0.667c-0.534,0.177-1.315,0.301-2.348,0.373c-1.032,0.07-2.437,0.106-4.215,0.106
		c-1.493,0-2.685-0.036-3.573-0.106c-0.89-0.072-1.593-0.205-2.108-0.4c-0.515-0.195-0.88-0.444-1.093-0.747
		c-0.214-0.302-0.392-0.667-0.534-1.093l-6.188-15.418c-0.747-1.742-1.478-3.289-2.188-4.642c-0.711-1.351-1.502-2.479-2.373-3.387
		s-1.877-1.592-3.014-2.055c-1.139-0.461-2.454-0.693-3.949-0.693h-4.374v26.3c0,0.356-0.115,0.677-0.347,0.961
		c-0.232,0.284-0.613,0.516-1.146,0.693s-1.245,0.32-2.134,0.427c-0.89,0.107-2.027,0.16-3.415,0.16
		c-1.352,0-2.479-0.053-3.387-0.16c-0.907-0.106-1.627-0.249-2.161-0.427c-0.533-0.178-0.906-0.409-1.119-0.693
		c-0.215-0.284-0.32-0.604-0.32-0.961v-62.683c0-1.565,0.399-2.694,1.199-3.387c0.802-0.694,1.788-1.041,2.962-1.041h17.87
		c1.814,0,3.309,0.036,4.481,0.106c1.174,0.071,2.241,0.16,3.202,0.268c2.773,0.391,5.271,1.066,7.495,2.026
		c2.222,0.96,4.107,2.214,5.654,3.762c1.547,1.547,2.729,3.379,3.547,5.494c0.818,2.116,1.228,4.543,1.228,7.282
		c0,2.313-0.293,4.419-0.88,6.321c-0.587,1.903-1.45,3.601-2.587,5.095c-1.14,1.494-2.544,2.792-4.215,3.895
		s-3.574,1.993-5.708,2.667c1.03,0.499,2,1.104,2.907,1.813c0.906,0.712,1.761,1.574,2.561,2.588c0.8,1.015,1.555,2.17,2.267,3.469
		c0.711,1.298,1.405,2.765,2.08,4.4l5.816,13.604c0.534,1.352,0.889,2.339,1.066,2.961S991.77,281.938,991.77,282.293
		 M973.685,235.454c0-2.275-0.517-4.196-1.547-5.762c-1.032-1.564-2.722-2.668-5.069-3.308c-0.711-0.177-1.52-0.32-2.427-0.427
		c-0.906-0.107-2.16-0.16-3.761-0.16h-6.296v19.578h7.149c1.992,0,3.734-0.24,5.228-0.72c1.494-0.48,2.738-1.155,3.734-2.027
		c0.995-0.871,1.742-1.911,2.241-3.121C973.435,238.3,973.685,236.948,973.685,235.454"/>
	<path clip-path="url(#SVGID_2_)" fill="#9CCB3C" d="M1042.982,278.612c0,1.031-0.045,1.894-0.135,2.587
		c-0.088,0.693-0.222,1.254-0.399,1.681s-0.4,0.738-0.666,0.933c-0.267,0.196-0.562,0.294-0.88,0.294h-34.677
		c-1.174,0-2.16-0.347-2.96-1.039c-0.801-0.694-1.2-1.823-1.2-3.389v-60.176c0-1.565,0.399-2.694,1.2-3.387
		c0.8-0.694,1.786-1.041,2.96-1.041h34.463c0.319,0,0.604,0.089,0.854,0.267c0.248,0.178,0.462,0.489,0.64,0.933
		c0.179,0.446,0.311,1.015,0.4,1.708c0.088,0.693,0.134,1.574,0.134,2.641c0,0.996-0.046,1.841-0.134,2.534
		c-0.09,0.693-0.222,1.254-0.4,1.681c-0.178,0.427-0.392,0.738-0.64,0.934c-0.25,0.195-0.534,0.293-0.854,0.293h-24.646v16.857
		h20.858c0.32,0,0.613,0.099,0.88,0.294c0.268,0.196,0.489,0.498,0.668,0.907c0.177,0.409,0.31,0.96,0.399,1.654
		c0.089,0.692,0.134,1.538,0.134,2.533c0,1.031-0.045,1.886-0.134,2.561c-0.09,0.677-0.223,1.219-0.399,1.627
		c-0.179,0.41-0.4,0.703-0.668,0.881c-0.267,0.178-0.56,0.267-0.88,0.267h-20.858v19.472h24.86c0.318,0,0.613,0.099,0.88,0.294
		c0.266,0.194,0.488,0.506,0.666,0.933s0.312,0.987,0.399,1.681C1042.938,276.718,1042.982,277.581,1042.982,278.612"/>
	<path clip-path="url(#SVGID_2_)" fill="#9CCB3C" d="M34.396,119.862l-7.038-39.15c0.649-0.133,1.305-0.252,1.968-0.358l7.4,41.162
		l21.486,15.253L34.726,79.801c0.708-0.035,1.421-0.054,2.139-0.06l24.406,59.199l24.311,17.257l1.105-56.902
		c0.667,0.552,1.322,1.111,1.968,1.676l-1.1,56.627l20.758,14.736c-0.048,0.063-0.09,0.129-0.139,0.19
		c-1,1.272-2.091,2.445-3.257,3.53l-9.145-6.492l-39.734,12.033c21.047,7.242,41.645,4.373,52.336-9.236
		c15.132-19.261,4.691-52.716-23.321-74.722c-28.012-22.007-62.987-24.232-78.119-4.97c-1.312,1.67-2.419,3.452-3.352,5.319
		L34.396,119.862z"/>
	<path clip-path="url(#SVGID_2_)" fill="#9CCB3C" d="M93.708,168.098L74.22,154.265L9.647,144.6
		c5.057,8.181,11.998,16.027,20.607,22.79c8.107,6.369,16.797,11.07,25.421,14.083l-0.516-1.702L93.708,168.098z"/>
	<path clip-path="url(#SVGID_2_)" fill="#9CCB3C" d="M70.612,151.703l-68.96-48.954c-3.682,11.717-1.102,26.041,6.679,39.633
		L70.612,151.703z"/>
	<path clip-path="url(#SVGID_2_)" fill="#9CCB3C" d="M152.126,123.886l-12.056-30.653L86.364,43.841
		c-0.103,11.513,2.528,24.176,8.153,36.551C107.321,108.566,131.436,126.037,152.126,123.886"/>
	<path clip-path="url(#SVGID_2_)" fill="#9CCB3C" d="M138.396,88.978L105.109,4.346c0.861-0.498,1.74-0.972,2.657-1.388
		c0.616-0.28,1.241-0.53,1.868-0.767l11.312,28.758L137.202,3.72c0.611,0.261,1.221,0.547,1.83,0.835l-17.161,28.746l11.019,28.017
		l39.155-23.538c0.317,0.583,0.62,1.182,0.926,1.776l-39.338,23.649l16.118,40.98l32.301-37.795c0.149,0.87,0.287,1.738,0.408,2.602
		l-31.88,37.301l6.556,16.67c1.593-0.432,3.158-0.98,4.684-1.673c22.3-10.135,28.322-44.877,13.45-77.599
		c-14.871-32.722-45.004-51.032-67.304-40.898C94.753,8.798,87.257,23.444,86.435,41.188L138.396,88.978z"/>
	<path clip-path="url(#SVGID_2_)" fill="#9CCB3C" d="M239.471,83.137L226.572,29.96c1.601-0.511,3.226-0.896,4.871-1.129
		l9.282,38.266l19.447-29.778c0.538,0.39,1.072,0.788,1.603,1.202l-20.403,31.243l15.747,64.915l32.904-45.348
		c0.145,0.964,0.272,1.925,0.381,2.881l-32.666,45.02l1.93,7.956c2.654-0.231,5.27-0.793,7.813-1.737
		c21.741-8.07,29.958-39.958,18.353-71.222c-11.605-31.265-38.638-50.069-60.379-41.998c-10.487,3.892-17.816,13.335-21.303,25.569
		L239.471,83.137z"/>
	<path clip-path="url(#SVGID_2_)" fill="#9CCB3C" d="M254.531,145.222l-14.305-58.97l-36.63-28.353
		c-3.099,12.749-2.185,28.223,3.505,43.554C216.48,126.721,235.936,143.841,254.531,145.222"/>
	<path clip-path="url(#SVGID_2_)" fill="#9CCB3C" d="M33.143,241.143l-23.806-6.827c0.257,4.557,1.279,9.191,3.008,13.76
		L33.143,241.143z"/>
	<path clip-path="url(#SVGID_2_)" fill="#9CCB3C" d="M85.778,205.592c-27.24-16.18-59.331-12.447-71.678,8.339
		c-2.783,4.687-4.314,9.84-4.721,15.195l82.742,23.728l-54.487-53.825l1.406-1.423l57.09,56.397l20.868,5.985
		c-0.24,1.658-0.598,3.292-1.068,4.895l-79.387-22.765l-23.455,7.817c4.987,11.814,14.665,23.02,27.98,30.929
		c0.859,0.51,1.723,1,2.591,1.471l70.119-11.936c-0.373,0.754-0.769,1.501-1.202,2.234l-65.941,11.223
		c25.91,12.6,54.596,8.053,66.11-11.332C125.092,251.739,113.018,221.771,85.778,205.592"/>
	<path clip-path="url(#SVGID_2_)" fill="#9CCB3C" d="M171.992,312.993l-25.96-12.361c2.635,9.076,5.747,16.77,9.326,22.972
		L171.992,312.993z"/>
	<path clip-path="url(#SVGID_2_)" fill="#9CCB3C" d="M139.919,200.903c-2.187,8.502-3.452,18.38-3.515,29.83l35.527-7.105
		L139.919,200.903z"/>
	<path clip-path="url(#SVGID_2_)" fill="#9CCB3C" d="M206.637,290.895l-66.699-19.127c1.447,9.703,3.242,18.49,5.374,26.307
		l28.668,13.65L206.637,290.895z"/>
	<path clip-path="url(#SVGID_2_)" fill="#9CCB3C" d="M199.182,298.022l-42.797,27.299c8.264,13.346,18.878,19.114,31.658,16.262
		L199.182,298.022z"/>
	<path clip-path="url(#SVGID_2_)" fill="#9CCB3C" d="M312.493,179.575c0,0-20.5-28-95-30.5c0,0-58.445-8.289-76.105,46.738
		l54.148,38.439l-28.901-73.479c1.427-0.959,2.872-1.844,4.327-2.659l15.31,38.924l23.908-48.235c0.792,0.01,1.528,0.03,2.204,0.057
		l-25.125,50.69l15.731,39.995l12.676,8.998l15.151-97.202l1.977,0.308l-15.306,98.188l31.763,22.549
		c-0.906,1.306-1.828,2.705-2.758,4.173l-19.118-13.571l-42.579,12.819l-0.576-1.915l41.089-12.371l-25.965-18.432l-0.288,0.112
		l-0.174-0.44l-11.604-8.238l-21.764,12.437l-0.992-1.736l20.958-11.977l-11.308-8.026l-37.779,7.556
		c0.012,1.571,0.043,3.169,0.1,4.8c0.615,10.279,1.512,19.879,2.682,28.772l97.401,27.931c-0.815,1.404-1.694,2.887-2.645,4.443
		l-24.728-7.091l-7.601,4.848l0.037,0.009l-11.383,44.517c4.192-1.235,8.604-3.36,13.237-6.429c22-15.5,39.5-52,39.5-52
		c17.5-31,32-32,34-33c0.884-0.29,1.759-0.599,2.627-0.924l-23.076-95.128c1.867,0.372,3.674,0.762,5.428,1.166l9.025,37.201
		l19.046-27.774c0.623,0.293,1.228,0.587,1.821,0.881l-20.234,29.507l12.657,52.178
		C309.268,235.043,325.285,208.357,312.493,179.575 M261.619,205.153l1.693,1.063l-14.022,22.342l-0.048-0.03l10.424,31.399
		c-0.521,0.5-1.048,1.019-1.586,1.573l-17.004-51.223l1.898-0.63l5.474,16.489L261.619,205.153z"/>
</g>
</svg>
