<?xml version="1.0" encoding="utf-8"?>
<!-- Generator: Adobe Illustrator 15.0.2, SVG Export Plug-In . SVG Version: 6.00 Build 0)  -->
<!DOCTYPE svg PUBLIC "-//W3C//DTD SVG 1.1//EN" "http://www.w3.org/Graphics/SVG/1.1/DTD/svg11.dtd">
<svg version="1.1" id="Layer_1" xmlns="http://www.w3.org/2000/svg" xmlns:xlink="http://www.w3.org/1999/xlink" x="0px" y="0px"
	 width="803.627px" height="481.869px" viewBox="0 0 803.627 481.869" enable-background="new 0 0 803.627 481.869"
	 xml:space="preserve">
<path fill="#F89820" d="M401.815,419.507c42.675,38.74,99.282,62.361,161.38,62.361c132.801,0,240.432-107.877,240.432-240.943
	C803.627,107.878,695.996,0,563.195,0c-62.098,0-118.705,23.621-161.38,62.362c-48.537,44.061-79.046,107.749-79.046,178.564
	C322.769,311.726,353.278,375.414,401.815,419.507"/>
<path fill="#F89820" d="M771.583,375.222c0-4.301,3.477-7.783,7.768-7.783c4.29,0,7.767,3.482,7.767,7.783
	c0,4.299-3.477,7.799-7.767,7.799C775.06,383.021,771.583,379.521,771.583,375.222 M779.351,381.136
	c3.252,0,5.897-2.639,5.897-5.914c0-3.277-2.646-5.914-5.897-5.914c-3.269,0-5.905,2.637-5.905,5.914
	C773.445,378.498,776.082,381.136,779.351,381.136 M778.295,378.642h-1.591v-6.84h2.886c0.599,0,1.224,0,1.734,0.35
	c0.559,0.369,0.878,1.023,0.878,1.695c0,0.799-0.447,1.502-1.189,1.773l1.271,3.021h-1.781l-1.041-2.717h-1.166V378.642z
	 M778.295,374.775h0.88c0.336,0,0.688,0.031,0.975-0.129c0.256-0.176,0.384-0.512,0.384-0.799c0-0.256-0.145-0.561-0.367-0.719
	c-0.289-0.145-0.72-0.111-1.023-0.111h-0.848V374.775z"/>
<path fill="#CB2128" d="M479.516,215.419c-0.904-8.646-2.277-17.164-4.067-25.491H328.203c1.875-8.709,4.208-17.212,6.981-25.522
	h133.28c-2.917-8.743-6.313-17.261-10.181-25.507H345.415c4.115-8.838,8.774-17.324,13.885-25.523h85.127
	c-5.562-8.902-11.69-17.42-18.339-25.506h-48.505c7.464-9.077,15.55-17.612,24.243-25.523C359.156,23.622,302.548,0,240.426,0
	C107.646,0,0,107.861,0,240.942c0,133.049,107.646,240.911,240.426,240.911c62.122,0,118.73-23.605,161.4-62.346
	c8.68-7.91,16.806-16.43,24.262-25.506h-48.505c-6.641-8.088-12.726-16.623-18.283-25.523h85.127
	c5.105-8.199,9.733-16.701,13.856-25.508H345.415c-3.859-8.262-7.318-16.766-10.231-25.508h133.28
	c2.764-8.326,5.122-16.828,6.984-25.521c1.79-8.359,3.163-16.861,4.067-25.508c0.895-8.375,1.342-16.893,1.342-25.491
	C480.857,232.312,480.41,223.794,479.516,215.419"/>
<path fill="#27245E" d="M320.112,310.511c-8.055,2.252-13.624,3.229-19.666,3.229c-12.186,0-19.757-7.688-19.757-21.814
	c0-2.797,0.252-5.77,0.768-8.92l1.585-9.717l1.215-7.861l11.339-67.828h25.048l-2.981,14.751h15.674l-3.68,25.075h-15.727
	l-6.755,40.562c-0.325,1.822-0.463,3.197-0.463,4.107c0,5.129,2.7,7.369,8.906,7.369c2.956,0,5.281-0.305,7.954-0.945
	L320.112,310.511"/>
<path fill="#27245E" d="M400.677,309.585c-8.934,2.73-17.569,4.025-26.727,4.025c-27.911,0-44.356-15.277-44.356-44.508
	c0-34.106,19.346-59.213,45.571-59.213c21.492,0,35.204,14.032,35.204,36.12c0,7.303-0.95,14.447-3.208,24.516h-51.865
	c-0.196,1.551-0.26,2.221-0.26,3.115c0,11.523,7.751,17.422,22.902,17.422c9.317,0,17.728-1.949,27.102-6.297L400.677,309.585
	 M385.13,250.468c0.156-2.063,0.235-3.756,0.235-5.068c0-8.053-4.574-12.8-12.346-12.8c-8.29,0-14.235,6.345-16.652,17.804
	L385.13,250.468z"/>
<polygon fill="#27245E" points="120.89,311.742 94.784,311.742 109.711,217.802 76.369,311.742 58.577,311.742 56.384,218.345 
	40.678,311.742 15.323,311.742 35.744,189.529 73.281,189.529 74.319,265.187 99.639,189.529 140.939,189.529 "/>
<path fill="#27245E" d="M183.58,267.472c-2.738-0.336-3.266-0.414-5.139-0.414c-14.795,0-22.294,5.688-22.294,15.117
	c0,6.186,3.668,10.133,9.373,10.133C178.137,292.308,183.132,282.16,183.58,267.472 M204.192,311.742H181.63l0.479-10.309
	c-5.717,7.768-13.437,12.002-27.349,12.002c-12.625,0-23.189-11.043-23.189-27.119c0-4.732,0.878-9.031,1.937-12.994
	c4.096-15.23,19.534-24.996,43.235-25.332c2.965-0.031,7.607-0.096,11.479,0.4c0.835-3.26,1.043-4.668,1.043-6.442
	c0-6.584-5.41-8.661-17.6-8.661c-7.444,0-15.787,1.311-21.616,2.989l-3.604,1.037l-1.523,0.433l3.605-22.343
	c12.222-3.707,20.72-5.273,30.361-5.273c22.403,0,34.273,10.1,34.273,29.15c0,4.907,0.492,8.614-1.238,19.69l-5.459,35.24
	l-0.894,6.344l-0.674,5.035l-0.469,3.451L204.192,311.742z"/>
<path fill="#27245E" d="M526.206,213.277c7.256,0,14.031,1.901,23.317,6.602l4.275-26.53c-2.317-0.959-2.988-1.23-6.306-2.397
	l-10.699-2.701c-3.316-0.831-7.224-1.263-11.691-1.263c-12.952,0-20.56,0.161-28.375,4.955c-4.228,2.588-9.486,6.376-15.582,13.073
	l-3.077-0.943l-26.594,18.938l1.279-10.66h-27.673l-15.902,99.391h26.106l9.525-53.506c0,0,3.716-7.305,5.441-9.59
	c4.811-6.489,9.054-6.538,14.479-6.362c0.672,0.033,1.567,0.049,1.878,0.065c-0.791,5.8-1.19,12.082-1.19,18.875
	c0,32.506,18.419,52.74,46.522,52.74c7.232,0,13.434-0.943,23.055-3.564l4.604-27.857c-8.671,4.252-15.743,6.281-22.184,6.281
	c-15.167,0-24.341-11.219-24.341-29.773C493.075,232.137,506.732,213.277,526.206,213.277"/>
<path fill="#27245E" d="M746.73,189.544l-5.729,34.889c-6.279-9.397-13.76-13.937-23.876-13.937
	c-13.713,0-26.267,7.863-34.273,22.534l0.072-0.144l-16.582-9.877l1.28-10.66H639.94l-15.909,99.407h26.105l8.63-53.49
	c0,0,6.697-7.463,8.423-9.748c3.844-5.051,8.118-6.027,11.58-6.266c-3.005,8.407-4.739,18.333-4.739,29.534
	c0,24.836,12.904,41.266,31.884,41.266c9.573,0,16.972-3.371,24.115-11.043l-1.285,9.748h24.716l19.873-122.213H746.73
	 M714.943,288.345c-8.886,0-13.369-6.586-13.369-19.596c0-19.527,8.391-33.401,20.241-33.401c8.982,0,13.849,6.841,13.849,19.481
	C735.664,274.552,727.113,288.345,714.943,288.345"/>
<path fill="#27245E" d="M594.743,267.472c-2.739-0.336-3.269-0.414-5.122-0.414c-14.8,0-22.294,5.688-22.294,15.117
	c0,6.186,3.651,10.133,9.357,10.133C589.303,292.308,594.313,282.16,594.743,267.472 M615.353,311.742h-22.559l0.495-10.309
	c-5.713,7.768-13.456,12.002-27.354,12.002c-12.616,0-24.083-10.818-23.972-27.232c0.16-23.637,17.764-38.213,45.948-38.213
	c2.98,0,7.599-0.096,11.49,0.4c0.823-3.26,1.048-4.668,1.048-6.442c0-6.584-5.418-8.661-17.605-8.661
	c-7.439,0-15.781,1.311-21.615,2.989l-3.604,1.037l-1.518,0.433l3.62-22.343c12.202-3.707,20.688-5.273,30.326-5.273
	c22.422,0,34.288,10.1,34.288,29.15c0,4.907,0.479,8.614-1.238,19.69l-5.457,35.24l-0.912,6.344l-0.662,5.035l-0.464,3.451
	L615.353,311.742z"/>
<path fill-rule="evenodd" clip-rule="evenodd" fill="#27245E" d="M258.59,233.623c5.121-0.033,12.106,0.495,19.613,1.502
	l3.732-22.949c-7.651-1.152-17.373-1.999-23.313-1.999c-29.18,0-38.785,15.599-38.785,33.93c0,11.826,5.729,20.68,19.486,27.201
	c10.571,4.969,12.36,5.881,12.36,10.389c0,6.201-5.365,9.699-15.677,9.699c-7.779,0-15.019-1.213-23.362-3.932l-3.024,22.84
	l0.587,0.143l4.775,1.008c1.522,0.318,3.843,0.703,6.856,0.99c6.197,0.527,11.416,0.895,14.796,0.895
	c28.966,0,40.929-11.25,40.929-33.162c0-13.648-6.485-21.654-19.534-27.648c-10.924-5.051-12.238-5.752-12.189-10.372
	C245.908,237.586,250.631,233.67,258.59,233.623"/>
<path fill="#FFFFFF" d="M560.862,185.661l-4.275,26.515c-9.31-4.683-16.077-6.585-23.301-6.585
	c-19.507,0-33.163,18.874-33.163,45.756c0,18.57,9.19,29.773,24.356,29.773c6.417,0,13.528-1.998,22.176-6.266l-4.596,27.842
	c-9.62,2.637-15.822,3.58-23.062,3.58c-28.081,0-45.604-20.234-45.604-52.742c0-43.693,24.181-74.234,58.789-74.234
	c4.436,0,8.359,0.432,11.676,1.263l10.7,2.701C557.866,184.446,558.553,184.718,560.862,185.661"/>
<path fill="#FFFFFF" d="M477.094,203.833c-0.783-0.16-1.662-0.24-2.63-0.24c-8.55,0-13.433,4.395-21.423,16.142l2.293-15.071
	h-23.605l-15.917,99.407h26.113c9.326-60.795,11.804-71.278,24.317-71.278c0.814,0,0.871-0.017,1.918,0.128
	c2.317-12.019,5.521-20.825,9.908-28.848L477.094,203.833"/>
<path fill="#FFFFFF" d="M326.745,302.824c-7.164,2.27-12.717,3.229-18.75,3.229c-13.342,0-20.629-7.703-20.629-21.816
	c0-2.795,0.255-5.783,0.767-8.916l1.591-9.734l1.214-7.863l11.324-67.81h25.942l-2.997,14.75h13.325l-3.588,24.181h-13.376
	l-6.864,41.458c-0.32,1.805-0.448,3.18-0.448,4.105c0,5.131,2.689,7.352,8.897,7.352c2.981,0,5.27-0.287,7.048-0.926
	L326.745,302.824"/>
<path fill="#FFFFFF" d="M226.482,236.068c0,12.578,6.082,21.208,19.842,27.728c10.551,4.971,12.182,6.426,12.182,10.932
	c0,6.199-4.639,8.998-14.955,8.998c-7.765,0-15.003-1.23-23.347-3.947l-3.604,22.934l1.167,0.223l4.775,1.008
	c1.533,0.32,3.823,0.607,6.82,0.863c6.197,0.559,10.984,0.83,14.364,0.83c27.497,0,40.209-10.484,40.209-33.146
	c0-13.648-5.314-21.639-18.383-27.664c-10.918-5.034-12.186-6.153-12.186-10.771c0-5.371,4.342-8.119,12.765-8.119
	c5.11,0,12.102,0.56,18.719,1.503l3.728-23.015c-6.756-1.071-16.989-1.949-22.946-1.949
	C236.487,202.475,226.403,217.753,226.482,236.068"/>
<path fill="#FFFFFF" d="M760.116,304.07h-24.677l1.288-9.764c-7.177,7.672-14.576,11.043-24.15,11.043
	c-18.978,0-31.516-16.396-31.516-41.248c0-33.068,19.449-60.957,42.464-60.957c10.141,0,17.859,4.188,25.003,13.617l5.714-34.904
	h25.747L760.116,304.07 M721.607,280.658c12.17,0,20.721-13.826,20.721-33.514c0-12.642-4.851-19.483-13.833-19.483
	c-11.874,0-20.264,13.856-20.264,33.403C708.231,274.058,712.723,280.658,721.607,280.658"/>
<path fill="#FFFFFF" d="M406.459,301.88c-8.934,2.748-17.598,4.076-26.727,4.045c-29.179-0.018-44.374-15.279-44.374-44.51
	c0-34.122,19.343-59.229,45.577-59.229c21.503,0,35.212,14.063,35.212,36.135c0,7.321-0.943,14.463-3.22,24.516h-51.866
	c-0.191,1.535-0.244,2.205-0.244,3.102c0,11.555,7.735,17.436,22.87,17.436c9.334,0,17.744-1.934,27.113-6.314L406.459,301.88
	 M391.807,242.78c0.16-2.063,0.239-3.771,0.239-5.066c0-8.087-4.578-12.801-12.346-12.801c-8.311,0-14.235,6.345-16.656,17.804
	L391.807,242.78z"/>
<polygon fill="#FFFFFF" points="127.531,304.054 101.433,304.054 116.388,210.113 82.998,304.054 65.222,304.054 62.997,210.657 
	47.306,304.054 22.866,304.054 43.283,181.842 80.82,181.842 81.863,257.5 107.178,181.842 147.713,181.842 "/>
<path fill="#FFFFFF" d="M191.794,259.769c-2.737-0.32-3.94-0.4-5.825-0.4c-14.784,0-22.275,5.1-22.275,15.119
	c0,6.186,3.664,10.133,9.35,10.133C183.675,284.621,191.351,274.472,191.794,259.769 M210.789,304.054h-21.636l0.512-10.309
	c-6.613,8.15-15.42,12.02-27.365,12.02c-14.14,0-23.845-11.076-23.845-27.154c0-24.195,16.876-38.292,45.828-38.292
	c2.964,0,6.761,0.256,10.621,0.767c0.83-3.292,1.038-4.683,1.038-6.456c0-6.585-4.563-9.03-16.749-9.03
	c-7.427,0-15.85,1.055-21.651,2.748l-3.631,1.072l-2.338,0.623l3.616-22.327c13.002-3.836,21.587-5.273,31.226-5.273
	c22.418,0,34.276,10.101,34.276,29.151c0,4.89-0.387,8.613-2.118,19.689l-5.461,35.225l-0.899,6.359l-0.671,5.035l-0.463,3.451
	L210.789,304.054z"/>
<path fill="#FFFFFF" d="M602.983,259.769c-2.733-0.32-3.949-0.4-5.834-0.4c-14.784,0-22.279,5.1-22.279,15.119
	c0,6.186,3.668,10.133,9.358,10.133C594.88,284.621,602.527,274.472,602.983,259.769 M621.969,304.054H600.33l0.519-10.309
	c-6.616,8.15-15.423,12.02-27.368,12.02c-14.137,0-23.846-11.076-23.846-27.154c0-24.195,16.846-38.292,45.828-38.292
	c2.949,0,6.745,0.256,10.62,0.767c0.814-3.292,1.039-4.683,1.039-6.456c0-6.585-4.563-9.03-16.75-9.03
	c-7.446,0-15.854,1.055-21.646,2.748l-3.636,1.072l-2.334,0.623l3.611-22.327c13.01-3.836,21.592-5.273,31.23-5.273
	c22.414,0,34.265,10.101,34.265,29.151c0,4.89-0.4,8.613-2.111,19.689l-5.457,35.225l-0.895,6.359l-0.679,5.035l-0.465,3.451
	L621.969,304.054z"/>
<path fill="#FFFFFF" d="M691.97,203.833c-0.808-0.16-1.669-0.24-2.613-0.24c-8.583,0-13.449,4.395-21.447,16.142l2.293-15.071
	h-23.604l-15.902,99.407h26.098c9.357-60.795,11.803-71.278,24.332-71.278c0.8,0,0.768-0.032,1.79,0.096
	c2.342-11.986,5.547-20.793,9.935-28.815L691.97,203.833"/>
</svg>
