<?xml version="1.0" encoding="utf-8"?>
<!-- Generator: Adobe Illustrator 15.0.2, SVG Export Plug-In . SVG Version: 6.00 Build 0)  -->
<!DOCTYPE svg PUBLIC "-//W3C//DTD SVG 1.1//EN" "http://www.w3.org/Graphics/SVG/1.1/DTD/svg11.dtd">
<svg version="1.1" id="Layer_1" xmlns="http://www.w3.org/2000/svg" xmlns:xlink="http://www.w3.org/1999/xlink" x="0px" y="0px"
	 width="321.962px" height="347.327px" viewBox="0 0 321.962 347.327" enable-background="new 0 0 321.962 347.327"
	 xml:space="preserve">
<g>
	<defs>
		<rect id="SVGID_1_" width="321.962" height="347.327"/>
	</defs>
	<clipPath id="SVGID_2_">
		<use xlink:href="#SVGID_1_"  overflow="visible"/>
	</clipPath>
	<path clip-path="url(#SVGID_2_)" fill="#9CCB3C" d="M317.228,181.078l-0.108-0.245l-0.159-0.217
		c-0.866-1.183-22.05-28.979-96.805-31.517c-2.741-0.366-35.298-4.159-59.282,17.403c-17.369,15.615-25.587,40.404-24.426,73.741
		c3.488,58.245,15.87,94.292,35.809,104.245c3.793,1.893,7.8,2.839,12.008,2.839c7.149,0,14.877-2.73,23.119-8.19
		c21.984-15.488,39.133-50.514,40.277-52.886c15.021-26.576,27.316-30.192,31.358-31.381c0.547-0.161,0.967-0.284,1.338-0.445
		c16.901-5.576,30.873-17.649,37.388-32.315C323.539,209.063,323.36,194.875,317.228,181.078"/>
	<path clip-path="url(#SVGID_2_)" fill="#9CCB3C" d="M31.159,171.874c13.942,10.953,30.021,17.519,45.275,18.49
		c1.312,0.083,2.603,0.125,3.875,0.125c13.86,0,25.297-4.923,32.479-14.065c7.843-9.983,9.597-23.699,4.94-38.621
		c-4.554-14.592-14.74-28.659-28.682-39.612c-29.052-22.824-65.67-24.863-81.629-4.549C-8.542,113.956,2.108,149.051,31.159,171.874
		"/>
	<path clip-path="url(#SVGID_2_)" fill="#9CCB3C" d="M151.226,129.072c4.874,0,9.624-0.963,14.078-2.988
		c23.52-10.688,30.11-46.984,14.692-80.909c-7.397-16.278-18.707-29.64-31.844-37.622c-13.442-8.167-27.211-9.771-38.77-4.517
		C97.821,8.29,89.974,19.718,87.288,35.214c-2.625,15.146,0.003,32.453,7.402,48.731
		C107.188,111.445,130.366,129.072,151.226,129.072"/>
	<path clip-path="url(#SVGID_2_)" fill="#9CCB3C" d="M259.498,150.319c3.849,0,7.646-0.648,11.303-2.006
		c22.998-8.537,31.892-41.929,19.827-74.436c-12.068-32.508-40.598-52.009-63.593-43.472c-22.999,8.537-31.894,41.929-19.828,74.436
		C217.354,132.18,239.144,150.319,259.498,150.319"/>
	<path clip-path="url(#SVGID_2_)" fill="#9CCB3C" d="M89.504,205.96c-28.381-16.856-62.072-12.726-75.104,9.212
		c-13.03,21.938-0.542,53.501,27.84,70.358c11.472,6.815,24.093,10.416,36.189,10.416c2.289,0,4.56-0.129,6.801-0.389
		c14.33-1.667,25.735-8.499,32.114-19.238C130.375,254.382,117.886,222.818,89.504,205.96"/>
</g>
</svg>
