<?xml version="1.0" encoding="utf-8"?>
<!-- Generator: Adobe Illustrator 15.0.2, SVG Export Plug-In . SVG Version: 6.00 Build 0)  -->
<!DOCTYPE svg PUBLIC "-//W3C//DTD SVG 1.1//EN" "http://www.w3.org/Graphics/SVG/1.1/DTD/svg11.dtd">
<svg version="1.1" xmlns="http://www.w3.org/2000/svg" xmlns:xlink="http://www.w3.org/1999/xlink" x="0px" y="0px"
	 width="163.995px" height="43.652px" viewBox="0 0 163.995 43.652" enable-background="new 0 0 163.995 43.652"
	 xml:space="preserve">
<g id="Background">
</g>
<g id="Guides">
</g>
<g id="Foreground">
	<path fill-rule="evenodd" clip-rule="evenodd" fill="#187FAE" d="M128.11,6.879c-4.104,0-7.348,1.089-9.829,1.584l-0.765,6.237
		c1.241-0.594,5.153-1.683,8.399-1.782c3.245-0.099,5.153,0.593,4.486,3.366c-9.64,0-16.131,1.979-17.467,8.218
		c-1.91,10.692,9.832,10.396,14.508,5.742l-0.573,2.574h8.59l3.724-17.029C140.709,8.561,134.123,6.78,128.11,6.879z
		 M128.683,24.304c-0.477,2.276-2.289,3.268-4.484,3.367c-1.908,0.098-3.628-1.586-2.387-3.565c0.956-1.683,3.628-2.079,5.25-2.079
		c0.667,0,1.434,0,2.1,0C128.97,22.818,128.872,23.513,128.683,24.304z"/>
	<polygon fill-rule="evenodd" clip-rule="evenodd" fill="#187FAE" points="146.531,0.145 139.425,32.818 148.15,32.818 
		155.345,0.145 146.531,0.145 146.531,0.145 	"/>
	<path fill-rule="evenodd" clip-rule="evenodd" fill="#187FAE" d="M106.442,0.245H90.468l-7.079,32.573h9.278l2.393-10.792h6.601
		c6.504,0,11.861-3.96,13.297-10.693C116.582,3.71,111.034,0.245,106.442,0.245z M106.157,11.333
		c-0.575,2.476-3.063,4.456-5.455,4.456h-4.304l1.914-8.91h4.592C105.296,6.879,106.73,8.859,106.157,11.333z"/>
	<path fill-rule="evenodd" clip-rule="evenodd" fill="#195A7F" d="M44.452,6.879c-4.054,0-7.261,1.089-9.618,1.584L34.081,14.7
		c1.131-0.594,4.998-1.683,8.202-1.782c3.207-0.099,5.092,0.593,4.526,3.366c-9.522,0-15.933,1.979-17.253,8.218
		c-1.886,10.692,9.71,10.396,14.235,5.742l-0.564,2.574h8.58l3.677-17.029C56.991,8.561,50.391,6.78,44.452,6.879z M45.111,24.304
		c-0.471,2.276-2.357,3.268-4.525,3.367c-1.886,0.098-3.488-1.586-2.263-3.565c0.942-1.683,3.582-2.079,5.091-2.079
		c0.754,0,1.414,0,2.168,0C45.395,22.818,45.206,23.513,45.111,24.304z"/>
	<polygon fill-rule="evenodd" clip-rule="evenodd" fill="#195A7F" points="59.221,7.347 67.8,7.347 69.183,22.517 77.578,7.347 
		86.432,7.347 66.046,43.652 56.453,43.652 62.725,32.979 59.221,7.347 59.221,7.347 	"/>
	<path fill-rule="evenodd" clip-rule="evenodd" fill="#195A7F" d="M23.113,0.245H7.097L0,32.818h9.399l2.301-10.792h6.712
		c6.426,0,11.797-3.96,13.235-10.693C33.278,3.71,27.812,0.245,23.113,0.245z M22.825,11.333c-0.575,2.476-2.973,4.456-5.371,4.456
		h-4.412l2.014-8.91h4.603C21.962,6.879,23.497,8.859,22.825,11.333z"/>
	<path fill="#195A7F" d="M157.229,4.368V0.516h-1.438V0h3.462v0.516h-1.444v3.852H157.229z"/>
	<path fill="#195A7F" d="M159.826,4.368V0h0.865l1.036,3.091c0.096,0.288,0.165,0.503,0.209,0.646c0.05-0.159,0.128-0.392,0.232-0.7
		L163.218,0h0.777v4.368h-0.556V0.711l-1.274,3.657h-0.521l-1.263-3.716v3.716H159.826z"/>
</g>
</svg>
