<?xml version="1.0" encoding="utf-8"?>
<!-- Generator: Adobe Illustrator 15.0.2, SVG Export Plug-In . SVG Version: 6.00 Build 0)  -->
<!DOCTYPE svg PUBLIC "-//W3C//DTD SVG 1.1//EN" "http://www.w3.org/Graphics/SVG/1.1/DTD/svg11.dtd">
<svg version="1.1" id="Layer_1" xmlns="http://www.w3.org/2000/svg" xmlns:xlink="http://www.w3.org/1999/xlink" x="0px" y="0px"
	 width="364.715px" height="217.668px" viewBox="0 0 364.715 217.668" enable-background="new 0 0 364.715 217.668"
	 xml:space="preserve">
<g>
	<defs>
		<rect id="SVGID_1_" width="364.715" height="217.668"/>
	</defs>
	<clipPath id="SVGID_2_">
		<use xlink:href="#SVGID_1_"  overflow="visible"/>
	</clipPath>
	<path clip-path="url(#SVGID_2_)" fill="#9BB465" d="M76.578,172.852c-3.535,0-6.402,2.863-6.402,6.398
		c0,3.395-2.758,6.153-6.149,6.153c-3.394,0-6.152-2.759-6.152-6.153c0-3.39,2.758-6.152,6.152-6.152
		c3.535,0,6.399-2.862,6.399-6.398c0-3.535-2.864-6.398-6.399-6.398c-10.449,0-18.953,8.5-18.953,18.949s8.504,18.953,18.953,18.953
		c10.45,0,18.95-8.504,18.95-18.953C82.977,175.715,80.113,172.852,76.578,172.852"/>
	<path clip-path="url(#SVGID_2_)" fill="#9BB465" d="M140.609,172.852c-3.535,0-6.398,2.863-6.398,6.398
		c0,3.395-2.758,6.153-6.152,6.153c-3.391,0-6.153-2.759-6.153-6.153c0-3.39,2.762-6.152,6.153-6.152
		c3.535,0,6.402-2.862,6.402-6.398c0-3.535-2.867-6.398-6.402-6.398c-10.45,0-18.954,8.5-18.954,18.949s8.504,18.953,18.954,18.953
		c10.449,0,18.949-8.504,18.949-18.953C147.008,175.715,144.145,172.852,140.609,172.852"/>
	<path clip-path="url(#SVGID_2_)" fill="#9BB465" d="M307.273,172.852c-3.535,0-6.402,2.863-6.402,6.398
		c0,3.395-2.758,6.153-6.148,6.153s-6.152-2.759-6.152-6.153c0-3.39,2.762-6.152,6.152-6.152c3.535,0,6.402-2.862,6.402-6.398
		c0-3.535-2.867-6.398-6.402-6.398c-10.449,0-18.953,8.5-18.953,18.949s8.504,18.953,18.953,18.953s18.949-8.504,18.949-18.953
		C313.672,175.715,310.809,172.852,307.273,172.852"/>
	<path clip-path="url(#SVGID_2_)" fill="#9BB465" d="M364.574,120.528l-15.215-71.021c-2.68-13.43-15.492-23.941-29.191-23.941
		h-38.082V12.801C282.086,5.742,276.344,0,269.285,0H12.801C5.742,0,0,5.742,0,12.801v160.051c0,7.055,5.742,12.802,12.801,12.802
		h13.351c3.059,18.144,18.875,32.015,37.879,32.015c13.348,0,25.125-6.851,32.012-17.219c6.887,10.368,18.668,17.219,32.019,17.219
		c19,0,34.813-13.871,37.872-32.015h90.914c3.059,18.144,18.875,32.015,37.879,32.015c19,0,34.813-13.871,37.867-32.015h25.723
		c3.535,0,6.398-2.868,6.398-6.403v-57.383C364.715,121.418,364.668,120.969,364.574,120.528 M350.398,115.469h-41.82
		c-0.418-0.09-0.855-0.133-1.305-0.133c-3.602,0-6.531-2.93-6.531-6.531V63.801h38.59L350.398,115.469z M12.801,12.801h256.484
		v137.695c-6.438,5.7-10.949,13.516-12.438,22.355h-90.914c-3.059-18.148-18.872-32.02-37.872-32.02
		c-13.351,0-25.132,6.852-32.019,17.219c-6.887-10.367-18.664-17.219-32.012-17.219c-19.004,0-34.824,13.871-37.879,32.02H12.801
		V12.801z M64.031,204.871c-14.129,0-25.621-11.496-25.621-25.621s11.492-25.617,25.621-25.617c14.121,0,25.61,11.492,25.61,25.617
		S78.152,204.871,64.031,204.871 M128.062,204.871c-14.124,0-25.621-11.496-25.621-25.621s11.497-25.617,25.621-25.617
		c14.126,0,25.614,11.492,25.614,25.617S142.188,204.871,128.062,204.871 M294.727,204.871c-14.129,0-25.621-11.496-25.621-25.621
		s11.492-25.617,25.621-25.617c14.121,0,25.613,11.492,25.613,25.617S308.848,204.871,294.727,204.871 M332.594,172.852
		c-3.055-18.148-18.867-32.02-37.867-32.02c-4.43,0-8.68,0.762-12.641,2.149V38.367h38.082c7.199,0,14.445,5.688,16.383,12.633
		h-42.207c-3.535,0-6.402,2.867-6.402,6.403v51.402c0,10.125,7.828,18.457,17.746,19.266c0.508,0.128,1.039,0.198,1.586,0.198
		h44.641v6.332h-6.23c-3.531,0-6.398,2.867-6.398,6.398c0,3.535,2.867,6.403,6.398,6.403h6.23v25.448H332.594z"/>
	<path clip-path="url(#SVGID_2_)" fill="#9BB465" d="M32.008,38.367h217.594c3.531,0,6.398-2.867,6.398-6.402
		c0-3.535-2.867-6.398-6.398-6.398H32.008c-3.535,0-6.399,2.863-6.399,6.398C25.609,35.5,28.473,38.367,32.008,38.367"/>
</g>
</svg>
