<?xml version="1.0" encoding="utf-8"?>
<!-- Generator: Adobe Illustrator 15.0.2, SVG Export Plug-In . SVG Version: 6.00 Build 0)  -->
<!DOCTYPE svg PUBLIC "-//W3C//DTD SVG 1.1//EN" "http://www.w3.org/Graphics/SVG/1.1/DTD/svg11.dtd">
<svg version="1.1" id="Layer_1" xmlns="http://www.w3.org/2000/svg" xmlns:xlink="http://www.w3.org/1999/xlink" x="0px" y="0px"
	 width="346.8px" height="362px" viewBox="0 0 346.8 362" enable-background="new 0 0 346.8 362" xml:space="preserve">
<g>
	<defs>
		<rect id="SVGID_1_" width="346.8" height="362"/>
	</defs>
	<clipPath id="SVGID_2_">
		<use xlink:href="#SVGID_1_"  overflow="visible"/>
	</clipPath>
	<path clip-path="url(#SVGID_2_)" fill="#9FB865" d="M243.484,267.027l-59.074,32.664l-46.801-7.93
		c-7.125-1.207-12.691-6.497-14.578-13.125l50.965,8.285c9.254,1.504,18.273-4.45,20.535-13.547c1.203-4.86,0.391-9.863-2.289-14.09
		c-2.676-4.23-6.855-7.103-11.766-8.086l-73.915-14.816c-12.281-2.461-25.082-0.48-36.046,5.578L3.098,279.215
		c-2.875,1.59-3.938,5.199-2.379,8.093l38.004,70.614c0.797,1.48,2.183,2.559,3.812,2.972c0.485,0.121,0.981,0.185,1.473,0.185
		c1.16,0,2.308-0.34,3.297-0.988l31.488-20.711l87.395,13.203c9.691,1.465,19.585-0.613,27.871-5.848l70.301-44.43
		c4.645-2.934,7.859-7.5,9.059-12.863c1.195-5.363,0.23-10.863-2.727-15.496C264.887,264.844,252.934,261.805,243.484,267.027
		 M261.707,286.828c-0.496,2.223-1.832,4.117-3.758,5.336l-70.301,44.426c-5.848,3.695-12.832,5.16-19.668,4.129l-89.668-13.547
		c-1.46-0.219-2.957,0.105-4.191,0.918l-27.937,18.371l-32.086-59.614l62.222-34.382c8.481-4.688,18.383-6.219,27.887-4.316
		l73.914,14.816c1.664,0.336,3.082,1.309,3.988,2.742c0.906,1.433,1.184,3.129,0.773,4.777c-0.766,3.086-3.821,5.102-6.961,4.594
		l-58.524-9.512c-1.644-0.266-3.324,0.159-4.64,1.18c-1.317,1.022-2.149,2.543-2.297,4.203
		c-1.422,15.676,9.625,30.016,25.144,32.645l48.872,8.277c1.34,0.229,2.719-0.008,3.906-0.664l60.91-33.676
		c3.922-2.168,8.875-0.906,11.285,2.867C261.801,282.32,262.203,284.601,261.707,286.828"/>
	<path clip-path="url(#SVGID_2_)" fill="#9FB865" d="M346.062,219.441L293.77,102.168l36.383-36.383
		c13.609-13.605,13.609-35.75,0-49.355c-13.609-13.606-35.75-13.606-49.355,0l-36.383,36.382L127.141,0.519
		c-2.27-1.011-4.926-0.519-6.684,1.239l-15.719,15.718c-1.199,1.196-1.832,2.84-1.754,4.528c0.082,1.691,0.871,3.265,2.176,4.343
		l92.438,76.274c-8.523,9.691-16.875,19.543-25.032,29.543l-52.535,1.555c-1.531,0.046-2.984,0.671-4.066,1.753l-14.707,14.711
		c-1.317,1.317-1.949,3.168-1.707,5.016c0.238,1.848,1.324,3.481,2.933,4.414l33.883,19.676c-0.82,1.133-1.648,2.258-2.461,3.391
		c-4.949,6.902-5.297,15.777-1.371,22.878l-2.301,2.302c-2.343,2.344-2.343,6.141,0,8.484c1.172,1.171,2.707,1.757,4.243,1.757
		c1.535,0,3.07-0.586,4.242-1.757l2.297-2.297c3.203,1.77,6.765,2.675,10.347,2.675c4.36,0,8.746-1.332,12.535-4.05
		c1.133-0.813,2.262-1.641,3.391-2.457l19.676,33.879c0.938,1.609,2.566,2.695,4.414,2.938c0.258,0.03,0.52,0.051,0.773,0.051
		c1.582,0,3.113-0.625,4.246-1.758l14.707-14.711c1.083-1.082,1.711-2.535,1.754-4.066l1.555-52.535
		c10.004-8.157,19.852-16.508,29.543-25.032l76.273,92.438c1.078,1.304,2.652,2.094,4.344,2.176
		c0.094,0.003,0.191,0.003,0.285,0.003c1.586,0,3.113-0.628,4.242-1.757l15.719-15.719
		C346.582,224.367,347.074,221.711,346.062,219.441 M117.891,21.293l8.132-8.133l109.356,48.762
		c-10.145,10.347-20.082,20.929-29.801,31.726L117.891,21.293z M115.258,153.152l7.508-7.508l39.941-1.183
		c-6.535,8.273-12.941,16.636-19.207,25.094L115.258,153.152z M156.906,202.922c-1.953,1.402-4.261,1.961-6.496,1.734l35.75-35.746
		c2.344-2.344,2.344-6.145,0-8.484c-2.344-2.344-6.145-2.344-8.484,0l-35.75,35.746c-0.227-2.235,0.336-4.543,1.734-6.496
		c32.188-44.887,68.313-87.45,107.367-126.508l38.254-38.254c4.465-4.465,10.328-6.695,16.195-6.695
		c5.863,0,11.727,2.234,16.191,6.695c8.93,8.93,8.93,23.457,0,32.387l-38.254,38.254
		C244.355,134.609,201.793,170.734,156.906,202.922 M200.938,223.816l-7.509,7.508l-16.402-28.238
		c8.453-6.27,16.82-12.676,25.094-19.211L200.938,223.816z M325.289,228.691l-72.355-87.688
		c10.797-9.719,21.378-19.657,31.727-29.801l48.762,109.354L325.289,228.691z"/>
</g>
<g>
	<defs>
		<rect id="SVGID_3_" width="346.8" height="362"/>
	</defs>
	<clipPath id="SVGID_4_">
		<use xlink:href="#SVGID_3_"  overflow="visible"/>
	</clipPath>
	<path clip-path="url(#SVGID_4_)" fill="#9FB865" d="M301.422,37.484c4.23,0,7.676,3.446,7.676,7.676c0,3.312,2.688,6,6,6
		s6-2.688,6-6c0-10.848-8.828-19.676-19.676-19.676c-3.316,0-6,2.688-6,6C295.422,34.797,298.105,37.484,301.422,37.484"/>
</g>
</svg>
