<?xml version="1.0" encoding="utf-8"?>
<!-- Generator: Adobe Illustrator 15.0.2, SVG Export Plug-In . SVG Version: 6.00 Build 0)  -->
<!DOCTYPE svg PUBLIC "-//W3C//DTD SVG 1.1//EN" "http://www.w3.org/Graphics/SVG/1.1/DTD/svg11.dtd">
<svg version="1.1" id="Layer_1" xmlns="http://www.w3.org/2000/svg" xmlns:xlink="http://www.w3.org/1999/xlink" x="0px" y="0px"
	 width="774.156px" height="237.854px" viewBox="0 0 774.156 237.854" enable-background="new 0 0 774.156 237.854"
	 xml:space="preserve">
<polygon fill="#0059A0" points="272.725,234.428 311.892,4.018 374.593,4.018 335.35,234.428 "/>
<path fill="#0059A0" d="M562.699,9.685C550.288,5.016,530.823,0,506.517,0c-61.922,0-105.549,31.252-105.939,76.051
	c-0.347,33.104,31.145,51.593,54.917,62.607c24.409,11.291,32.612,18.504,32.511,28.58c-0.174,15.453-19.501,22.492-37.526,22.492
	c-25.066,0-38.395-3.484-58.979-12.086l-8.07-3.656l-8.8,51.592c14.622,6.434,41.697,11.998,69.82,12.273
	c65.89,0,108.642-30.877,109.134-78.725c0.246-26.193-16.45-46.143-52.604-62.594c-21.914-10.668-35.351-17.78-35.206-28.579
	c0-9.57,11.361-19.818,35.907-19.818c20.477-0.318,35.345,4.163,46.881,8.832l5.651,2.66L562.699,9.685z"/>
<path fill="#0059A0" d="M723.416,4.235H674.99c-15.013,0-26.237,4.106-32.829,19.111l-93.073,211.167h65.825
	c0,0,10.732-28.391,13.189-34.621c7.185,0,71.115,0.102,80.266,0.102c1.864,8.066,7.611,34.52,7.611,34.52h58.177L723.416,4.235z
	 M646.122,152.768c5.196-13.285,24.973-64.429,24.973-64.429c-0.355,0.622,5.153-13.342,8.305-22.001l4.25,19.877
	c0,0,11.998,55.002,14.514,66.553H646.122z"/>
<path fill="#0059A0" d="M220.156,4.178l-61.375,157.148l-6.551-31.934c-11.398-36.819-46.992-76.717-86.792-96.666l56.106,201.527
	l66.312-0.086l98.682-229.99H220.156z"/>
<path fill="#F9A61C" d="M101.869,4.033H0.77L0,8.832c78.621,19.082,130.661,65.166,152.229,120.561L130.278,23.491
	C126.491,8.89,115.476,4.554,101.869,4.033"/>
</svg>
